<mxfile host="65bd71144e">
    <diagram id="dyGeF20hD_RQFGeGNKfu" name="Page-1">
        <mxGraphModel dx="3027" dy="2123" grid="1" gridSize="10" guides="1" tooltips="1" connect="1" arrows="1" fold="1" page="1" pageScale="1" pageWidth="850" pageHeight="1100" math="0" shadow="0">
            <root>
                <mxCell id="0"/>
                <mxCell id="1" parent="0"/>
                <mxCell id="3" value="" style="shape=stencil(fZbdcgIhDIWfZm8zQAg/17Z9j85U606tdqz9e/tmZ0c0uJ47xP0I5JwEBl59bp8/1kNwn6fj4W39M76ctgM/DCGM++36OJ50NPDjwKvN4bh+PR6+9i/z74/n6ctp9H74nlb4nbmSKZeJCu5vngmZ6jzzNAO7cX8FVKEsBuBKrgKg9oAE8gkCbLeUhEoEQKSUDZDLeWYRKIl8MEDRmHwfyBrBG6Amyu4+kDxxMoB3jhwgYu7TVAsVkFcWCs4CTBEoF4RctKeOxHIf8IXYpikHikAIf+MNUW94AGSSaoAoFIE3AlOyeWU+p2E5S9yfQZcQILVuQOwZdJNoS9Ls3wA5u2XZTIHECqeJ9kDpSaauRiNVcAY1QhdBzeLBli5WazpkSsBLV25uRaqWRyFawTQzRRIQYirJzq5atkBqLfouwqUxLBepthWb10vrWZY6UOAeyKCCtDV625mm9gmUC4Wc3VLJMMIE1BsA2FW9JraVlQB7n3c9oMKhCLEvIM1zBPZ25/umNQ1tVEC2G+fFCC8g398O2hNQuQlVu752DBfA+q0ptnqO5JFmeuIuo9DY7KjY71UxdJV4EntifPWorW++R/dC4t7V3DlIB5cHx2bc7eb3yvX//QNFp+bHDT/+Aw==);lineShape=1;" vertex="1" parent="1">
                    <mxGeometry x="73.54502383075692" y="74.55239070558946" width="4.672539772115442" height="4.665236216357698" as="geometry"/>
                </mxCell>
                <mxCell id="4" value="" style="shape=stencil(lVfZctswDPwavWJIgudzmv5HZuLUnrp2xnF6/H2hqlREUFpN3mQZSwLYxaGBH96OT6+HwZm3++36/fDr9Hw/DvxlcO50OR5up7s8Dfw48MPL9Xb4dru+X56n369Po+X49OP6czzh94QzZOMIcubP9CIzWf735utkfz5dFvaRsm3so6VYtu2tJe8bgE8UDQAEKi2AmXLcBkgIoQ1B3vw/Yh0QyboGUCjnbXu5P6oLyILzvSdfGntDBkQcAoXQ2EsKAqDAa/9togw4S8JBC2BHBgEyhZZlIQ2pIgdyvSxATouh1LqUPJkEAIVMm6TC9YgtQFIAD7NkzUzTjIh7PqXcAhIx9sm2aSqZPPBJ/jat9OQItgAQKbEGZCCmIsy1MSzysI7geuDiigTqoTgKRQMsukG0wzpNFgVhK08L5groSiK/opgLNXFbN3CnpoCodrqxSt48EhNX6cwABzurOJCMBjhUc7FzSQDIpaQb0+gS4iF36pOgkVyL7t0SlUdaKlQU0wG7JICuqAt2iZU0pAhRWrOecB+9aiutzmhAQi6JNtugd2vU1y6xbAOIatcVhOQBTF0piNK1soCL+nOALG2jzWual4/1qSXEthUkkzKACorz3J8HryEHgo6uG6Shtqr10e5rG5pXB1xBnvXknUfx+m4iRLdJsrK/AbXKeaUtUcewGTtPsYt5bx9TG1+Bu4CNOubIVfAbk7rmcE5SqEW7BbAt0TniuatLOqfa/9e1Sl5t0dIzgPLkNKPtI6BZ9hCv7VE5e92Hd+zn0bT0B4lCz6oxXsSYnp5jPkH+Tc3Gki/gj6nrwVIQgK9u08ueHBg7n/1K2reXh49PspfT+Tx90S3/159w8mr6/OPHvw==);lineShape=1;" vertex="1" parent="1">
                    <mxGeometry x="68.96214829187261" y="71.43043125966665" width="31.73759392373904" height="36.88807767351534" as="geometry"/>
                </mxCell>
                <mxCell id="5" value="" style="shape=stencil(lVfZctswDPwavWJI8AD5nKb/kZk4taaunXGcHn9fqBqqBmVtnDeF3iWBxZkhPLztn153A7u3y/n0ffdrfL7sh/BlYB6P+915vOjXEB6H8PByOu++nU/vx+f579enCTl9/Tj9nG74PfMS+TSR2P2ZDxw59+/g6ww/jMcruP6c2OADpbSNDzfwDO6PjmI2eKZSt/HJUe7vL2Ebn/X+YvCJHLg/V8pi8EIM/BWhVA2+Nodu4msisferQRk4UIVi57CjEAGhkNgIh0IBuFzVZUuIhSrwwbslZxpDZa4ePiE2ChLIMSR0L5QI81Rl6ryuTIJMyuRt4qlwjHSNFK1JVzrcZjDlaJ8QKshrT87KpCcVEEqlYgmFYSCU0Hktvgm3RegCkTRd8AvR22zS0CBdNZ2tSUGa0lsqSbAlpCahmgt95LTmYAlpk7SycqSKTMqtaS0ErTmBRRq6Ik0fFWkvayJGfaNStS8kNRKpVFvmLEWtsQepoYRgO1PR5o87E9sXNPYe+ZBJ7AvTCVJJw9R1Y60Q5ENYmaS9r2ACf4YguY+DLDW4NYHYprfE1ke2RhyvatoDp3WGRjuD8hLKO4d0LuRBPay3gCwwcOs1QwkROL1aY8S10N+26EZyoxnHrWct+Aw7sW/DZsEzOXC/6xt3SrCHaZO0LUxntANpt5rQobbF4068b5Vxnz2MB8/KX6/9DpT+Ss8C5V+FK0L1V9mggxcY88md+UO4fvxfz1/Gw2He7q9/79d5PZr/FQiPfwE=);lineShape=1;" vertex="1" parent="1">
                    <mxGeometry x="62.061334370808936" y="91.38038905534313" width="37.84490082293655" height="5.5313190608816285" as="geometry"/>
                </mxCell>
                <mxCell id="6" value="" style="shape=stencil(lVbLctswDPwaXTEkABLkOY//yEycWlPHzjhO2v59odHIFSgbqm4yjSW5SyyAjh4+9y8fuw7D5+V8+rn71b9e9h09doj9cb879xf96uipo4e303n343z6Or6Ovz9ehsjh6/30Pezwe8TFECCEAYbhz7hUoIwLzyPg0B9ngCqQbDwKhOoACqRiAHRduQ2okKoBcAVBF8BoADlAzg4gQ00GINctbgI4TxQnwEy3mwhCYDYIvaU4rGOFYknUFZkgWQ7KKvH9eASx71YJiiPSIi9qgEIOgemNrnkkIM7+AtlKWhiqOPsLoM2jopQcgCrEDSACOQAmCA2FANVJi5SBa3sCO2+WC3BuOXikZalSAnRULQTYcCiuPVV1bvIoQnSupBRRLIAhOqSFF5mU3RKTqfWzWsFLpaR2j63ZSnLcqQVg4c7qnIC0cGeF4NkZIZMFCJBDmhd2ZlekANxQjit2zk3mrWg6pdks8TxJI4FYSQu5NXU4wTLQzBKnwNDSPMF9tAHAWwDKIdkrqf9cwDVrZp0HvSKMEOwJK70NFzVppXtqIsVN/VkLd94yAAyNxKqaIXsXWvROduMpts+MbhEe9LBOi9OEcq+XV8s3TK9+r8iH0sR7nT+n9j5+vJZH2XIftVWQDXy1bUfeoGdNrQn899LaXBoPuPGbJ87/AOjHvwH3rT8cxvl4/n87EOvSOEzT018=);lineShape=1;" vertex="1" parent="1">
                    <mxGeometry x="68.21930536418608" y="125.4040024470662" width="5.4129182568967735" height="23.947327060992848" as="geometry"/>
                </mxCell>
                <mxCell id="7" value="" style="shape=stencil(lVjLbhsxDPwaXwlJ1IvnNP2PAHEao2kcOOnr78vFQuqSG0+Q23rNkURyOKT2wDevj3cvx0MKr2+X8/fj79P92+OBvxxSOj0/Hi+nN3068O2Bbx7Ol+O3y/nn8/36++VusVyefpx/LSv8WXGZOC+gFP6uL2IgWd98Xe2fTs8b+xSodwPolNN1ey4kydhXCvG6fS6UmrHPFMH6pVCLxj5RBuevlRJbhymE6/atjHAM+0ChXbfvTK16e7C+FH+eTAX4G8NcbzpQKIMT6Q7VeqApi8iFSt2mgBsVBjGq48jTBx5LvA8IFC2Jsu7QYRaKGEBJ1ACgR2LrQ1Xigrh2jZLNW4skBQKiTVxPJChKnVIxAGGYh1qILbVFKILaKX1fzJh9S7V1v0UHW7CG3aZatP4rAARiG1dpY4n3BWbnhGjJgiOpoHTLDVHJAE4rILpERKofAOwOvZMA9qVGwUapV1jV6nSxR+oZFrWGtbodmALQPeYhuxu6skDhztUDUI2qSLTsj1TQDjLWmwBlPIhSniU8AQ3ukFUFrFaKKg9gq+4gjktKeKAC6oO4Gi2wRrl76VN6C8p0GVTbVFxER9KoZw9A8s1xdNgNIIAoKVuleh8ayIPWg89Dpg580Irz0pegzCxThStR+WgHp/fKJUYy00aaNmwNyGnZTUpMGeUh7WRGKw5xKVMtHgCHsc8CSqTWvA8orFW5tBOBhABtdNkJCNTQQBYo27A2Hh3j2sRXbKPWNxEBgle+0mAHWv52M2ulDHyoM+pzwppj7zWnmy0gbQAdDxsuSkr4BpxeyGzzoINrQ1OiOu2GjQSj1HYVp1cN1IGUGtw9AEml5iHw7khI7usYIieA4XCiPS67HQoU4zQreAI6ZquvH72fCOqJXmQWe9R0d5eBCHmhTBVvH8EUEKlYoiqNkL9KMhdQgZUQKCUfzwASsL8tVZjh4PuIJpiBv2GMadMeD587fVSKCmpsY6rb2AfEUH8riToDAaH47P3/Y3t9+P+x4eH09LR+q9j+7z9O6Kv1wwbf/gM=);lineShape=1;" vertex="1" parent="1">
                    <mxGeometry x="64.5872939338442" y="121.83104463616883" width="36.689922122426424" height="34.56139241378003" as="geometry"/>
                </mxCell>
                <mxCell id="8" value="" style="shape=stencil(rVjLbhsxDPwaXwlJpETpnKb/ESBObdSNA8d9/X25NbRdcdeDFuht43gsPmaG1O744f3w9LbfpfB+vZw/778fn6+HHX/YpXR8Pewvx6s97fhxxw8v58v+0+X89fX59vfb0/TN6enL+dv0Cz9uOG1UdEKl8PP2SWIq7fcnH2+A0/F1AShCKgMgFqrpPiBHqjwCEqV8H8CF4hhSDBTLfUBSqsUDRO8DopLGESDUIgBY0nWsUqICkjZAGavEQlFgSLUNAMmwDymTjCdkpRRAWQNpGACFMaCQjI0rlRoISRLFsUoqvZXb1GDiMaQaqVRIvjw2rmbYB7UURy7V0vm7CaiWIvsTAqBGi5TzCLDeg7I26VVfABD5WqHcfEgNnVA7+2eAkoCyNjMBl0PDAgqBwphEw52zI2RMonFX7b0knAu0TBVlXTz7mgkChcSkaQTYmcCYLMVQPIAZksk1wkJSEJKRM43sm5qPACYIF5JQRfxm3+qWSEHSBsiurIEySlqIHfusDKBxE5tHJ7MyIAXZ78WVCzCiRqAyVmnSKCIf974uAAp8ZuKm+JAyCkm75hdJQ1E3YvFlRVwyQFs1rgFqGEAdNRjrofYJtZBoBAOizSku6F3RCbIin3Z//j8AVT+oF962PYOy54YVLoGsbQHyjcjQmET8aDfnQV7J2vWyMPyMALFHPAMSZcBv2zbCKGot0GeikXOUnAZ4gi2F6rYNhpJTvwpkbJXcj58XrNbtfDsgP38kwoVsNRFt40tghtr3xyYn20zQzPXjLTa4FZsNux03QvnbzuymW4aDwTrsA+qL/r0t3Y0qrDMjdRb/faQa23HcLaBXYFuWNnZGu+N+K9jWfVtthnC5tQEgrj4CE5420xUAKcBEXscMYoZLmE0M5xPT3Q3N8tZ33xlQKQARTABnpza3EGA1Q6zNBZVV+x1kBkS88RRvv3Z3g0lnf1GavAPlIP0+OwMEUtXM1p9gPwG0bNeiKB4Q0Vj712v9XwDs4c9bhJfj6XR7CbH8v3/rYB/d3ljw4y8=);lineShape=1;" vertex="1" parent="1">
                    <mxGeometry x="58.04671230940153" y="170.40025333235167" width="31.443531415338384" height="37.724364031368964" as="geometry"/>
                </mxCell>
                <mxCell id="9" value="" style="shape=stencil(lZbZbhsxDEW/Zl4JUdRCPafpfwSIUxt17cBxuvx9OR3IGcr2LfI2HutIXO7laJKHt+3T62aK4e18On7f/No9n7eTfJli3B22m9PubE+TPE7y8HI8bb6dju+H5+X369O8cn76cfw57/B74ZQpl5mK4c/yhoVa/vfm6wLsd4c10CgGB4hSAQAnYnWACnEFQCFlB9RKLd4HovQALoBQBCdIouBzKI0q3wdSoVo9UKmE+0AJVHgEUNLVQmoeUEoA0EzVA5VJQB9aouT7UDNlUNZmnfbS0EA5QaBED2RSBYAFIA5ogVoDSVdKvqy2hYAcaiH2ITUrK8ihRNLk/RBCV8ttbWj3y+WIRgoaIbmreRUTOiFmYi9X6yW0nInzqq4MsjaPij9BE5wCnHsVL2Jq/czbOVhjByBRBZ2TQNHnUANVEFKKJB4wBzE4IVsfvCFmjwJgHhJpBFCnNXbPr3KIoEqNx5DmuQAGkymHh7IqKdDSSs2rVvOniQBcaib1c2NuDSjT1f6zfoFabf1gUSFF2hu1ytgNlcIw7Pv0v10g+/z49fYFReFwj/YSD1UwJYVH+wc4wlLox3+sR+Mlm6/KuD/It1z3q8/M2+t1nMFY0yb5Uob6K/p02nfK72/9jciWn77z/B+wh48r1stuv19uaOv/xyuZvVquc/L4Fw==);lineShape=1;" vertex="1" parent="1">
                    <mxGeometry x="67.77408299596891" y="234.59318267838523" width="5.075351192147082" height="13.19135014385131" as="geometry"/>
                </mxCell>
                <mxCell id="10" value="" style="shape=stencil(lVjbchoxDP0aXjWWr/Jzmv5HZkIKUwoZQnr5+2rLeMEye6BvyyLZlnTOkbyr8PSxeXlfr7z7OB0P39e/tq+nzSp8WXm/3W/Wx+1Jn1bheRWe3g7H9bfj4XP/ev79/jJZTk8/Dj+nFX6f/QKxn5y8+3N+4ci5fy++ns132/2VOZf298U+xGX74EnE2CdZto+Bil2/lmX7lCiFzt6T88v2uVDs440kvGxfhJg7e6EKzi+an9TZcyQXlh1qIOkD4EoZRFCFYu0jLq2Gt0vmnK1ZKG2N21sUktwnSWAVNAjfB5EqBbDDlKZ+hyzkAe5KtUcqWnkQdVEc9GkSpgwqlyNxv4MekkHlUibfO1SmCrgQK7meCzWRgBiib1mfHYRSBmwrFhtXxb/pcYHzvEWlmICDEtqcKcMgOLUszg6uFf+2w0yYuRACwcSKvj4GycSg1DzkVQJlgG/dgaMFE+ScylgvAyokBcUQqRh8Z6oAfZyt0CghCkCfKncU64CkmxUaftgBFE6l2rshBlAHz4ODkCDwMYkb6gDSqg61z5JWGmVJHbIBn9IcHcnZBqdojSitlYohkCNGLVfX61uQ6oxDO2jWB2FiBO/UVOXqSBE5RApGKytsu8qHOFC0IhEIbb3ZIbZOv+hgCsf3dkgGfBXvEJsKzQ64jWpa88AHqHzDcDVRFAmZNK2+7ooohmoJpEeCMfyvgw4jZp6ZGAewFMZKK+NQV+QBfCr3gKKxDDNchIxL2oGMA55aM1Oqtg5I7nO1TbHoHI3m0GwnLJ1XIsiSeAvvVKjikSz3dUhYZnToM3wIOsOBGC4qNE+uArEkyQ7rOn0gLCkhDZaUUsghZ9t2VRYE3zdCn1ZWOALG6YUm96MDK5YAWscb0+SAtHVQDXWAjLNXPg0B0cFTKHZ9NOdqC83WHnaTBrO5+1ABMHL2xid3zNmMPTCbw10Ji9FgHlv1HjtMgLoyhOopoknBJpLvmJs6uQbVx2Dg2oXpMZThi8hdc324fMN42+52508g1//bbx766vy9JDz/BQ==);lineShape=1;" vertex="1" parent="1">
                    <mxGeometry x="60.74928958263126" y="226.73760326821855" width="51.081083965373864" height="28.928470824406872" as="geometry"/>
                </mxCell>
                <mxCell id="11" value="" style="shape=stencil(nVjLbhsxDPwaXwlJ1IvnNP2PAHFqo2kcOEkff19uDW1Mrnec9La2h5Y4HI6o3fDNy+7uebtJ4eX1ePi+/bW/f91t+Msmpf3Tbnvcv+rThm83fPNwOG6/HQ9vT/enz893E3J6+nH4Of3D71NcoBCmoBT+nL6QQqH/++brCf+4fzrDR4rR4DtTjet4ptIMvkUKvI6fVx/4msY/XMQ3itXgC1MC+KgJiwnITB0kEDMVmzEXymU9QCkSG5CEpo+rFCWKNmfNKoAA3XGqfgVEknIS0yKHuh5QIzW7Qk7UAEtVBolzHVQpqG5aOFuHGoiB8PpCSbomYql3qk56hTqQXs/U3QqdmoCAQsw+h5BhQLd1KBoAaO11kDgXTolGLFXKtp9VGh3UQQOqLVwUqkAaGsB2hUztygLZpkAJcdQ8PuKMxVMUBskX8RK9AQQoVGEv1NkyL+MLpeLwDFQn2uvN5RsRvlO2okvEQEIym887/w3wr3gnak0INIHux1lFpQbqpfkW63adArBT5bOLwwvaD3u8UEb7iWO7H8Or3lr7xH7UhoLfP8pX+8UdH/Vaf7HtF63XFYew9cJ60H5M9v+x3ibbdYaC9RwoW31e6Zc0yvPBftTz+1P9XqkEh4d+0oflf8yvtL8CO/4T0r/2o9Ub9tv/wAfrV9MBgAOcwSV8JmlAdieADI2vBTQ3TAQ8lIbFGKsn8RVWxY0fMnx1rczuGOhpHLVrunZJdDxNtEWj9QDnxqaTse3kxjCHWkfnzkkXuEJZaLVU2Aw69LlSZ5UjHmVlMY5HUDhmnwPXQcPlcbxQdeefQMPQ/nW05gI7KC4GzZKpgkpHtWA3aOqhBTx4uoPYOugtSgBLUUl0WlKiUQclErslwTcEDWiW1sk4UdJ6y3E3zXnSuxwQ/dVOexBVWgYlM17wSUglezyqc/Mec2Y7K3fZvFgAVU1LtMBX0M/JT1KTl6Oa+ZNfCUV35eA7RyvGIN/gb5kqCWQvn333cB2vD+8vOh72j4+n9yTnv/sXI/rV6aUK3/4F);lineShape=1;" vertex="1" parent="1">
                    <mxGeometry x="13.736942098064901" y="10.19176740300179" width="29.916558460168062" height="40.920838302958714" as="geometry"/>
                </mxCell>
                <mxCell id="12" value="" style="shape=stencil(lVjZctswDPwav2IIgudzmv5HZuI0nrp2xkmvv++qHqkmFG0nb7LFJXEsFqB2dvf6/PCy38Xw+nY5f93/PDy+Pe/s0y7Gw+l5fzm84Wln9zu7ezpf9l8u5++nx+vvl4dp5fT07fxj2uHXFaddQplQMfy+/mMmrf795/MVcDycbgFZ+ghI2CISQJJSB0AJUjlAxxNqFmvUpJQHQCvS0jYgdikOoNTpFCT00aQqzbYBOUhPI8BEwzagqCQXpSqpbwOqitkIUAnEh9qljWHNJrVsA1qSPEYpVVESVgBSGLnURJkPTep4AjITSaZLl64jQCmXQDUdo6SVOo3EuTxoESUnWPUmoaSYSZY9+eADy7RFaW0ERMmEfAjiGsBMikV69YDACgiZHrkUg2RCPuxXRmpom7d4H6ArAISHOa2erWoSmQ/R+6BBCiEfnI5jTTfJSqNaRxeWMG+lLTe3PhLJAC9W643YA+KZEzGJJAVgdlXnL7PfuphLmUrMFNBHg5CyxixaKuumODPJMfQnO5PQrFhMiy9/ELsTUkzdciQFeMUkzMJ7xUmiFFcCA4Cx0smep6gNptvR5tc3UYpML3Rufjd5aCSsk8K5WkuzMG8VZ3DVrHMqt3zI4wldlBXbB9ej9dloUKBEKsvrxQHKVIwHfaR2oTNPgz2uT2WppIt0sGzFu0DkopeZ+DfNmbnc0XZGF1BNjTBbwypIKVPNhk3OiQxRJk601cBQonRiU1tPeko7G0YSRwxMNZ2EKde5jy2yivmVVFsqvhV2DNBMiPPcBxZAphMGisFNq8ilsokbZHICEHg9JB8lmNRJ4oIfJVubrxEb6x2TaqLNXH0nybgTsGbuWxUEgSbNywu6dSD25LkWl/Vh3mFjfVtNzky/6jzPLesbrf5ltFnWVyrYmJ3UNU60ZsI56LkTPAASO8H8PRKAQsRCV2UwDTzshLK6jjTaOHGXaN1nwRgAJB4BSDNr/tO4MgoeeBRZWD98n/8/AA//Ph88HY7H69eH2/f+cwP+un6qsPs/);lineShape=1;" vertex="1" parent="1">
                    <mxGeometry x="55.62165772002709" y="16.938050013244947" width="28.695335073313572" height="32.06166485467088" as="geometry"/>
                </mxCell>
                <mxCell id="13" value="" style="shape=stencil(lVjbUlsxDPyavGp8kWX7mdL/YIZQMqWECdDL31duxqeRTs4yvIWDNrak1Wpzdvnm9fHuZb9L4fXtdPy+/3W4f3vc5S+7lA7Pj/vT4U0/7fLtLt88HE/7b6fj+/P9+e+XuxE5Pv04/hzf8PuMCxTCAKXw5/ygZWL59+TrOf7p8HwRH4mTiZdCGcQnitHEl0y9ovhm4zlTDNvx+m1s4rPGl+34QpJNfGLqHeSrBSoGECsGCBV7gj7pCWQcfcr6pEYA0Bu7HBrsWeq+SBwogxxyp2CvlAMJqCoXSs1eKVEAVyrKi2qrpH0DVSqd2BJVj8zb8dIodBO/MP1qfK0kwcUncJ+2IpLApvVATWzCesMGAExRfA8SAojPQEcngxL1RtnSosjsynVAp2JrKpUqOCGGlbxonTMqUyOxvGh9ztP1PnTK9oRxS3BCq1Qc8wKmhrbaDageUcH4NG2drZOmhSSgqerZ8ekVTrQCgmVfLzOt6wCVFKvbHeu8ArrLIU66bObgNomOLOocT/4vgDqFbXPkVoCAW82W4E2HFMiY3jiuToig0zrV1VKjNUpohKLvtJ7Z0AmJivg+NCQDyU+QKkkA5FNActQQuHL1AsmWVdmKchgpOkCnhCauee1TQEedlrnPLgGIrUx1JRtIXdUWJVfWhlVDyyq+rAldSUfUAXjScQvgy7rIwtaV2MlMwIBMsqJ3Rlcqc4lfDFBCE/dpgFod68eGLADASNFSY6x6oHx95fikf3SlZsW4NOhNlK1OBFjwCTzHZfECPO3QFjVcWRNDt1GLF7KYqIMTRIhtWSPDpSjqXixgGF/k+NjvODVACMCqQrZxanMZqAbHWfUF0KHpy6sdVwocIK16W/38YbAf4rKgLnKoQDVimT57KWuFSavPLpYayiX0i0yJ4MjHDL19jF6MtZUN2sQ5wcvECdRWBWQnAlgqFRAtl4ZqoD1NspKlgCbUU2/4ANA2perK5iLrLdNnX9oGUCF1g269qaqB72e/rPT70a/c7Fk3bDqiqXeTWp8KXzPE4OtfQb5htRUETkFYeU88BJ99TfJxvH74/07m4fD0dH6lc/l//w5HH53f/+Tbvw==);lineShape=1;" vertex="1" parent="1">
                    <mxGeometry x="92.79028426374498" y="18.32724436290482" width="39.684224458655535" height="32.828070198154705" as="geometry"/>
                </mxCell>
                <mxCell id="14" value="" style="shape=stencil(7VnZbtwwDPyafSVESdTx3OM/AjRtFk2TIk2vv++4Czkrej1BCvSpfduDtMVrZmgf0qsvN1efrw8xfHl8uP94/f347vHmkF4fYjze3Vw/HB/x6ZDeHNKr9/cP1x8e7r/evTt9/3y1WC6fPt1/W67w4+QXRXVxiuHn6YcexcLvX96e7G+Pd2f2Klon+xak5317/Nsm+9IkkesHyWGyty7FmH2Y7XOXlqj9fP7UxSI9T57sI66vLD9xjvfpl4v2cdx92GuWROw1iNocgGSSH20Sy2SPiMj5I8pjzj6QeqUm2ucAJJLz5CqtuPOzeK1KnBvUpPd9+1IkzgXu44AX7WuWNttrog3UMAFzxZChSDLUUKA5Q7FKKcQhSJ0dko2gLsdgom4IUASWpDpmdnUotEsxhH0O2oIUErSpFOeAviZpTdUPsrUBHZcdUKYNUiSCRElH1s+hhdQBneMKBwcjaUVdt+Cl7A7mpx9BJ3aHJH2eTsxHYuMcpc54ZIXOMxyCCzpTgMS8+9aI0km34g4OkdAsmRQOQeum+QILOkueHXKTyo5UPAsCpiqrQ/M0AgclWQJMWpodwIxkHpDE6oiqjIa/PNMq5ojBpJABqkFSeYlDW/8+407G/d184ZAlY+QZNnS+oACpXMeMznktJpmMXEedZoeqdKh78HdokTMKBMIMrh0jQo5U42Dk1cEoBZW84bg2On6PdM2RdHiG1qMvHTIdWCGkuCMVeqTi2xsxG2m+7KG151HIHV3lOBS6NjLM8G2Bugd6fccNrVJdmMa/q71RhLHR9qt9Hsr78nBKnZsOskPJbKqOFjtr68qEZ5aumzsw5Vl9SyAEVgLtF3LUGDGoh+2lCAzn1av5pcoM5yHFZlBd2ojcATH4PkLdWFoxCM4BMMuyhE5yk1kGQu1tDDV4ByNpRd26PxGDeduskJnySJKYfE4bK4LETdEom3t90RqNN3k0bTyhtlmBM11Rq4e6ZSOgLOg1G0azESxFS/jRjEMn7jqElzgArp1WQMyVxAB149aqBe9I0aB3XFegCoxmoXccI+BI7MlF6ePEK/ODtNgcFC9GIBUYHuF6DrTB1EqyVNvQgKvcMQqRNY297kwKszuUNSdnUpjqzrRRYIEGndbhWh0Sd/iTxa16h/+L299Z3Nijqn9ycVMv/3MZebuMfNH3Uk50cbP1gda6VlWJTDpnT+g4JGuNkn23opSdP73xD/UgU1iW8thwVoc4GGNPWNnc3hqo/lcbB1gduCpZOK75oJnWw4md1kscW3VDWcuzZBI0HJxyyJ1rvTh22TNcolovjv16ZaBKH5ciS2UOugVKu8i6X1Z1tOOeQ3LyDWqGiZPsxUlPdH+Gg252Qyp/op84KFy6+4CBnGQtY8p3n9Krd2BA1nzdYN9IzMVjN+yZ5rbN4lNG8+6s2+4tw7KeUw29XXsoRW/Ok8YD4731/EWvqZ63x4end2Lvj7e3p1dq5//7d2j46fT+Lb35BQ==);lineShape=1;" vertex="1" parent="1">
                    <mxGeometry x="140.68303333815766" y="9.116727451285783" width="28.477306074536273" height="39.87722184289896" as="geometry"/>
                </mxCell>
                <mxCell id="15" value="" style="shape=stencil(7VnLbhw3EPyavTbIbj7PjvMfBixHiyiSISuvv09NFhwPmzsl5Jggt9GKNWSzq6sfc7EP3x4/fX24aPj29vry88Pv189vjxf74aJ6fX58eL2+4eliHy/24cvL68NPry+/Pn++/f3107Zye/rl5bftDX/ccNGk2obS8OftF0tS69+//HgDPF2fj4AiWidAMmmRAJrEMAO6JCWALrlPgJyk5XOABunzDiVIMgKIUucdSpZCbFCVUiZAjaJsB5WsM0A5IEp3O5jERgEhzoAkgeyAa63qAZX5AY6bPV2zKAMUSckDMqNGkpIXAPF0VGndA4wBomcrjO7klrq0Zb2F8/XNMwluy3R9aJ4Xmbi5SnXr44iOk/VldnJJ4w1n62fa5S6BXGgbgbWvx3mIXPQhJge1iOR+4v66gx4lYjAELM8c0sJJl6XOarEJDo8Dm3eI3McI/jDv0ESJCThwn0M5SSQctUWzo0RicVJP6jAOeHd9htp1934jHCqwV935ayGcC5JnnQDnElkP0hXvgEoutEHN5w3gw0YAfbEAJgQGqBId6zqN4xiCJ4VBuojVvYu5W4WYETf3JHmmRSpiBNDKkmiDRBIJtYo5gEolalGKtNkGpPJMqJHhuVnv8u7L+9xGCpm5nYtE4jnIiZkHsKymNoJxB1RKVzDBsQ8a3IhGIp7THP+lSydHMuiJKxYydRxEt85HaoHagBItzzu0RDUGaaO5HToteErz5Ouc3lCN1jygM9mAjM2O68Z1xnw5gpAylmxt1KU7INNKFQCdRQBCoiw9R58/e6PZDcypM5egI6wWLnW46QBgFRLIXMICIDG9pYfmASzhgks9e6MLU402GorDtSYGWMqeXmjZA0BdqMH0HkdyugTyMXqjZXG6tCUlohq4VheiWwCxNL1rxA4I3NOr0Wg6eGKPy5EKiwddjqRU7hFAKfhrZVK5hagjH9Ius8FGfB2o0dgOujiu0fINt5TctfZxb2dSGboHsJYbnk4z+Q7lxxmZ2rIFaw7/MeD7lOAYECzJVd9qIKMw6bPgMwpyVmU9d1qaQ9RcbPbRRh187PaI51Cn+slElc66meBLXVx04f2nK38qHRugv3IhihKOVbqx+fInNXqrW4HluplKW0Qww2WgDcC0VX1+AICpN+5Q5+IElTGrZio6stnR77StbTHa+hCe+wAbtcsOMNokgpqu1th8z6Qy+YZj62lYSFfflkUecFvKmm8JvbUxDai+Mu5DO88koLkqlFMvjCne8UCsVK9elNAaVzYIXDpLvIKlk+3O5ztC28eYpHuZcKAeG4AA4PycI80Oqn7UuM18mA3LDttQiR3p3zIuJVz9f1w6jP5vj0vdfKKU0aGdrHejwBKpvWXUE4dxRiP3mf3MJwfq4bRM3jINg+CTuRWade4OrYhUBM+fbXpLBDjcyYLMX9FnftMxd7ifEXzix3ol598Hl/v6OFLQiX9dO4L1haX90dId1jNR6b6LxPr+Tnmn3uDEJcIxzt4Z0C8jDADYbPX+F0Zmw/ufJPHw/YPml+vT0+176PH//gMofrp9PLWPfwE=);lineShape=1;" vertex="1" parent="1">
                    <mxGeometry x="171.94574704585102" y="1.844196211467306" width="29.805055938330725" height="53.47028855589235" as="geometry"/>
                </mxCell>
                <mxCell id="17" value="" style="shape=stencil(lVjLctswDPwaXzEkwBfOafofmYnTeJrGGcd9/X2hOpRFKNpMbgqDNQlisVhpJzevj3cv+x2H1/Pp+H3/+3B/ftzJlx3z4flxfzqc7Wkntzu5eTie9t9Ox5/P95e/X+6myOnpx/HX9At/LjiNxHFCcfj7tkJR/y98vcQ/HZ4X8TVTSy6ew3Z8SZT87+e6HZ8yZRniY6ACDiRMMYwA7im9DwgU8gBgW5FtANd+gA6wnygIkEnLCCiUGQCSzyExVZA0M6XxSElxDlbmsWw5kzQACBTHHEqkkrcBUam2EVApgkrbkd6I0AETtwoAFGojlVokTaDSiWTkUsuQSzkQ8whoFMAOxu4iHlBBO1iK7loNICDpWimMlVaG5KuF6khvDX1la4cS/JEUNFC1Dh651CoJADQmGXNohSICrETGVhKoQ9PeXwuAAPKpUCgeoKBwWihUn4MCLmkjXlU6g6RVe0MuCifoSAYYkzZqIO22I3kuCSm6JauD28HqALhkB6hjP9i9JSAzVrhYPUBBP0xEUA9ooB+MfD7p0tV2i97iJlaCumQNlIq/Vv6gRd0tRSjGtkMcqTERHrVo82JsLdpQx8WuQgt6J1SH1KfBUlvBtRr7WT1AwC3Zneiqpws4knEzZp8D8hpqyrcSMkQ+67iYfB3QQJkAsgJ8UGlHPqUGciizUbj6JbMzoBCTw8p+CwQw/9NWHYQqF2UlGzaCgHwnCo6tDBsoeDNTLR7I0nwhszUxzQAZhz5s5vgAFSB2nZ7NVeoq9f6NEo+ilyrUMKE8NmeKcLplCuP9S+6e933W+V6eKoJ6mdoYH214Im8Y+mydC9wH/KZbHQkh3XJsGT11Lw2Qb1m83zZ+oiaz7X08qq+5PFewAPlp7eGkDrfw5F6qi4+MlTF+4vzTDI7uPpFfM2PhrMus3Vuy6F4KGZsv7TblygfkWxYSOHdkl5itDZx/LN2nbyXsLHDts2dr0rg5ULF5nN3rtWGQ6TdCuPGt8L3ls2/9H8fbw/UTw8Ph6enyhWL5f/9JwpYunzPk9h8=);lineShape=1;" vertex="1" parent="1">
                    <mxGeometry x="213.67325178801048" y="8.673305109966236" width="24.162623390872795" height="47.22175992373343" as="geometry"/>
                </mxCell>
                <mxCell id="18" value="" style="shape=stencil(rVbZTsMwEPyavI5sr4/1M8d/IFFoRGlRKdff4xA5dON0aSXeHGfW3tlj1h1dva7vXladM6+H/e5p9dHfH9YdXXfO9dv1at8fyqqjm46uHnb71eN+97a9H79f7gbksHrevQ8nfI521oLTYOXM17gT4czPxu2I3/TbI3z57aPAB3gF7xlW4gnGn8bHhGAE3iCn03iOoDTDG8WfbJBI4B2iU/AeUeKtUQOUE6J0yFlkhXHOCE5GKNY7Fw2smShOOXBIVr3CBJlkRtAMIpIkwa7GedmA4K0wyA6ssOYMkhwygxXW7MFZGmSVNBtELw0CiE8bpIjMknSsTi4beJAknaYwLBs45FniGEZzqTHwtu6c6VJp2KAkbiAtw2oJMV8SVq82UMlbnje0087PcwYW9qLKS1VxTpa2zLJNldGZzUO2atS5/elTJXWmBEQCKUFqRSaVQtKi1MhYiTNrLjU6We7UXGqF+CgO/2TRDochOYpotNOnpD8r1dGOtyFyWrKb+VkKkrX5ANMIZVAoxHk7MNcCXsRTHTZHyp2UvLkawKmSitAq55uqDlOpBtX/dlYFOPX8ee94JEVfGn/Iwyud0PAtDxirnN/Es8iFUxqnyVepEA3f1ENS3b/0vfY3vix+H4cP/WYzvi2P/88fk2VrfIjSzTc=);lineShape=1;" vertex="1" parent="1">
                    <mxGeometry x="221.0328460022929" y="30.87810705757522" width="18.065120305088612" height="4.931255367271433" as="geometry"/>
                </mxCell>
                <mxCell id="20" value="" style="shape=stencil(fZbdcgIhDIWfZm8zQAg/17Z9j85U606tdqz9e/tmZ0c0uJ47xP0I5JwEBl59bp8/1kNwn6fj4W39M76ctgM/DCGM++36OJ50NPDjwKvN4bh+PR6+9i/z74/n6ctp9H74nlb4nbmSKZeJCu5vngmZ6jzzNAO7cX8FVKEsBuBKrgKg9oAE8gkCbLeUhEoEQKSUDZDLeWYRKIl8MEDRmHwfyBrBG6Amyu4+kDxxMoB3jhwgYu7TVAsVkFcWCs4CTBEoF4RctKeOxHIf8IXYpikHikAIf+MNUW94AGSSaoAoFIE3AlOyeWU+p2E5S9yfQZcQILVuQOwZdJNoS9Ls3wA5u2XZTIHECqeJ9kDpSaauRiNVcAY1QhdBzeLBli5WazpkSsBLV25uRaqWRyFawTQzRRIQYirJzq5atkBqLfouwqUxLBepthWb10vrWZY6UOAeyKCCtDV625mm9gmUC4Wc3VLJMMIE1BsA2FW9JraVlQB7n3c9oMKhCLEvIM1zBPZ25/umNQ1tVEC2G+fFCC8g398O2hNQuQlVu752DBfA+q0ptnqO5JFmeuIuo9DY7KjY71UxdJV4EntifPWorW++R/dC4t7V3DlIB5cHx2bc7eb3yvX//QNFp+bHDT/+Aw==);lineShape=1;" vertex="1" parent="1">
                    <mxGeometry x="16.044993313178793" y="278.7190471997301" width="4.672539772115442" height="4.665236216357698" as="geometry"/>
                </mxCell>
                <mxCell id="21" value="" style="shape=stencil(lVjbchoxDP0aXjW+yvZzmv5HZkIKUxoyhN7+vnIZL1jePQtvy6Kz1u1Isjb+6XP38rHdOPN5Ph2/b3/vX8+7jf+ycW7/vtue9md52vjnjX96O562307Hn++vl98fL1WyPv04/qpf+HPBGQqlgpz5e3lRMpXw/83Xi/xh/34j7yjxIM/L8oVsHuTTsryN5MIAyEAhT2Y8oSwDvKNgHgEER3n0kVkGxEDWawADozlQsRrgwQkpUFQ2JMpxGZDdEOdE3gNApuR6ALc384H25AaAQQAmp7wU2yfmAYmKOiFAL4kTozLak0UnZMoq+SxF4NaaCH3gxG/ZYkDqAYEYpHcpZHqVUiGHThBAb3SS2IPkE4Dt3SrpmJGXimZcZGIUBwH0kQ6ZHGBc9VKvUjDtzCVA6t0qLEeMq6nRn+CYAqh7AnB9pJ2lgFJjImQD2EQJME4AobfBSlnAJ6jAWQfrUmVwnxrWkkdeYl1mrCGLAsdDEcAMjbrKCMeRjyJ5lavESJ9IpvdppIi6VWjNb0o88igEwpSeClJgEDmDTgqD7Q0toFd5RlkaNdMMDvDQbSW+yD9RtxHTDlyMb9LyOEON9o9B+nCrI1d52EJYc8xgEgsBspKHHGbdcSz2D+syZGFXFnnPSj6iush6ErFtfluKV1Y1iDKWH+xdkffa3hV9jP4+tHfg74o/Q1P3Jl6IX0H7ZyUfQptd78y32Oh3Zz5HPcuaVvCW5FnrA/kY23B/J99Zd8mVeiJ8dEp+rSHp+sBYH9b+gfX2cfmo5o6WsHfqH8it2KtGLTw4SYfv9ZeCgfoRN/Ou/TegeKX2uWl8hZczkdf3lLWRJvXflwnFIgclPU/LDAQZmVtBuJmyViZ2rVLCOTeMx7UIoaAVTeI6i+J5mvssqtMucmuh3J8QVvpq0feaOrHja4qKQ5xa4fw930yV5/5rh6ql9WKzotN4dcInqGmuXs5w5HKfTHm6QS4B9PpEGiAG+N6vcoVlFLncBtabW7XFI1dQd95paFi66OsTGJK6rhKG3QOyITuKww7IAUBdhwyABALHw5wgjnYgDnWlMwAY5FJwenKvyQJsmFlL4Vo5s/gqcBU3s1rDgHF3V+DubtwNFtgdht3jTVFYAGgyrB3gRoVAlI2evmrMgMFmJgIJy3stj4gwlEiRj4Cac/IB9LY5fVCVn7MXdec5f6LxdC5ej+UDXkY/uuxel5eH62b9bX84XBbzt//rTby8umzx/fM/);lineShape=1;" vertex="1" parent="1">
                    <mxGeometry x="3.438912020209955" y="12.308802416690696" width="287.00600533470697" height="267.45001897311283" as="geometry"/>
                </mxCell>
                <mxCell id="22" value="" style="shape=stencil(lVfLctswDPwaXTEEwec5Tf8jM3FqTV074zh9/H2hqnRE0N2pb7KEJUBgF4AneXjbP73uJu/eLufT192P+fmyn+TT5P183O/O80WfJnmc5OHldN59OZ/ej8/r79enxXJ5+nb6vpzwc8Wxc+TcAvPu1/oqUJE/Lz6vgMN83ABKppw7e+/JRQBg4t6BCDHwkCNx7SMSqvxvQKoUUgeIgbIDAGlXbIAUKQJAVA+xA+REDEKKpeWkAUqEgMSUekCNJBkAHMU+SzVRLiCkRIF7gAYJPIRK0YRUWylvAxzlYAEZeBBHpXSADR1vIjyT8/e4YG/JtFwCVY5kzBJI68BuLUMBNxjkttS5ghs3rVztAzkQfybfa6F6yuB8VrkbAFMBGdX+wMECJIAqh5bwDeBvkLd5JAOPVB3AQ/QDKzwF0GLilflXgFAEIak8fbFlqKjFaE4GXoiHIbG5Q6YEQloubZhdYKU1rWWQZwQALZwfxFYxNfzgAWVJyVeTBQhQWyYRe+cAkqTqyTapHgwr17S1UWcB599vH/v7lgCbdrDdSIdjQsOWcn9+0gwDIWgBTPvS0cmApjxMQqUV4vWyTvQ0FU8RAHQomI6tPTaAjieZXM+6APcLKRR7e8FzkJusrgE15d22T3YyM+ScCjn1JHWU8DIy2DPgUMrt84c9mrE52A3PwQmoC16txj6AAheVbDD5QfFoa87e2CPNqMRNfXUCAv5oy0l9ftQhqNfdK/N/APThY0N/mQ+HdcHffrcbvb5a/w3I428=);lineShape=1;" vertex="1" parent="1">
                    <mxGeometry x="36.74196947425253" y="303.1985309632256" width="5.742994406696653" height="40.468760140954146" as="geometry"/>
                </mxCell>
                <mxCell id="23" value="" style="shape=stencil(rVbZbtswEPwavQ5ILs/nNP2PAHFqo64dOE6Pv++qglRTa09qoIAfZGpHe83OcpCHt+3T62YI7u18On7d/Ng9n7eDfBpC2B22m9PurE+DPA7y8HI8bb6cju+H5+n/69NoOT59O34fv/BzwnkPhYw/92s6EeT45+DzZL/fHS7sReB8Zx9RiH2qaLmz95B2274WVOnsHZy7bd88Sh9/QA7EPiH08XuHwBwUtJUDj0Yybg2p9BXNyHIb4N2S4oxIAcVTFz51gFyRGKDA90nUACkEEOH7MrWAyrJ2iH1Irc6dvN7oPEe8ABpNui41WQAJUm8DSluHpD6FtLoUuJ6rRRBJSCWhrhpX4VhIBhCVTHeFFPJMr39M2utAs4EzZY10gGzfdH7I9y0xPPwHzOupqtzN91DbF6pgdnjEI5EeXJnPWCB8PlcSkIWqnhWZokRiVUqzaC3cbqgsJKOT6vM+Ib6ow39C2OWgopFJFnb7jIUg7LDrrakGEEA1qpRml9dTQOs7rYV2iWSwbkPV/cnIZ4ih8RNZdcirzZARyTTY1ZOQCC3sKEQqkSYebWFiDTPbVuWL2Gs9V5xLVONNv5SCpF2GDhGNVOfe29TH9vrw9+r2stvvp5vf5fv1VU+PpmuiPP4G);lineShape=1;" vertex="1" parent="1">
                    <mxGeometry x="30.335097464738737" y="301.161397454556" width="17.905744326973718" height="4.364613538153662" as="geometry"/>
                </mxCell>
                <mxCell id="24" value="" style="shape=stencil(lVbLctswDPwaXXdIgg/wnKb/kZk4taaunXGctvn7UNXQNUgZkW60vCBeuwAHenjbP73uBmfeLufTz92f8fmyH+jb4Nx43O/O46WcBnoc6OHldN79OJ/ej8/z79enCTmdfp1+Tzf8ne0yLE9GznzMHzw8/fvwfYYfxuMN3EUkEviAnO/jKYFdc39I9/Ehg4zAO1glnmSQ5P0WpOA5g5PAGxhzH58J1jbxRKfgI4zEWwOnOWA4GVDJIHvFICN6YUARUUnZmmuK1545JKu6cFkYREbQDBKi9MAOpLQ5B1hpkB1Yy9rBBGnAYK3RjCTrWrLSkubQ5lCCJFYMSsSyShwreZcNDLL0kAheCSkVssqkA8MoIfUG3lafK0MqAtf02SdtCVEZAFNZpSC8KqC+b6aScSUxLOwm5iXYuIXaNlUBrhQPWQSlBwv69Amk67MZAZFAWpHKkIky6UIkrUrdGJsGpxYSdYJOakjTfTKkmzqsHN1fWfTLoRQibto+JQtWDPr1Vvi1bX9mX0u9XNh2PxcHmkAjcmrvdwpdPbi534CCknErN/Z1Qy6zu0Z7ZV6oHhfxBkHWJ0ZVn/1uKw1QeNdrzavq7OIhUhdVl6/T69PV04Y6YVf2C1FpV0eHgKTAN74Gv4SXw/+H58t4OMzv1tv/24dq+TQ/cunxEw==);lineShape=1;" vertex="1" parent="1">
                    <mxGeometry x="36.0994671375056" y="321.04734900792994" width="22.62609854634161" height="4.592710431405749" as="geometry"/>
                </mxCell>
                <mxCell id="25" value="" style="shape=stencil(lVjLctswDPwaXzEgQRLkOU3/IzNxGk9dO+Mkffx9obpURMjaaW+ypRWBxS4Iaid3r88PL/td5Ne3y/nr/sfh8e15J592MR5Oz/vL4c2udnK/k7un82X/5XJ+Pz1ef788TE9OV9/O36c3/LzimpDyhIr86/pPYCr5zz+fr4Dj4bQAVKHQRkCgnLYBmkjzCIgUwjagZJLkARkAciYtHlBBDqlQcElbVmUbIEqqIyBRbNuAmFY5NKqyDQjaSeyA2ChWAMjURoAUYgRInqWUqDIE8MhSTlTQCkIlDoBiNABaDaAyADT2rLZC+iuEGdCooZCUygiolRKQRlQKI61VqUWgpUhplEbNFEClc/TSMEsx0JIy5dFAajmAFdTeN4aklgNaIVMRv0JAAO2sLwBwBVP/KL7KJIDWGjonMyASA2kYIIuntQHxGcBXOlPFObSxDiaNgupQfZsx8SG1Wh1cm6nGG2DJKh1HeTcmBvI2LZXmV0DtvtSVvCsVQGsppM2zFEDS1u5r8HUQhYDi6iCUAEsWkrgVZrHcBli7H6Ux1R5tWY105QcFAOtzrnAGYJD0tIu2FQBVWikmD0CFsxSFfdJoyzIHe7UG2Jem2yNLVjgBLBlAXNfIFJGnuQewEB/aFKcyuZAqZQQo/fbSQKjSBlg7Dk0zxcu7JRhSWoXUClXQKm2aSSOtzaQBALF2EmeA+QGNDtY13JDI3KeJm4jm9+mmcKoMq6aBC81d+4v9p4Bmz30Pn80g0G6W3RiPjT4RVJlvzFYCvGPxjKNVkr6jbvDD4/NiuyHoL+KdZhNsRdakOL4/WN8HPdjGVXUAhgnH7IeY3K16O4Hs+x0uWMqUXUDQNHbICO6Q0Y19e0tIXnHWzNC5KnjbM4yn2SFK3fPQYKaX1fOgYG3FD/e59fbz6hXHcPyylhOr5x/FY8eh0ZERtqA2T06zY+Cpc9GgPgQnoMC2gNv+rHEDh9nzwY3xVIGgjSAnOBsegWGmpj/GMwe4VWBn+cmRqGL/+6ngHwB28fFl4ulwPF4/bCzv+y8Z9tf1K4jc/wY=);lineShape=1;" vertex="1" parent="1">
                    <mxGeometry x="74.51185444614998" y="304.5730367820487" width="29.94806964946133" height="39.501555845321036" as="geometry"/>
                </mxCell>
                <mxCell id="26" value="" style="shape=stencil(rVbLctswDPwaXTEgwQd4TtP/yEycWlPXzjhOH39fqBoqBmtvL73JNFcAFrsQJnl42z+97qbIb5fz6evux/x82U/yaYpxPu535/liT5M8TvLwcjrvvpxP78fn9ffr03Jzefp2+r684eeKC5lqWFCRf60nTFX+HHxe7x/m49V9SVTE3Q9MudwH5EISPaAR632AFmrFASRQBCm1QJk9IFEAKbVMydecmKQBgFJUD2gUMwA0Uh8h2wmqwf5ODlADcYApiWdJQ+/MvaKzb1yzxoE+GK0le4B1hkHjKoUhQuutvA2IlOIISKDoqsSeJatKQNE1UfIAVQoJAAK15vuglIE0KlPzLJVKBdBqEZJnyRySgZaqdG1u4jNLoQiFyuAH0y+gVc3yvgaJ1CIA5DElsygjP/DYOIugQEst9Yw3QKWG1Fop1ZElRkOgjQDrQwCdDmxFeF6t1YKKaN3CV2KCk8w65wHmKUW8yg1DIH2b/IufZJYkcpBKp/1j3m88/CdENg95S9g7KtBf1DHEMi1BBPtGsRdsYdIKPNRZ3MShlECANA7XnPpn73YF/W2bWpUUyNuyHWZAhDPA6vXilgxHwF/SNgYqMAOPMrKTDHQXx3yCwHpTXxE2RcD0zTf+Q2JvR96n7G0W4KgIcRyoWM/LThWH+2in+vcOZg8fC9zLfDis+9/1/+PCZ0frsiiPvwE=);lineShape=1;" vertex="1" parent="1">
                    <mxGeometry x="86.07452724918585" y="323.7316400431283" width="16.296294540207782" height="6.857766368294051" as="geometry"/>
                </mxCell>
                <mxCell id="27" value="" style="shape=stencil(lVfLbttADPwaX4nd5b54TtP/CBCnNurageP08felaqxi0tKgucmyZrkkh0Nyww9vu6fX7SaFt8v59H37a/982W34yyal/XG3Pe8v+rThxw0/vJzO22/n0/vx+fr79Wn6cnr6cfo5nfD7iuuVpE6oFP5c38RE3P+9+XoFHPbHG0Ct4+8Z0CnldUAJFCwgReptHZAjRbGATBVY4ETJATqVug7Q81owAM4UyjpAXazJAHKgCK4UmWo0gMIUECBTsVeqjarAK7FNXA8kIHGpUbNR6nl4tRxWoewATBlYKIWC9aFHGKUqVLIBNA00rwMkENuwtgITJ+yvNAGA01KoFA/owAdpnkutUUYAocQWIJDeChBbQF0JHyGgO2pk6iBx0klc4hoUAXXalWgX7HT2FjSVHSXurqYlUgYAvYArUZl1ZBmgPjR/pYAAZUR9dlqVD0RJy0XslfQIAeSb6ssljkcY1gA+0wFySS8QbFi14hKQSo1SsD60SjnAPGRX0xo3nOnoalrJgkRA1Zu9hQwairI1FO9DRxY69eCjBNkq47wb5WNgIYZwp5V5vFkz4aRPW3cB3FCv/Z3UCSx9zVrQgsiAGyqu0QqTlhwjFfgsoKXRP2aA9kngQ1HtdSpQR4ksDxuqxg7QKQILOp04FfgQ9OU2qk7bTN8kf3U8YW+ioVlAmeDi2qigihgtbf4+jTFw2WmSO+4l5IF3WXsiGvlUtKyMVe1IgBd3xVO0OuD5TiY17Rl00EzRfq+zUAP+xuAVhuOg+jKgkVjAZBMojE5vLmV6BKpmnqfyGcB47FbK2CTHCJ2uybe3BpOgzcoJfcDtM/sZGpeNctKJxbx5rLW2u/MLKGSVT7FlGYckrw2rrnXqZoUEO4yEziSCG4BqZ7JVXyCFJq2131eqaMiLQwjnqoec1vu7FUaGLK1NCsWtngHKXL9beSaGomnns8vtfwD04WOXftkfDtdV/PZ/v3vrq+vezo9/AQ==);lineShape=1;" vertex="1" parent="1">
                    <mxGeometry x="101.79203341457446" y="308.8753948015093" width="31.02822476349661" height="31.089330470147843" as="geometry"/>
                </mxCell>
                <mxCell id="28" value="" style="shape=stencil(rVbZbiJBDPyaebW62+7Dz0n2PyKFLKMQiAjZ4+/X7AhCG6YIUt7mcHXb5fIx8N378vFtMaTwvttuXha/x6fdcuD7IaVxvVxsx509Dfww8N3zZrv4ud18rJ+m97fHveX+6XXza3/CnwmniXLeo1L4O33JpPr/w4/JfjWuT+xbIymdfWJqDQAy5dABJFBN8IaYeo8ixTIP0EgiHaAkDLDffcw1wxhiCBT6IJQpoysaldoDMgng1XzygEqpApoM0NNkd9Y4DyhKufUApZLnAVlI+xtOeLiIsMzG6q9AuU6FWvVBNAGZKCTR0yQoEaTB5wGx1Ci485kqlAZpLz6TI9RSI3ZpMNaAMiyE3FecVYiCEISJgwdElOjm09aONFwEVNNe9IAMhGFNIDqXFNePEJ/RGgCtJjR2SkqQpU/xHwFCDbmUfdfQgqVUiB2gUQIxVLlQPgJozUpNPUBBpkUOzf0EgNTKxrp4QAIuRfXt3gpUQR+L8awtGW9oPngpWd6Ev8/e+kNvXwtuen5c2fRhoKPj7V8cb5VCr6Ir81Mo9Cm+MqDPRhteAKIvTKEMGnb2vYgpou4YqfTHR+yNekGbYNHAUT9wwqFI5yaaUwOegJbLlm+wN60UvcEf67xuGOB4Wzg0wa/x2Wzp6P1nOJysK6f+fDnsk3Nrzk3r5nV7e/jcbZ/H1WpajU//+13YPk17ND/8Aw==);lineShape=1;" vertex="1" parent="1">
                    <mxGeometry x="146.33525996570324" y="306.51535006959034" width="3.9801003385834974" height="30.531438432093182" as="geometry"/>
                </mxCell>
                <mxCell id="29" value="" style="shape=stencil(lVbLctswDPwaXXf4JnhO0//ITJxaU9fOOG6b/H2hqlICKt6pb7SMJYAFFuAQ7172D8+7IbiXy/n0ffd7fLzsh/hlCGE87nfn8aKnId4P8e7pdN59O59+Hh/n388Pk+V0+nH6Nd3wOuN8QHATKri3f18cQv775esMOIzHD4CYUcQCPJK7DigBtRhAhrTr9qIOmrF3cOR+aWjVBoQYrtu3iOaNfUUuxL7CdwwJXCWA1lMaPSqh1Ls1wwWR1CmLqSHZHJTlQkjVJJIltRbUSAAJKRmAVFQhAIdsPegV1ZO6FcRoAYV6kABvk9ZSMkAVRNuq6tORkGpGDpalhMgAEWJzyA3CQorIXaUTQiKAhJwNIDQ4Ujitq3RyUL0RD6J6tzkoSaRbRQO2DhxtPZFFXu/2VJ/aydY+LQL/3L7AW4Z84uIRFNvamnFjWmjLwFoj8miEUgX0I6+ikD7SkIIF1MBJyj2pWpbMPPglxVU8AY14mORuPSjRhfWFAuotgBL7Rpp4I7RuV4/yJmywfrLc+DJpfR3UQ2XLrR+rOvSE9F5apLWWTeiQDHD2flVrIVVzy21rH3k4Qulm8RQd40QK20WlJbslnqgM35KvVqSQeDZ86vLPJN9NvXQ4RrY3+37Qxw57LNz8nPoPgB7eX29P4+EwP/4+/t+/9vTT/FKM938A);lineShape=1;" vertex="1" parent="1">
                    <mxGeometry x="149.483100060241" y="317.5015342387759" width="16.61699500955956" height="4.550995898387214" as="geometry"/>
                </mxCell>
                <mxCell id="30" value="" style="shape=stencil(lVbLctswDPwaXXdIgODjnKb/kZk4taaunXHc19+XqsatAduQdaMoLElggQUGfvrYvrxvBgofp+Ph6+bn+HraDvxpIBr3281xPPXVwM8DP70djpsvx8P3/ev8/f4yWU6rb4cf0wm/ZlwMASFMMAq/562EFv9ufJ4Bu3F/AWgZRZQ9ZbTkABK46QvEBxByVYCckYIDiEhJAaogejcIWAP6jpD7pFY0oDst9wE1I+qotgri+4AiSDqsrbmATIhsAdVxOhWIdvqC+5sIZlC0V+R2H0ABOVmvPapjPPP0D1BQHa8FhSwPqTpOoxl7QXDOr6iGBUZ27GNB0LnaUyU5gH5DMZkUIU4mpV4NV4DgkCDlKrl9QIkgWfOkSldR9Z3u58W8JqwTSyasPm9dZMgA/MSo10z7mVca2AD83O6iZZn2q0fIythigfYnZ3uFpwG9HowGLKhMZNRmvXZ17EzTg0KZkI0HvhKvta8Qbb/QGnrx6NRe6D2CrCVyobmxrbWF7rmyO0fbRRjFl1PNFp3duX06QXSVRbeMp9/69cFNTyZQMfbkVExitGrsvXqRbLPTt8/Fxsd/T6lIcYW/tZxl87F4Tiqn4+Pz1WtV1qTD7WHQqa4Hpse++D97vo273Ty6Xv63s2rfmudcfv4D);lineShape=1;" vertex="1" parent="1">
                    <mxGeometry x="168.20648075764643" y="298.38509575409455" width="3.2744164143946364" height="33.070859000447285" as="geometry"/>
                </mxCell>
                <mxCell id="31" value="" style="shape=stencil(lVjbUttADP2avGr2Lu0zpf/BDKFkSgkToJe/r9x0HUuOD8Ob4+h4JR3pSPYu37w+3r3sdym8vp2O3/e/Dvdvj7v8ZZfS4flxfzq86dUu3+7yzcPxtP92Or4/359/v9xNltPVj+PP6Qm/z7hAIUygFP6cb/RK3P7d+Xq2fzo8G/tYjT136mHbPlOxz2+Jct62bxSSsa+RErAX6mzsc6fSt+1johINIDFxBYBGuRiA3ukAkKIPWSgje6GYrUdUGGSUqVj7mcOr9oX98yNJ3Lavdbg7U0ZBAGOJxMYbI7UCAJ3EchyZetoGsFIgNkOFOjhBInVLctY7oKqlUewWoKQBErqSbF0qAquiZ2Kbpdqoghh6oeo6J1MGMWjjurRyIAHEdfatoL0sKGj921aSdHxCH7zO6qI8YECwzaZ566CdNYZkidM0NAQoJLa6e4PFd/F4BjAkTlaSNCUauDQV38olBjxI9h2nQRdU3omi+LSiLGkDFceD9jQobwU0e4KWRsUuic2SMDUk9GUFUF1CWZqzPgMqBXBCDz5oPRO5pEksyQM6kFblNSbvkiAREErVZymjatWsd89DAtMhhvUGoBMX96ivjTxG5FaP/tfeRblGpDO6glid0cRVBEjXWg4QoUlZAyoIWtMeqgegqaiVUKMPGg0IbYjmtLJAqrXlqmvqBBeNTwNYZ6AtJp3EFTQEr9S4MWwIfZ4T1zpvQ1sAV626H6JVgNMo5nlQJyh9TYb2zqtAgxuujuVuSyMHmKUpRMu0rjMR8DCFaE+IeDspcejWDAiwH3Q9cqvAtMOBoHUnzNm7xCCtutRmKwKpQ6bjrFszcWHMmK1FvVriahpKdR1QxjhYbFhQK+MYaYuFCQWtLxt5vZ0gl9J42VkoXwNMq0vsVIPhoNZCEOeSUEUTZUQ42ysxSJb8Yqz2DOzZkzAtjYDmOpavS2l/8P4zdHrpEEhpGq+Dy4ARySvdlnFn4w3aP5+hP8H3gZaEgHg//0b/kb1eXD4fPByens5fH5b/+88Neuv8qSLf/gU=);lineShape=1;" vertex="1" parent="1">
                    <mxGeometry x="179.75930573319147" y="294.5826174500652" width="28.26476820905509" height="40.50252760863009" as="geometry"/>
                </mxCell>
                <mxCell id="32" value="" style="shape=stencil(lVbZUsMwDPyavGpky+czx38wQ6EZSsuUcv09CiGhcuhS3lxXG0m7a9mdXDyvb55Wnefnw373sHrrbw/rTi477/vterXvD7rq5KqTi7vdfnW/371sb8ffTzdD5LB63L0OX3gfcU6Iy4Dy/PG9Q6l+bVyP8Zt+exTvK3E28Uwhn46PgWps4plPx5dE3tYjVOR0fGUqtp5MDtRfA5Vq+43kAwBkqmIAQwZUUaWUDCAopQ4CqjOAqBkAp7VQspxmT64AQCK2GUqcZPwd4MlbVpW3AGgtmYrNoF2FCABCzi8AgNasTS9LAsLl0ApXdAf0oCQKt7QyAjhiq4MKh2hVQJNBrRGBNbK0GdR8jJpOU8VH9kZeKtzqoN5DugXKVmg9nx7EVxJ7niNFdHqEUrANYBH0fLYUeViR+sxbgCSKIIPjeWTNPTiq6PhoCmu9lEkAq0MTjVcdOTQzZBop82lw0wk8qYPtWqeIACFU6NRcDPzH6P43Qi+HRoqqwxhot7x9dP4LaHt5vSkR0E6LoZGhmxJVO+yVBQajOJBYe+tcc4AiP11OczyTBw0zZVtP0gsS1LO0Nk+Xy3nxYR4g59WjDBf0vmj71S/E9A8+dVwk0O9CrwSfOws7+Al/pt3wa+rveF38PN3u+s1mfPkd/98+9XRrfCbK1Sc=);lineShape=1;" vertex="1" parent="1">
                    <mxGeometry x="183.61908224203648" y="318.6905670435981" width="15.734907984207666" height="4.743750229959801" as="geometry"/>
                </mxCell>
                <mxCell id="34" value="" style="shape=stencil(lVfLbttADPwaXYldcl88p+l/BIhTG3XjwHH6+PvSNaSatDVFb7LM2V0Oh8PVJA/v26e3zcTp/XQ8fN382D2ftpN8mph3r9vNcXeyp0keJ3l4ORw3X46Hj9fny++3p3Pk+enb4ft5hZ8X3KDRzyBOv+YXlf+8+HwJ3+9er8Jzo5xcvL3hvg7gRr05ABcqZR0gg1J1AMmUAaAodfWASi2tA1oiYQ/opA0A9AZge4Ijdcvh5kiIpSGkfodcqA0AqDTEARppBfGDJPsNaID1Ncc6J0qAU7UEgi6gjrRRiednUAIdVML5hTpIWJVa8boTyiDjnJYMl6IJVcSRzkKeAUVooDOZLHyVK5MKAFiVvY6q4h2EeHhal8LcByQqvtuaCQ8JqVP3hWg8Z7WmVPEsVSu1wl6oPumyWMJ9AMdSm4egUhsg7MCWFWDJjhRYygsNa0lnX2mF8jZWg5SskEgYibI/UCJGujCdaYhvwMBMeM23ZyFB6/doRzljvzBLDQDFhqSkXtli/YoBPaSQsCWNudsXoRrLoMj3AUhGNbq81bGBsWBzhH2ZLSuUdBvRw65s7S7CDCUoyawZzbZzM3qpmrhQ89jo6x4wGlXAq2m/ebH2TgJoMq0FdbcKp2eJaq0dOozE+V8LVdDO5ojeI00YA1CU4vlLg0WzC4yvskm7AGnfTrYyj9O1+OCPY95xJT40gjFQAJ85Dn+zUwbr83yfW+KZBuC/RP4VtlmN42Bxs/tdSVxCOLrQ/ucN+5/h9vD3Mv+y2+8v3wLX/8fLv726fDjI428=);lineShape=1;" vertex="1" parent="1">
                    <mxGeometry x="35.12090233765866" y="300.46741207536536" width="32.45809179780031" height="8.773118589663795" as="geometry"/>
                </mxCell>
                <mxCell id="36" value="" style="shape=stencil(lVjbchoxDP0aXjW2ZdnWc5r+R2ZCClMaMoTe/r6ijDdrLXuYvMGig3U5OpJ3ww/vu6e37SaF9/Pp+H37e/983m34yyal/etue9qf7dOGHzf88HI8bb+djj9fn6/f354ulpdPP46/Lv/w54oLFMIFlMLf6wMOVPj/k69X+8P+dbAvdbBPkUJet2dSHexjoFzX7WMi5fEAysCf1IjHA6aIbtrnTEnGgCkC/yX1n7t9pVCAfaNWxoATMQi4ZIpjRqNSQIC6KEEhbQDQqI4hsFAFObUTnEuWtaoAwMRpAIg9wVnKo0sl9LytlUFGnpqTiBdZ/Ak1wRPYXIojwNIK6vBBhA5oCVLpcsJI1WqVBjFI7GWaTogkCXKpjVlqTAKoUTOFsXAtQ0DTnpMZQAE11NprDLpJ79jbgNLZPwEKCUirmgK4oO1JBAClMhZOA0yrAZyIqakUckkptREg2KXasz4BKjGog/1fcIBGKgCQukxPAKUGyGdJrM0D0AlW17I4IYFKtymJs6AV1KGFrnOztKIWrZPHE4C7eK4CRvJppAQqbQ0ZXIs2SA1rSN9xtT9ZS6sXAen8XStcax6AZEYXI84AEWRJxc8Ha9GA2GojS3zQqA7GHDdQTHgqIF8Mi0XmEhaKWvueMwHyPZ1Jjq6lD9a1NHm6ThNgTSuD0xlzEnHDWtjtDgGvP59HVGsA9k5FtAwEP4Ss/A2tZCZ1rksFhs2py8Ss1g24ZBtVXdAJVqLPg9ngRVMuZr+TWdqQDNhWW8dtw7Y01NXMvucKlrKcfKVFeiVvA9TrdzY+gqElgXhkBkcIsJ0sjg1hlwe0xLGNxTFLUbqSrN0GnBxHyxvSDfVybKVUUAdzQOMiBkQN8zgusoRuQNOqMAHsCoRiyH55MLIgYbKcZHcHynA3tiuMvyXKHTn2OxmX3uS3dWnhUelsvC0yJNXbC6iC3V+Kt09Ak7jPjlnAAuxtU68+owKv0d4fhvkJFJ19glvD56/19+ztw8c7hJf94XB9BTH/3b9zsEfX9xX8+A8=);lineShape=1;" vertex="1" parent="1">
                    <mxGeometry x="49.31344694203813" y="371.66869315114855" width="28.149866709220305" height="37.8458349259854" as="geometry"/>
                </mxCell>
                <mxCell id="37" value="" style="shape=stencil(lVjLctswDPwaXzEgwOc5Tf8jM3FqT9044yR9/H2heqiIkLyZ3mRJaxLA7gLUTu9eDw8v+53w69vl/H3/6/j4dtjpl53I8fmwvxzf7Gqn9zu9ezpf9t8u5/fnx+vvl4fpzenqx/nn9A+/r7gQKLcJJfznekcyZf535+sVcDo+LwGxP+6AyBQjABQqYQAkppJvA0Qo1QGQlaIAQCJ1gEa13gZoIJUBUBoFBLCclAFQI7V2GxAzleYBAoJOtoE0bikSA0DOvg45UdPbgKJUxhVSpghiqEw8AiyqBKhRE4kOAMtbBFuqlTSP5CukCQJ4DDrYlgD5rK5tpEZQkgIAoZN5Bgg1QL4c+uMZEHsatiutPYmLGJCAYvKFC40iqMOU9REgJiCkuLoygdIlta3ptlqB8QpmMw4wG882QEnVx4AqLdFr2myhgjoYIDmA0THALbXRyNSMDPmS9B3PAKGKVmBKo81o7ArZrkMlGbmkpkGwpZAo1xUAVXqWy2JLqA7WUGRMqyoxqHTz7DZ3ZqDQRrwqG2JS66svGpwA9ZhjjAFb3SvYjwWcVtRuKEPqa2B1hy03U1APYMAjo4VXG5Ng4rXsY0BJMmrXkdrTHZAlUxu7oBPxJ/J0MRSKgKkGcFqYSokcQzvPFvIM2MRkpJJRG/WGsOKqqY0RIHtPMgBqiNZr2FlMxGzdBCADKJ4aAc8Zk+26lhvwNJZ665hHH6ogZuuHrm4RDm/JmOQioAQCsDnKqYf71LE9MpSe8cX7gEa19fDmEsA5rCU/MNhEDeJtjcSNMNZFkCEx+7FqsjAQQqu+/0+tEJl27CP/XLMALcySlNypAW+pqhdnFjiil9xZM6dVu6lt86L6OtiayJEy97p2QLPpEmQpmf+MTGqFAjpmrGb6RS23xcY9KYslULv96H4zgKFLmmE4D7ODRAZ6M3bGsb0VLGjzk+LOe6V3yO1S+4ZrM3hBE7c/llieEVnZM8k6D1L0Wm4VjkhzwpdndPh+du9bF0FNwRvwRy/d5kT3z8WIhA636g/D0z+A/adVPqVb2rbQKIfV++jcucq/9BZxYySU1UiI8hO4N+1FQhFBjdFO+PLJWP7fn20+B9jFx1eip+PpdP3ItHzuvyrZresXKb3/Cw==);lineShape=1;" vertex="1" parent="1">
                    <mxGeometry x="72.75402598343453" y="374.9916534905326" width="35.191239546278894" height="35.726934820810584" as="geometry"/>
                </mxCell>
                <mxCell id="38" value="" style="shape=stencil(rVfbbtswDP0avxKiqOtz1/1HgaZLsCwp0uz296NnyLVo+2wD9uYoPJJInkNSgzy8HZ9eD4N3b/fb9fPh++n5fhzkw+D96XI83E53/RrkcZCHl+vt8Ol2/Xp5nn6/Po2W49eX67dxhx8TTijGEeTdz2mBhZL8Xvk42Z9Pl4W9/h1TB6jEft/eZ3LS2QdywD4wFe7sHYWybx8zcTT2zu3bZ0exdPaFIrhPZsq9PSfyvA9IlaQH+NhCsA0QKrkDSCQBLsREyfUhjVQjiGmlFDqAbuFBUIOQ9ElO2GnJlPos5AjTJkK59mkQYnSC0szkrRAHEKVg86AADwAjM/LqBJC4ysR9HkqmCk6o0tK0vFICgETBREnDkAGgtKjP6lSvKgAoNfoTqm+539a/m/U1IwKka10JomIy1UzF3ElXAJlqXDlRITc0EdaHSgUlwrUitwBUAFAmSLCAAK5UguWG5lKAqFUvnm1YM0h18eRNlAKk6wbAU0Un6JVMlBjmYXS6rzPKb0TXMawrBUVEPtcusNQo4pK09rQ4wSEFRcrOAgqmdzXkU0khUa8FpE0JhHVLo9IK9N+WgYjrhhaavliqW6hurEuZbpGR11os+8Hh/ZJ75dj1Jyzi8J8QY49YFQ4kOu1Cji0AzRuSqLhVnMAJOu9UIzqhAPjHhZJpjKnNRNsnsPWhODjD6cAjfVyzb61y22nX6vs8b3ioIY2SmUKjbzPO9kTj7USjK3AOzVbWwi0z25lmkp6v3kOCx7mYLiZLRPCQbHllbhrZjlJo08UMCHDu0xub8UHJ4tA04G0edAtUaFgzbaKkTQO1udaiFvYR2Gdb+UZ7EKNoG7sXPOk2bS0cRuLRDPV1UlcyoNFKCbqSAE+dnQJ47hY79iY+Y4ahvTfvw9QeRDv2pqNzbBTZplw7fUHRAETwr+/VP9vrx/vj+OV0Pk9v6+X/9jGtS9NDXB5/AQ==);lineShape=1;" vertex="1" parent="1">
                    <mxGeometry x="117.6309511169286" y="370.9695352608493" width="27.478337832192892" height="40.658015891091395" as="geometry"/>
                </mxCell>
                <mxCell id="39" value="" style="shape=stencil(rZbdjhoxDIWfZm6tJE5i53q7fY+Vli2oFFYs25+3r0c0s8QwR61UiYsB8k1sx+fEEz+8bZ9eN1MKb+fT8evmx+75vJ3405TS7rDdnHZne5r4ceKHl+Np8+V0fD88X76/Ps0r56dvx+/zG35euNiIw0yl8OvPL4Hmr/b5fAH2u8MVkBLlEWCmUgCgVHgAClMM6wALaR2AminndaAkSmNIVUlASJKpjYBEEl0HtFEdQ5JEBeTQmEIaASaOAKgU4ggUyiCkpv19C6Awh2Y56ABoIgVVMqA5QCg1CEQZgBapoqSFOI9AIUY5ZKptBJQiAiJlBzQS0EuqFMQDCpLWTHITEkraqh7G5pvPnkG32jm4HUyDCFBqYw6Kq2Q7hPEclEnADmoe4ZqvQROwpHk0AbGkKwDKzQ5MFe1gNuMUl2BI1hqNPaColwqFUQ/mIxVYpbV3HcsqQkWggJweNELniyH4ZrLCKTImO6fRydpylms+E8oIZAyUfk4LIFjUdk43GkWAubHrjas6/CfCuk2SDwp1RzH3dbLWfsvcBbJ4AzcfSGAHLv5enH0AdHisxO7WKlBDi70vN3Xusr2fgrcNVjg7BH8/xEVSK+tdc8cEnTL40aT1W/h+fbzaKmzsRDJWk7vzrxSnuuBJgfZrN9y+PHRV3BeNLz1u5xi7oj7WR9Q6ZrbsokeVt4N0A5KJGpxsvLn5c9fb/fXaX7e0Mhyn/nms/QvAHj6m6Jfdfn8Zwq//91O3/XSZ2PnxNw==);lineShape=1;" vertex="1" parent="1">
                    <mxGeometry x="151.03459949762555" y="372.037572707144" width="22.006836369002713" height="16.912475663557984" as="geometry"/>
                </mxCell>
                <mxCell id="40" value="" style="shape=stencil(lVbLbuMwDPwaXwlJlCjp3G3/o0DTjbHZpEjT198vvYYTi3YmyE2ROaE4JIfs+OF9+/y26YJ7Px0PfzZf/ctp2/GvLoR+v90c+5OeOn7s+OH1cNz8Ph4+9i/j77fnwXI4/T18Dv/wPeJKolwGVHA/4w1T4f8XT6P9rt/P7ZmGbzP74CgIAHji3DrIVLEHLw0gFqoJACIl3wDEUUYeEkVuADlRidcB3jlyrkHURLVeR9RKvqW1ZvIZACKFNohaMK+JpE3E4BPQlCOxs4AMPIi3NM14WEVoorhYFwW4YKFYLYABIGRybGlKIHVanTXbRESQOX8utjNAiAPw4MmbGNJUwddiiLEFRPLAgzaMazuiMrEHeajkjIdABXiQMD1gBsjAgxZTZQuooL6LkI82hoQ6SLtaLEsJFN9QOWzzIBhgY5BJDNcBsugglTLAUimTls6qtYCgc1npUcSSqHAtABUUXwoksgAA2Ygq73HxJFTeddLSedCoRcMi0xmqhj8L3TxxIA/rANAPPlBoATohKgBow7UqoyOoAFaT5ejSsutZoNhOhxtDdEHpjSm9mG94C/CWHm1+NBemLrmYo2C9ju9WUdUf0BaV7NS2mSMB5KsASzH2AetvDsb+xhg0eo3tUyHv7niPZEs/jncQ63v4LFq7bTXjfA0LGBt7KIv37pw37fVwWXBf+91u3I/n3+1CrFfjMs2P/wA=);lineShape=1;" vertex="1" parent="1">
                    <mxGeometry x="171.5809634036343" y="367.59260692532564" width="3.721447757068063" height="41.39501579632213" as="geometry"/>
                </mxCell>
                <mxCell id="41" value="" style="shape=stencil(lVbLctswDPwaXTEEwOc5Tf8jM3FqTV0747ht8veFqpFjQtZOe6NprogFFgsO+vC2f3rdDRLeLufT993v8fmyH/TLIDIe97vzeLHVoI+DPryczrtv59PP4/P8+/VpOjmtfpx+TV94n3G5UW4TSsLHvMNMLH93vs6Aw3i8AVQmSR1AM9W8DWhMrXaAVEjaNoBDoBA6RI1UA7iiUu1J1EZaASBS6Ek0pQRiqsmTaJla2QaURCn2gEYMbsi6ULwW4jMPdxFJKLC/QkHpIlPsr2hWCd0GqFIoPk0tbgOkUGNfiAJYS6bYp8kyjUISK7X2gEAFkFaTjnSAkqkADlGXiK8A22FQh7gCmOQTKHX2PWeADEiXSuI4CExrrcS9XE2PSBptJVe7E1XapJZcpZUEtdzKaGqhigB51aNCAozGSPseta4FgNJIXANVyqDjcqHibmiL89yXRlqs8QaAtBRNS+pDCsBn1AqnnjQD8Ulb+usKMEdHPZ0pOTe2BgJpvQ8AHEQo9vLOAtXKStyn1awtAw7BR8QJuvdqALHAsvHK7CkiWVDoS5CXZtoYiCS9DWMX5rzYzzV8aiCdEin3sg5wGE5jQdx5NKimueO/L+i8eUtx8TNwipS9xQt0FlOXG7UJj+bi3bRCvv/9pvoHgC0+n3Av4+EwvwBv//dPPtuan4v6+Ac=);lineShape=1;" vertex="1" parent="1">
                    <mxGeometry x="62.86022999326042" y="438.02656087038804" width="5.651784143791019" height="14.645079430243186" as="geometry"/>
                </mxCell>
                <mxCell id="42" value="" style="shape=stencil(lVbRbtswDPwavx4kUhKl5677jwJNl2BZUqTZ1v79aBhKIybm0Dfb4lki73jUxA9v26fXzUTh7Xw6/tz83T2ftxN/m4h2h+3mtDvr08SPEz+8HE+bH6fj78Pz8v76NEfOT7+Of+Y/vC+4lhHzjKLwsXyJEXn58n0B7HeHa0ADlwHAgtrWATEEhDAgSkKrzhYCbgOgViRyAAnMA6ARKK0DakFJIyCjODuIlsnsUBGdHEpEoBHQUBxAyhCxgOYQwQGt2SO14hBRQeZIBdVJuqKOvDWGOFXV1TjGK/POgRjJ0FwQnfjaVy/xhORUKApoJE1UvHEdQA0y7iCCIA5pCcnskF1pZ91hrKmUrqz7wmM0sUfKHmnZ5lCVBSdpJbWOsqgM9rpN+vIFIIgeIHeDuAgjdku4n4O2iumFhOzwMPNqpC1IjlSL0nTTnp40ckAdj3Tla/fVfUOEbuG5GJG1Yk2iOEmoU5sG0jJVpyF0tVoe2BEfd+FcEZ3chv5avCp5jFdayIlXjx7juSE4578ZPJG6Ra3EVzMVIJ5lI5m51h15ZRD2YvT41PNf8+sy0ktuNdUf8xgfXC/S4t3ER0duOXY3/4z3GqCQncrBb2Lq0+VCVx9A910i2vqw2y56iShjf+XurWvGaMaH/sCp/9evUv8H6MPnze1lt98vF7/rdXvT00/LLZEf/wE=);lineShape=1;" vertex="1" parent="1">
                    <mxGeometry x="87.98726113261864" y="436.49016342509617" width="3.9020970665485493" height="15.284441425366595" as="geometry"/>
                </mxCell>
                <mxCell id="43" value="" style="shape=stencil(lVfZctswDPwavWJIgOdzmv5HZuLUmrp2xnGvvy9UlYoIydvJmy1hRRy7ADjIw9vx6fUwsHu7XS9fDz/H59txkE8D83g+Hq7jTX8N8jjIw8vlevhyvXw/P8//X58my+nXt8uP6Qu/Zpwn9hOI3e/5AWcK/PfJ59n+NJ5X9pWcdPYe2/tKNXaARLHct5fldbN35Nx9+5jJ9/aBBHw/O5LUBxDak31AsQdoDmKAANefIIWqAIA60NcgFCog5lQo5g6gWQgVAHxzYClCJAZZioFSX7XMFP19QGDi3qWyfGLfJUe+z1Lhlrf9LDFVtgDkUimUjEtCkgG1mYJYQEVaiJRDD4gkoHC1EPdpLZkEcKlWyq4HVCqASwqovUsaVUQxlA0gkkeARKVna81QQFUo95VWJx0oXFVqiAUUQO+SGplXgIqowZQ2JzhAjaySjzboAOidc6PaKq2MukayTUALhwSkgH+SX1GjYpeKAWgMwKWyaZUTvUHXULkkowcVEEjrxP5qAVCim3H1fuY+IFA2gNDouA/ITS4LQCcSIJ8yR4ymCwzau2WiLaX2lJDkKgXDjQDbtwZh+Z1aM7yXpmI0WuCQU49lI7mENKp5NXPX4ck+IfKHEDoi/MapAqLQOes2fSCAxsE6mI2sc8vcfrFVMWamJNg4mJvHy+RVwoLEytKul9munwDkCImy2R4cMTghih1CutAwCFoBRtaaNwFBh02pdevLoA4atInBY4Lr1mnSqnuiA1nyG1mLag6QT/dgs5+ok0jV6rHdE5fK7APEilQWUe0DfKPaCgD7cXu7tgcHJFu2ySGwnQTbNKaIkdxaD1qlNAIeefKbmqFdxtm9QRju0ZvGLQ5WTAdoT4np+gT60UcvY/+31x/vN7+X8XSaL47r9/amqI/mW6Y8/gE=);lineShape=1;" vertex="1" parent="1">
                    <mxGeometry x="119.3057183896617" y="427.243456299919" width="21.452218826442504" height="30.615191852433554" as="geometry"/>
                </mxCell>
                <mxCell id="44" value="" style="shape=stencil(lVdJcttADHyNrqgZYBbM2XH+4SrLkSqK5JLlLL8PGNVEHFDsxDdaZhNAo7Ft5OFt9/S63XB4u5xPX7c/9s+X3UY+bZj3x932vL/Y00YeN/Lwcjpvv5xP78fn69+vT9Ob09O30/fpCz+vuJxJw4Ti8Ov6S2TK8ueXz1fAYX+cAVIijSMgUdB1ADcSBygkAQACaRkAHCEgKmkeAMIUkYXoLaRALa4DJFHUEZAoM2BJqToLQgG4VDKV6l0qZR2ggXgESKMMYmiR6shSMloroDWE7nJH5NC/cd9EoTSaKEwCAFo9oBpNaR1QC8WRV2VqIIhi4hxpMh4EZC4z1TQCCmWsb6e+GXH3EUZTG000KoAmFkrOJ6WEfIqdxVkQBYgjmnYcIBEDlwyw5LWAvmGAOrYBbTDVU9GPNaelp2aNpTbKVRM1xFKlwCPAPgEsSKAUPKACMYlQad4lAVUtprVRTJqpghhEqTiWKinIgyzk2kJv0GuA5qRhJQekYS41ZyFTAjVqQTenpQrVau2Yx8RZAUXkUuhCmAEaYMmkkRclqiBxnLw0mkKWeNGOLWg45f56PKM1oP5tnIwVZ4lDE8IAvuIsaFRAoat/Jr6EWGKfB5N3Rq0ye/FZATECND8WpxL9B6B8BDDNZRcD98Zzf6JEvzxU3PmKAcYYKvexd38qBspjDMViaOsAWx7aCMip74H3XVK/9dniiKaiBe1qOisFtFeyr4dsmUHNWIibByieolUXFgCtttgmx1KBY7f6MW0sQAM+gql1giws9jGJfajej3ixqisxmtHsA6hw35sWmfF9gUuDLZyuhdnOgHexNvYXYwDIehJx9e+jyiz++LGlGola/VTAZ0MJFH28SKFW+CKOzwD0Y9u1+37q+/Ta+8kVJZxRt+39pgc0yM1/d/VoT+AaP27XjgEK1ArWORTxaZirP6tM4+ha/fA9/B8Ae7id3y/7w+F6vc//7891++l66svjbw==);lineShape=1;" vertex="1" parent="1">
                    <mxGeometry x="149.19406303365827" y="426.96549573553784" width="27.256855550027694" height="35.04762059188897" as="geometry"/>
                </mxCell>
                <mxCell id="45" value="" style="shape=stencil(lVbLUiMxDPyauapsy/LjzMJ/UEXYTBESKgR2+Xs0OzjEmknXcnMmarutVssa+OZ1e/+yGYJ7PR0PT5s/48NpO/CvIYRxv90cx5OuBr4d+ObxcNz8Ph7e9g/z75f7KXJaPR/epx3+zjjvHDk3wYL7+PrkKaR/X+5mxG7cXyBqpFg6ABfyBQJc7ADClCoAOCo9pZQpAkBhEt8BSiYP7uCJe0bVU3LX4xc50v0LiA8UTLzmAPDJlEMf7ygL4C9UUwfIhUIEhBK5XrScKOfrAM7kvAV8JXkVEDMlA8itUFYBogTMHSoJAKSlyoEElEU6F8EZkJow1wDcn6Cl6AKkZHSoWtpAaNGcGICmAQgXi3VbLVQZCmcoXVh8vTZyu+P5iEoFVZ9SXnBCUpeF3bQcwQEqq0lSgHZzbbezzrWV+xX7GzMUoQDMICQ9/+JbBtb3Dyv2rOCA6cbZmscjlZm4v7LaM4LCi5F8tSc4cIL26BrtHVDHSL659yJLqGOkRGy6XqQKyuLHgBAtpSywAbBQ4g4gAQqnT18wj6H2QUCJU3Pvtz1hx9ATbHG353RdaGd1E9hVo1DsCTFFsL/odNDzUS+gOirWbK7V+rrIYrs87l6ZyS/iwf76skYx8cjL+tIb/gHur60qRZPPgoYdbaa9MVO70Hp8pdDHF0rgifr5gPc/CF18T5SP4243D6SX/9sJVD/N0yvffgI=);lineShape=1;" vertex="1" parent="1">
                    <mxGeometry x="59.5203036931332" y="487.1173248647999" width="6.558127360221306" height="18.792668938635643" as="geometry"/>
                </mxCell>
                <mxCell id="46" value="" style="shape=stencil(lVbZTgMxDPyafbWSOJefOf4DiUJXlBaVcv09XlbZErcdxFs28Wzi8XiSga9e13cvqyG418N+97T6GO8P64GvhxDG7Xq1Hw86Gvhm4KuH3X71uN+9be/n75e7KXIaPe/epz98zriaKKcJFdzXPOMrxfgzczsDNuP2F0CEgu8AJZNLEJB7QA2UBAAScewBlSo4Us1USweQSB4cqSRyuQcUknwZkD15s4NQrZcBMVOOFlD8ZQAzOWePFEEOwVM2R2JikIPnRuJCa6EKdvCOmHuAp+QAQJeNNCIJqLQvFHrx5UoCaA2ZxAC00gHQeiK+7EhADolbXRsgSSP6vDQqhWp3SIBWJZH7SmeGlRaltVqWHGBJdLmvdGESRpV2Vn3VUQRyVXGGvoOmJgRbiCPfF0LUBUDlivqM9ADdAYgpJ5KTlougcsk32hfrO/JwXk3FOpNSHUESIZE3XR2h/HxqDbPwqkaDAK41zAJgqNcJIP8BnEjDC+xR13SwxKufA3lHK4zphOgCotz/v5ADJVCPcX2+DAlVizHNozIB6XJqN0eLV6UDmerNYHSNNZdya8RjPOplbYPSnz/AeLUGE5/abXqpL40FS7On83bHVm/TRQTuqfMvEmSofz9hdHB8AD2Mm838fvq9bh9MOjU/tvjmGw==);lineShape=1;" vertex="1" parent="1">
                    <mxGeometry x="76.2684230628463" y="494.77316012366555" width="4.456902244339972" height="9.908792014982964" as="geometry"/>
                </mxCell>
                <mxCell id="47" value="" style="shape=stencil(7VjLUhwxDPyavapsyy+dCfkPqljCVghLLZDH30fOxsNY3ukUx1RxGxa1balbD3vHV8/3N0/7XXDPL6fj1/2Pw+3L/Y4/7UI4PN7vT4cX/drx9Y6v7o6n/ZfT8fXx9vz3002zbF/fjt/bCj/PuECBGyi4X+cf2FEtf375fLZ/ODyu7H0hFweAFyphGxAShTQCmNhtAzhQlQFQqPK2fdQDh9EFYmRfqYweOHLgPKlSdcaeZds+J5LR4Uw+AftK2UQ0k6sQEEfOdIcMPM6ZiiFZQ4p2iBRGCqJAzrInX0efHWUPglqsD8VTAlFKTG5kueqeGdIc8ghQIgFAYyIjD1IogyipLqWMxDksJVVmGc8kGleQbcFbLUklAVQ3bToL8IAIr+uNcZXc47BVAOpItSSKIB8UEExcGRIxlxgJ5IHTbYdRruIoIqeVudGHuiT5ZYCQM2IqxEgbegCzQ+518DIg9CKxADSsIEqqJaM+BTikpUQ1TgBAHCdbWGuAZSO5HpMVIAEtaWlNYgEMiCuR2ETJ90JyESBTcyhCFfCg2ozJAgT0N1W/SaDqqAAetKpInpwG4nurEQtAw4AS6K0MrdRXABG6RTHMCXnkRLUtRTxMuVZVRic00gHFNVI2gEgRAUJX8wqARhl10eSoAhIQk+a8Z+tDBGHVBAvVRqmAKCmxf4v1iocEnK7ctbYqTB6ISXcIk5gKAiRKBqBJDaqAHiCZOuN6F9viwSYEbqOyHGCd1Eh8yRKnO0S0g1Z344OHU25ryyaBGM5kmnGmjWqgUWdXgBkFtGeh2UGWDF51RcR0G3fMKBDgANQa/5RASHy6ni0CERP3XkBJ0yiQcQuao1TgOKNNriYLQLNDDFNYax9wti5AYZrhHJodPsbKj7Hy/xkrte97Cwj4gi+j+Erud7vLgGhfEHKB4tO7oh8Bej9FfTo523ZjgTmdtAiMPHDuYdi679ZRGnrJR1OiAuKYcd73h4WtsJqxsgkeMM1TMVZ1QWlEm9Oh9lv85Xzw5MY+rYf0QEvSG9piv6xwedSwlVXtE1BSpjzZF7B+snN3Wx+Vekrz+dEDgn1mafEB6e/Jj5pggfGZLnBc4Mgw3TMYlyO1H1OfdfiE9tGsj98OlyehxV47HdDPe18//22vH29PrXeHh4fzS+36//ZpVn86P+vy9W8=);lineShape=1;" vertex="1" parent="1">
                    <mxGeometry x="116.95064659637933" y="469.7880463622662" width="31.0581417189444" height="33.45967346124803" as="geometry"/>
                </mxCell>
                <mxCell id="48" value="" style="shape=stencil(lVfbchoxDP0aXjW2JN+e0/Q/MhNSmNKQIfT299WW8bIW2UP7thgfW5cjHXkjD++7p7fthsP7+XT8uv25fz7vNvJpw7x/3W1P+7N9beRxIw8vx9P2y+n4/fX58vvtado5fX07/phO+HXBxUpFJxSH35cVJa5/Fz5f9h/2r8v9jaQN+1lI8jqAmWIcANKoCQAo5TRaZIAIAIV0BORACdwgwftcIoUGAEo1DIAaiIFJ5qKWEZCohXVAms+bAXYE8CFblNQDOK0DivbzZoCSMABEKqPTJVFEJqVOhDkPhZoCp4v3IQsFECVJlMcoTUegPESqdQRkEhAltiCOTielBKhh5KujD4kpYba2ka2WewFRMpPS6LRWYsRW9nnQDH2Q7MmniRT4oOGmRLUH+mNAImZ/QwB50ObZqncKiKk6kwrMdDIyO5Ms94ituXNzTlwkKfAG1yqTwL5kf8vYNewIBWE15kTHpUIB3GBECA5QYcVppMQeIKhEzQD2JqHEiXSLFyVakT6YGmQfJQaNjGtvW4s8MLqheH2wTAekcbVbvCjRBshnfYlHahhbI2pkekPv1I1cU6DodF2poRIVKvEGAMJqLsbgTUqopmsX2X8EmHyo86HBNlNaT9Oie1dQoqaZbWRrZiog0634zle4x+3jeSkE3zYqUwM2NZPlkUzNehtIhM0iTiBa7cK6NjuEEbCwcrXRjE40mwMxX12c2h3htTCO5KjmBPDaBld3Q42wIqL6vmGpQ30jxt6tZ3LYCohS7Sq7UPYC6GqyO7b7SVfRJOCbho3eGZD1hnmWFGC+5Xg8HqtV6EP5bA2ee3wTjnhyozLGJsBCtmYobrsA22dJum4PiDoWmuz3g0hG9kIeMNO0j1vX/Rk9wrK3B08isfgOwVAArbbEUwHa/7+PyLv77eP6Yn3ZHw6XB+/yf//CtaXL61ge/wA=);lineShape=1;" vertex="1" parent="1">
                    <mxGeometry x="151.3426453908146" y="472.3479542913826" width="19.574934909935337" height="41.20498679343791" as="geometry"/>
                </mxCell>
                <mxCell id="49" value="" style="shape=stencil(nVbLctswDPwaXXcIggTJc5r+R2bi1Jq6dsZxX39fqKqmBmNDVW8UxSWweCw48MPb/ul1N8TwdjmfPu++j8+X/cAfhhjH4353Hi+6Gvhx4IeX03n36Xz6enyev1+fppPT6svp23TDjxnXGDlMqBh+zjtE4Pp75+MMOIxHC6jNAKIgJQcg4GIAiRGLA6jLfQsgN7R2H0AhIFgSVVA9n8rCcQE0Qsj3AbWhWgstocb7gFIRxAIKimNBuA9Ta8gOh1QQbSKu4nATwYTUehPByTUVCFuAxtUBFFBHmpcbbhsAWc4aZ3FKI/SUa0YiJ0aQaM9rcTvniVFsmotmzSGstZ+tRyUjOjlIhGZdKuyWaq6gsAWgvxNvcUl75U9M/pF0y333rIRVy6xYC1PenO5RCaiWw1QYnktxicl15TlRqhHclaoswna7P2svlCvNkyNkY38KhHoTngRo/7SuP32RoQDqFEBlzMlcfOeR6qTj0VYh3nqekG3WVkYD9wK2MnsEZPmuDDfZOD01Pdb/6lap3pZsp4k7plSwu9HJvnzldzMEzbmfE7L1J0DEUbvU8/U7IKs/ecN5yb3W+f6U1AuRz1dVoqs3P55VRcKqu58vla1o8+XXw/+81tYAuvj7OHwZD4f5bXn9v39M6tb8EOXHXw==);lineShape=1;" vertex="1" parent="1">
                    <mxGeometry x="77.32830235785218" y="484.504565769505" width="5.030773213983139" height="19.086891982291036" as="geometry"/>
                </mxCell>
                <mxCell id="50" value="" style="shape=stencil(rVjbUhsxDP2avGpsy9dnSv+DGULJlBIG6O3vKzfjsJbwCZ3pW7Krs7ako+uOr17ub572u+BeXp+PX/c/D7ev9zv+tAvh8Hi/fz68yq8dX+/46u74vP/yfPz+eHv6/3TTJfuvb8cf/Qu/TjhHKXdQcL9PDzxF//fB55P4w+FxI+6p+Ek8U4hr8UDVKfEMvh4pz+KVOK/FCwWexAuVAu7uxuu327gA5BP5OMkzZfB9sWWYjeOoNSCfqEUl79xanj01VvI5Afmi5QM1ZH1Rj5V9SgXylVqdueOJeQ1IPM4/AzJ5oEGqlGaAENCBK2Uh3Hyl7mNA0JypphnQyAMjFQmYmaPsKAKlC+sYYEyLIlZXtPOD6O8DGoWsAQyUrufXWwC4UuVBzA3Ag1CokdhrszKItZqMpytFEAw162DuAECNWsmzvlJEOjRKMzXEcRVYqXljpTAS2vuAMHLtGRDJgSs1NtRIFNAJkVrQgIJ0SDqABOBAPLQyiLBRGjmuVXLGrB4B2igxG8ehJCCA2EzEgXgQQFGOy4O/K0CdlY5SuvAJbQYkMSsobd45TSZJVREg+hGzXUuB5aorMXOjlpHbVgBVHzq9QGLqjpj5LU9Q2uivswZAulZd4prkBZBnBFBmpZtUbUQmKUFzQEj29MjVVRcIKRkBKW0AUvYuKK2uFMsI8w8qzRdPUGaVoGZQqK3jJEYDOsFQQwCoObHkk1zpcTwoekdPCV9JBVDysLK/F6Nh3PKDaaBE2J7YRCOVNWJHqFQmRQY1cTZZivNRT2bT8cYO/wthakRnJLJTMYkjD72WdU4BpMdBrouj9m8SR0V2Yj0q9Q4E6SAhpjKNDAiI4U6zSciBTugdjcr4YaSSZc+kdHCjm112ZbOrSx1PVn2fop+0v6gbsJ2lNNgBWMn2rsXjztJ0xwJAEWH77w5AM4S1koeTqJ0hCvaDvNZmddBKfQ5Ss995ultOWrPSOQ06rmY5daWMZ7k+Laq6mKEOfR6dryQJHPXffeBVJaLAE+xE3T8BdLAjuxShCqhhdwLxvHJZLh2CvhKqEH2rkbXSHujQ1yaz45KDeUlsqOpohEYyWx+hCho5pKCp7zc4UHvdLgmPIshJbrw9G6gOGy/kWXkgj9hYyGuPxbE4WsirwTW6C/d3ah2QhsVW8moKxRsN0/WIB1E3ab7vG8yn5v6eR3L6mH0abAyN+RPcfbix0npbohX4dUUeXGz+cf16UVx+vG167w4PD6dF8fa93gzLo9NWma//AA==);lineShape=1;" vertex="1" parent="1">
                    <mxGeometry x="0.8595949033355055" y="554.2820567948561" width="294.8906059512077" height="6.293094737150341" as="geometry"/>
                </mxCell>
                <mxCell id="52" value="" style="shape=stencil(lVjZUlsxDP2avGpsyeszpf/BDKFkSgkT6Pb3lZs6uZbvPZS3EHSiXTryTm5eH+9e9jt2r2+n49f9z8P92+NOPu2YD8+P+9PhTT/t5HYnNw/H0/7L6fj9+f7898tdk2yfvh1/tF/4dcb5RKU0FLvf528cBf77xeez/NPheSHf/h0HeSZG8plYBvlARbblJRKHQT5TCtvywVHOg3zF8rm71+W9OlC3ATEQuxEQSdI2IDkSPwIK5QgAkcIYIo0pykGq5MYYcSLJ24DsqI4axEGTsqdsAGokcDqzDasmBgLEOh1UA0hcDhTHQo2OPAJEynUEBBjWnMmNPsRCggCF0ghIvgd6FVA06mPiNPcOFF8RcqPTKVMBJpVgndbce5DpEimOedBUepA4BRTToKEbuQ7ItlpzIo+iVKgaHwox0FA9cRoAGmgBYa1CyQAYA9TiMdMaaGhSpjpOjYKdrrV38AWgPwE0eOfIGRW1J39LRRwToYETUBu19Ba+AJgScmJKdYs00hC6jxeAtjmq70p+dFpT41B9M9VxX6mR/+bzelMnYgMofVStT2MtV7OBKgWQh5QoFwvIwKSks3LSUEBtxKmYFICKSSdjNVvxWl7rCGfHcVOBFq8SDT85ATQEHSsTIIEwBbbU5NpUWwBhC/Cg+oLYga+1UZCG1MnRApAQoNrpqgDUEJo52xAF7lHdaTFPAERPmHKaTAIa0loHZZDpdInJAlBRQ9TOXpaJQz5oRzoLCEhD7nNrWXzI6UBp6gdEdJUmmk3dGgj4EFO3+L971E/TtfZZtUWOZ0ABNmmPzk2dwKDRlitTy6HqUwBPGhiNDZl2UIFxbQD5CCDGPt6XKwU4rR1k6LcuLQE+KP12piFiN3KLicq0eOEe9dPoY4poj8qUaf0JxOKm1a67u4CWU4AYUlY6Id9a7WXMQ+NYiIn6fjAsWJygE2IaTIVhtTbyMDFReNXICteFNwfbam1sGpnkbOIaXwf0RAFxnJXtIkDlXS2faTcHAhRb3u2qQSe1nnJjteo3iE0rY4pjWNtlhhaEt3mIBZZGcnYFtesS7d2JfUd8mTUDxrC2CxkBsm2gdoODca8bxSy5duUjQOwrbfmOgABieSUnuHc1JjIWX3sLAdWqMfGj0750CrX+wFQtrfTYaeFJA36e4dhvyeuTVEaXXLXXaIZ3nL9cbdcnNbjVyY8OMxzc01npINtbEUfBcXZ3OniN+d5TV3EG4twviqs45POzMQ6NIUvAXC+l9XUz247YmtfQ2JdY9POtCq2zyHof7FsSDo6PH4u9T7bs30ntB1+e35fXD9dn7ofD09P5lXz5f/ssrl+dn9Tl9g8=);lineShape=1;" vertex="1" parent="1">
                    <mxGeometry x="285.1055715431346" y="267.761961129219" width="16.640208784687957" height="293.8241245239127" as="geometry"/>
                </mxCell>
                <mxCell id="53" value="" style="shape=stencil(lVZJcttADHwNryjMYDacHecfrrIcqaJILlnO8vtAoUlzQKlTunFBz9INNDDIw9v26XUzRH47n47fN792z+ftIF+GGHeH7ea0O9vTII+DPLwcT5tvp+P74Xl8f326RF6efhx/Xlb4PeJUqaYLKvKf8YtQCv8+fB3j97vDIr4FktLFx0it3QaURDV2gBQolduAnKiFDpBth3wbkBIl7QAlE8fbADFA6wC1UK63AbGQ9oBWiAEgkPakaqEITpRI+itrpgJIrRTVxwugKPB0vwUgAhGCUGMPQHkRCpXsAR9LXAc0atFzJApE4InyGVApgB0M4Fmq1JBqSsnJ1qgA2UKdfs8AxbTOibkAfNTfdYBlEnuAApbswH18YOMNsGSy5tWJwBXiKjGUBKzPpHHFKRBhPu1CNAUaMIXk4wMqBRLxaZcEmMUqJyyvgWJW6Ks6QOtbzt1XmZHqagMBG1jO1dUOBTHUKKinKOC68TsU6NgmmqxEK8hddOJ8kUUCDNLu4GVWYkTrvYDq45vphio5ea+oWAZrCrG/s7VS5HfW1rhvzXl2j+tdR6bKnVszT25w3SvU25eVUwWZUYv37EgR5GqtxH0jDJSB29U2/f6MZzS9MNV+fWuMQLQmvpqtp6D1i5eA4STSGmn18UAxDdTExQdwfk3e3Xmys+vxhSq7eDTcWRUmcfwncF+rqeymR2I4t6zagdkfctM7x9n/x9vD5+z8stvvx9F7+d/P2vZpnNPl8S8=);lineShape=1;" vertex="1" parent="1">
                    <mxGeometry x="36.764498866875556" y="575.9454004394945" width="12.982853549401852" height="55.50556614590255" as="geometry"/>
                </mxCell>
                <mxCell id="54" value="" style="shape=stencil(lVjZUhsxEPwav07p1uiZJP9BFSa4QjBlyPX36Y2jxRp5m+LNLNOr6Tlbu4s3Lw+3z/tdcC+vp+O3/a/D3evDLn7ahXB4etifDq/4tYufd/Hm/njafz0dfzzdnf9+vl0sl1/fjz+XN/w+44JEt4CC+3N+kCT6fw++nM0fD08X5k2qDuZeMjH3Kn58vRPntu1DFt+M/f8HV+1jlFYH+yA+bdunJGn0p0jRbfsMf+LIN0glhEvu/14BTRJhULPo6BFcamEboEk0DYCYJZITGkIyxghRKCRIrUoYT8gIMznBuzWra1ijBOYTgpIHQA3imE+l19kKwCtYoaKwxxM09zOvxxWsRw7NSSG1ql50dKkhriRztUgsI6BKJqSrk2ZOaLQ7l+oz5ep4w2V4UOwRjHX2PU8rQMURnxLKL4yAIIXURnK2p5sXXyggjKy1SSCJiK2X8wqo4khtLCeMUVq6kHFAlIxLQRrjEGz1obxSJYAoxbjkJDNAlpAtIDLSxdY3AMqGK4a9Wg5sbqQ2kQYrxmFaP2jqSjINgBrStffUFiCZlkMDsRNUshkbmAsMUHttroDYl8xW4kqzAGUckrgJUFkegmS1AMfy4PsYuiBdGQcnaWrRRsYMAM4UX+253wKYMYPSyHzMVAOIfRZuka7jXFrKm+UBeZ06juYhTS6hRVnHFZsH5TsLxVeL5cBW0ALIHwFAMVlA6Rrw+s7yXYFdZLqwJdemMVNpWOskQjXRqYFZPZNmMhEzwsqZSMc9lIIbAVjdjDR2ZhqLL6skcoLqBHBUYek6tlaZiA1ESIOiWbtQ46z4oAmNJFvUN9Ma2Jmj1sB1gOkfDLJi1HeSRjjE0Nf4CvBdpF2/oGDvj6Qb1dK4AKkZGlTdvx3/puDo/onWH1xQ2H0j2l6APROtYfIn8BuflSWwZ+JtkpOIABvbrk+fi/go2TzOXiixd6i5XTvSiEaa7j31nbebm1jpBb7F1RtzR97urTO5q9atTI1vT3TGffBDwbvm+PH2TeL+8Ph4/qRx+X/7DQOPzt8/4ue/);lineShape=1;" vertex="1" parent="1">
                    <mxGeometry x="34.98281415875681" y="575.2874984143666" width="49.816645474702455" height="36.38516140500951" as="geometry"/>
                </mxCell>
                <mxCell id="55" value="" style="shape=stencil(7VrLbhw3EPyavTb4ZvPsOP9hwHIkRJEMWUnsv08za06GxZlaGMjBB92kXdYM+1VdTe4lvvty/+Hz3SW4L68vz7/f/f3w8fX+En+5hPDwdH/38vBqf13i+0t89+n55e63l+c/nz5e///8oa/sf/3x/Fd/wtcrLiSptaOC+/b9Eyct/vvJr1fA48PTHuCktAkQq1R/DvBFWp4AOUrJBGBbmgEliCYCCJLTBKhesiMAs8HNABXfzgEqLUzr1UslL1DJs1M1SCIWqDh4fhRH9lMlLusL2U+R7HF9I/vJUuD5STx5vkVsWe/q+foomnE/LMJxPG23PrEklRTQ/0r244c3dutZPngpBfPh+xtP1ue5ZtQykNWMVEjoJkqe78RBPmdxxD9O8uyfUiSwCpMS5xLOwwMn8fJzvqUkgew/S5r3Hy3ixD9WrbN/eoYw/5sBM8BIhhWMkRZYYCVKDO4Rmz0aJbL1OihwrHej5I4dulTwFvLjgkwjXzaDJRGHZquPOaMTTehiGQQVPEJ4vL5ixhlpNwKo5j+dAUpTolZJ0MjSyJJjgEqFRuYlMNKtmBNRqZNqwEZmYWnEBqvCMhudnURSx7lJnPM68zdkP563AZQySwrjeRtV+EHex5maBtNuAON2xtV16I0NkGhztVTWhIDMBEVEyWJbCqz6PeoDUyCZ9Q8rh4IAxhdt2ZEfkTxZ78BkJ4mYrMh3lil8PZRn5vWsuP9cb+wfCDsXyo9tpMyu4dxQdHUpBGUd1pLIIYBZ0PmqIMCzN6TFZvuEFILPg352AEbaYROhuyhkBqhjA7s0yqzt2I5nQuqlxvpOQOVbGlWORkg6v6EmKn17ocxxMCJXRttWKfMbTDxSnl+KR8tIluNisAlnDlxzo16Ps7sOJ26ASDtJWwYKAzRWP9YYYEvboHcGgDi0fAuARheqsQ0A2doqnTQN4Ob2aW5QZrSOVNsAjTaGtoym3SoWuIwyrwOY0Ql1kgGYcra4rgAmbVtAquxuYG4NKJQsDqziOgAinUfszwCgGcwNNFutQVcEMNZoacmlSHnJdqwNAYF5aRF7Boi8RENCQGW5ZMSY0eh0o4AKxoFOnW6ZCy3jqZsaSqtOVSzUxjPwBqVKyb5O8AZ7BKvROr7eAZgANROhye38cJZNoED7K/5PQD8+gQTPVJ7Y/A4nBo2fINmABeJBlW7JpALwt22SMVPSwRK7Qwym4Ww6CnPkaqGnQqb6wuxWm6AY93UBBGpD6bxkYz0cNJRMde7bJPA2CfwskwAzWvEA07zEmk8oiw2VcmQMy6xRRqYfA5ZudeNoIlWcNXIYHfKYwSxMcMqoQ+qfHVolOORKtLsZOQAhJTeuGo4BijcRsVDVYNMRxMFmtMJ5Hmzoh63MBgsctMMbjaHgG/qFDAtcQ460kmKBS1EcTGR8Ci1YoZXWmyU3hE1Hppy1keLRAFpudczlG6Dw8/yEQiwkCayNeBwDYhyzylkbmWm7nwD/yA2VhZ0pbh33CVvbKbQStjvB3VhfCeW93bC93bDN63+uG7aIJwWmZZl/yrjv2tY7CfRGC4WpH8LqTObEpVsmBojo0bgR/RnJwQTsG+34nRWhD+jQAGeAtgDYuZl9neFSqHIblmMwA7CL0eBwnjVmr8Stlkgw9ncAu/mzvC8IaCTzwnYVurMhEJkTIua2AZgCDouQ8lxIGQDuqczRgRmd8Fyh318yt/7wz1JuA+yP/34F8+nh8fH6I5r99/irGfvo+oub+P4f);lineShape=1;" vertex="1" parent="1">
                    <mxGeometry x="102.74550593419349" y="591.3121339512679" width="45.84288485727757" height="51.20570096834831" as="geometry"/>
                </mxCell>
                <mxCell id="56" value="" style="shape=stencil(lVbZctswDPwavWJIArye0+Q/MhMn1tS1M46Ttn9fqKoUEZI20zcdWOLaBdjx3dvx8fXQBfd2u16+H372T7djx9+6EPrz8XDtb/rU8X3Hd8+X6+Hlenk/P43vr4+D5fD04/IxnPBrxKVIKQ6o4H7/+0Ke/354GO1P/Xlhnwvl1p6ZiuwDSqWSG0BMxMBDjRSlAWRPzu0DvHPT/wlRMoW0jwhMqTaAmil74CJTbT1olAXFFCkYD+oTAeayzwBPDOoa3PR7TrripDNJtlWKeR/AiXJpAYkk7gMkEzsLcKCsUcvqLYDDPiBpxMHmgAA5kjceClUEULqaxjmqiN/apmQ77Sv0wG0flEuCQhLybdLKVgYeknLJhFSmQm/3YVbkDNAyAIDo1Gg9LES4TaY4kXPhQhBdE4VgkwigEV7PM51TuhaoUcPvKsSA3woQk0MgBxrhC0WjoArZF2Qq+4KuDmmUKa4kl5FGmTJbgANVikIiFoA2RJKNkBD7cqCSbNJoQwyA+D8AnWS8Gn0MQuJqq6Q7qKA+RDsFdLZlRI1KsQXoEQIEpPIyEcGAVitRm4a0QKUlqkxLeJsUq+DJIWk6Km3wfpLe3ro1/XJwHA2yCcY+oPYG2148vMRREns+si926zhIBtVYKrY+qPw6RaqtP4gnqejb+sg0K7ftV+P9C8l/eYnUh88b6HN/Oo0X2OV/e2PVT+Ntl+//AA==);lineShape=1;" vertex="1" parent="1">
                    <mxGeometry x="152.08110797786912" y="605.567752089333" width="5.874494556129321" height="27.757535061776935" as="geometry"/>
                </mxCell>
                <mxCell id="57" value="" style="shape=stencil(lVbbbiMxCP2aeUUYbIyf2+5/VGq6GTVNqjTdy98vsyOrwUmo+uZ4OBGcc8BMfPe+fXzbTITvp+PhZfN7fjptJ76fiOb9dnOcT3aa+GHiu+fDcfPzePjYP62/3x6XyOX0evi1/MOfFUcNFBcU4d/1JkOW/xc/1vjdvD+LbwzcXLxkoBQAKqTiAQqNAkCDzA5Qc8/xFqD5lDQBcQBQqOoBFUoEKNCSAxgNWAJAgupZNRooqEEFik/JqiqBDlYithGg9TagllFooyEFwlUjsXqAWSMoWio08bQ2IA0AApQ9gLtZbgJ8SlVAWgBQQJ9SxU70raKzV1pK2A9Ga/PCSQKNhaOhgRBSIJxZY3CrASJrmPnUsyTUk7wOEECvg8RuNeeo7+lKUAPhEiKgd19tgEHV5mb2RagJEUhtDYZ+bBgPnMNJRgNAepLXhVBgX7Xx0IKUlPqg64AzHq67yebQRZNGw9J4F29wm1WR/b4P6NO9x7OGZsqAvmYuwEHJCcS7mxE0mMUI7POh8kX8YDy7kSAfhOp9l0p/j67GU+/FT41BAsXKRfuH8+XiqbIJGVguEahvZQwtmkxeGuIjgy5ytSGegja2coc3wV7GIJ9lHfHyxuvI1+uLHT53n+d5t1tXp/Pv465kV+uexQ//AA==);lineShape=1;" vertex="1" parent="1">
                    <mxGeometry x="153.0570356444323" y="587.3922685936343" width="9.65476877196079" height="8.217224993910577" as="geometry"/>
                </mxCell>
                <mxCell id="58" value="" style="shape=stencil(lVjZctswDPwav2JIgOdzmv5HZuI0nqZxxnGvvy9Ul6oAS5vkzZa4PLC7AKid3Lw+3r3sdxxez6fj1/3Pw/35cSefdsyH58f96XDWXzu53cnNw/G0/3I6fn++v/x/uZtGTr++HX9MM/y64CKT8ITi8Pvfk0yh/n3y+QJ4OjwvAYFaNwCJ1GUb0KkXMz6V8WRrgZAMIBdisIACOBtAKRQTBGS7pZrhEWKk3AygyYjCOiCR2BV6oJq3AczUxK5QKYItiQLsCo2JAW9Jt9T9oRtvAzTqKdqwNgqAuFKp2hVyJwaA2oiDlUanFrYBLY8gzgANawSAPnidxcrw0Bp1p25O1IGW2pWWOFABK9RA3YY11jHFeljjmG/hUAZbyuLVGgWKT6VRxAMCWEGSZ1rTCPK0Rl2iBxRAnGgScCtEGFZuJNUC5inWAdUnvkaxwfHBEq1JBmhVxzvaEgWUARp1O56heTRCzXphFtb6eKHY3XiUJEW9Ftx4qAkNH7vxiGF1rjN/hN5PcTh9tjIllO+Ysp0/UwLx1PHJ5UdoS91PsS7rlEF80hzuhaIZEdaGXhaeEXBiZczbmGFZmyTBHoA4UM3V5gEBu7JdubIgF2jQLQttyPzdrkQnmFxvWdBUhg/giiCuHxqh6EgjQRFVSm1EAwmiLPmyr65E839wfL7KEnFk7q3ixHb/ArtHrX7VSi7D0tQiJe8ypJ8unt9YSBCgjXjMBM/G3mgewxWiwXqsSyTLgRSYSrv4DlgrNMrtLQ1RzlFNsC+qaahyts0slHWeVfbWBzpFRt1j8FvSlhnWs+6drC3zG1Z2Ye0F5gptm1xvt+ByPUz+YtHryGfrW/IlrWtNA0QHnx2VyALHs9VF1R4E0ByGFxcXI6TUK2XrHSCCiAZvfr3aoWwafDLVqyOqsVfJQu9VyP3aAbnkK6MJWFeEbxG0nCWQffkquUQ4v4zZFtWvop7Ft1zT1RaML57fiHu0Ojqmd/bIzZtexyfA7zQd+wAhg02vxQMaULS+ru4IuGXR1+zOIDCXfvyDyNsA/fH/+8vD4enp8vlm+d5/r9FHl289cvsH);lineShape=1;" vertex="1" parent="1">
                    <mxGeometry x="183.51767805819554" y="597.4385585126593" width="33.11659089541922" height="39.735230352418284" as="geometry"/>
                </mxCell>
                <mxCell id="59" value="" style="shape=stencil(lVjZbhsxDPwavxIUdT+n6X8EiNMYTeMgSa+/LwVX6yXXniBvPjS7EjkzJLWLN2+Pdy/7nfDb++vx+/734f79cRe/7EQOz4/718O7ftrF2128eTi+7r+9Hn8+35++v9yNlePTj+Ov8YQ/J1zIlPJACf/9/0uldvrl6wnwdHheAxK1YACSPgLEbgCRqVcICMkAEpMwBHC1gDw3eQ2Q2AByoFIAIFNtFlBJEgA0kmIAJVIAW5JAyb6hNGodADKN/1aAqoFuANAp2rBW/QVsKTYKNkqtUARR0qjnaAGdCsh0TlS7BwTwhiKULflapgjIVyole+jG1EDiqpDYLdUl0JcBhbJLXKUMtqRRF8vWwvAMLVC2AGVrBpluQsVuKWncwBn0DY5LMU3CXz5DpW4Byi6kBw1rtXpQ/iK2FqWaJZ8qpAFq5EbFUkM12MAbMnubGSoHihsu5KwykiABsc90CNSRVar1OoBMp7pqxskDYgQA3UD3WypgSypgK+nAlBCViJ1AqQIHqF5tZUbgyvJsM5AmD69sxpFOPRgFR63Bck5jAwih6U/2+UwVPb94M1Lho0LYfW1mmCsRCo4+05Avr08bjVFHNSpTcYUZ2rsmky15ChXAZtn0Ig3alqazO/Yz9OqRz40gM2oU2gVBCjAVtZCtIBPihIac/ZY66izYl/FBW1QNfFA7rDZ1ynupfzAHdT5sqU2UgUtv2qJIFfkbE9vHK8XBbsJS586K6UjBeSbnvB6522fXy6aF0gOB88a6fX4GCkvF1zAhRkUyzXCfFSzg+dq0OvLUyb6r3dOWnEBg2nlUV7XzNLHL9Yi9p4wUA/r34vWiSUG9fu9eAZoVZFuBl6Su+q2Kimqfrf0CaNC4uvLIyUwLLUhEV6u2h9CulNGWFl9bjRMoTK3N/m3VWUOAzOFhAdQ5t11rMoM9Qw9QDVWZYN+gYRAgf6V3dd6I85DV3SyZNJXIYFSgrrNeseWaBbii3LUrRB6jYbKJ0FwmkAitgi5MmkvYZZY5ry+AiMum+GF2DAywLLgrghpgY5f8OF7yfOPlDc0bipV8Cng+z8F4NXEhk9kaQJ4j2JX1YtfHju9QKGyuUGACfCMryyXMZUrMPnR1CQTvEmYfuqwvcH30bf4opOgmwbcJOuigzldlyX49g/wqod1UE6HFN8/n0fqjPoFnGV4DUKu/mfEVgAan0TeKPzLyuhGRzbiLjGjMltUD0HCmf/vOtMC7ls/fPX4M0A/nq86Hw9PT6aZ0/b+/GtWfTteq8fYf);lineShape=1;" vertex="1" parent="1">
                    <mxGeometry x="85.35471051750642" y="656.3329954319975" width="31.673731445165913" height="49.25840546327095" as="geometry"/>
                </mxCell>
                <mxCell id="60" value="" style="shape=stencil(lVbZbttADPwavRJLcs/nNP2PAHFqoa4dOE6Pvy9VQba4tsfomyzPaHnNLAd9+ti+vG8GCR+n4+H75tf4etoO+mUQGffbzXE82dOgz4M+vR2Om2/Hw+f+df79/jIhp6cfh5/TF37PvEYxTSQJf+YXgUL49+LrDN+N+xVcEtXs8Ew13cdrocAOryR8H58qaXX4shx4E19C/31mYkBoTBIcwTLIAgixj8hqEBHBUi4+ZaGGCJVac4SopAoIjZpvWkqUQBeMUKMjZKszaLOFlH3SNZCgsmZKPocWiAsgKBVfJftEq4AQKPkcOOBZrYVE/RFWaUSIxD7rKcoGCExFfJkSCWi1VZH99JVIAWRdTJ++rpkpgdkwQvMCjQ+S5t4BTLMRJa1UveSkUkJJZ6qd5EwQwATaVZVMo4Lm2/TikzabKUhymcQPk9osofmuV1VqlJGCGpVOo7wEeZOwmuZzq/Fs2BHduJa8RHnPmdRrziQCRRqvRJqIUefMS33WrcGQqvmQ9ATUudsEIIiL062SRnYcrYh+NiYRAoLdB8mHVIQC8u8rE2Bo36Yf3wW79RTg42Ja50GyNgO89JaRBXbZovXxP7h+Qo+PZbmP7uA7IZjWIqin4a/EXIE2w3Lhr/woAhmYy/t4OEL/0uUOOE8cJaD81I8DvnTKskBdNraKXOL/FryHcHu47JJv4243r6Lr//vd017Ne6s+/wU=);lineShape=1;" vertex="1" parent="1">
                    <mxGeometry x="131.08884283633165" y="681.2449064754649" width="22.51910342536644" height="5.866623001872767" as="geometry"/>
                </mxCell>
                <mxCell id="61" value="" style="shape=stencil(lVfLctswDPwaXTEgwRfOafofmYlTe+raGcd9/X2haqiacLSd3GQZKwLYxZKc5OFt//S6myK/XS/nr7ufh+frfpJPU4yH0353OVztaZLHSR5ezpfdl8v5++l5+f36NEfOT9/OP+Yv/FpwoVKoMyry7+UNU+W/Lz4v8cfD6SZeAikP8YVC2o5PhTgP8YGplW1AyZQdoJDUbUDN1HQEKDWQkgbKMgCsBg7bgMBMPBYtSiJgido/2AGpUswAwFTSAMiJStwGtEgyrlACNUBcNeIcQIkVEMGkozIqblNmCmUAWJIFaal2nlaAUgKAkEjHFVRhW0OgKh6gQH2tS+0mvjVQM8Xg4xnQtjZkja+UgLi5c7rGZxKQz51QNZICkpniODsmxAyEHaiM/WyNIshf/Gy2QgnMZqHmvm8dRvlwd58VkKiCBgWh1PwKATBm7pPuSoApte5vK6CSgpSMBEmehAjGYLbosQZjuYAxMEBwY5CJAW1WQ3KDVrvS3wdkUleDtQFNZvSzP08aWEE9bzeuvCGlGP0CAkZB+r83FTCq4G50ChSScTDuayrQsLkztMaHrpONfNgJu0HZid+YTdfIKrK3IhucDKw0U9WPxM9eOmquVsrIW4o/KVTudrN1FnEllAS38VyojvaeKxV0FoledClDv7PDSxi7ZFWhDcQS0BEwTwaQqTTKDiDdDd7nQby7mBugwWnes81j0Z5Q/AnSvECgkGTsqe3qqIDkW6qQM+kiW3VKDBizcH/+RclLn8FVEF1SG7m7cIE7QenUr63pvd063YxyZhhum2sSFx9BrcZjZRePHHo+zqmLD8hxP3hX+X+8Pfy7GL0cjsflXnX7v79I2avlEiaPfwA=);lineShape=1;" vertex="1" parent="1">
                    <mxGeometry x="154.40507208867598" y="667.8549407270459" width="22.606163457550565" height="30.85188999080424" as="geometry"/>
                </mxCell>
                <mxCell id="62" value="" style="shape=stencil(7VnbUlsxDPyavGp8lexnSv+DGULJlBIm0NvfV6fBJpZPN+GtM+1bIN5zLGl3JTubePV8f/O03QT3/HLYf95+392+3G/ih00Iu8f77WH3op828XoTr+72h+2nw/7r4+3x76ebZeXy6cv+2/KEH0dccBTSggru5/E/nCiG3//5eAQ87B5PAL6S5AEgkTwDgFD1A6AEkgQATFFGQCX2AJDIj2+o0h6xDoiU6wSoEODHoGshHwEgUPIWUBwA+AlQKWYA0MI5CxAA0PezXV9BkoTSWAXvHDkQAk9VqFRAnROVbNdnUOZIIna9A+sD1WhLEAta//rtCSkYEDtMnGAq8PmB7XoHSNez3WUgVIAynY1XKnlQr2DzzwUSiCmN+8k4XqW0jICUIIF8sZSLqgqQId1SGEPQJAjgdExtx53UobF2naOxOU8PmhiEkEMTbX8BBVAzDk2DbT3WmHrt6+N6xJTA84tvNtVJQRXUrDBlk6BMGZCiuqbZvqHUeL4O0IyOb4gRFllVYpwxKXOB96rM2RDVUwFFXoxz3FKu0ClOnLBrR3mB0qTWNtZZNHHAHLUQdWxRxUH1l2ztqHRDWAdEiskCGBRCuWQMWAEexeBsm1VHimBL+rW1MLVsQCYFGA8TbeSg1LqlOJqw6LQBBKdBp1FwkimhoIMddyThwiVisYCMtsRWcgsABV1s51m2BNKq85ZMQaMtqQtImtIKjLiqLZoY8ASmAGe4pN0CuYCz7VzJklBatVvO9EZ6EKtpBQiWqLAFnJGo0cNiAiiGacZYCI+GwrWhgVEMbqUOyDUWiU6VRmPVknWzJSZGWVJqTGwVpIdgDxgKQF1XJeomAWVA7/cDqh2uGE/ntbePkw6UQc9aBGQmGXxe0DcYiepwA21GrAno9CQ4rTwCdD7LuAOZGEKX1Dr52A4behpFs4PoOGgAHqaVxR6r1BXAjrI013obKJHvZWc3VCiDAJKnagbQBFtonDxGR0r0Bh26bdUCPvdMPTdlePDRkZNNjgR6jA7xxmNUPQHdGPjJlBSAzzLFjGOCR8TQpoR+2gtQ0P/qncR0pP9/J/EX30no2c7sX6WM7LGdirpsCvTfYlXzNtGsN6lmVRdeRmp13nXbWW0P5AjtvTaf6uv7LcufFJOyBQSwoUWTY8XYw2FHVc8TADUE9RVzJaEAj5wrtxReCmDr7+e21C++Lg26s+zStFZ7Z3CmcMs9zajMM8x490X7BQD98Havf7d7eDj+LHD6vf0dQP91/A0hXv8C);lineShape=1;" vertex="1" parent="1">
                    <mxGeometry x="200.88525908102656" y="638.6645532632667" width="32.72381704280406" height="57.80335154135673" as="geometry"/>
                </mxCell>
                <mxCell id="63" value="" style="shape=stencil(lVbbbtswDP0avxKSKInScy//UaDpYixNijTttr8fDcNeKM0n7ZstkSIPeXgZ+O59//S2G4J7v5xPP3e/xufLfuD7IYTxuN+dx4t+Dfww8N3L6bz7cT59HJ/n/7enSXL6ej19Ti/8nvW8IwmTVnB/5pNIeT54nOUP4/FKPlRK2cgnCmlbPoXlepHXg7wtn/U5MfKemLflSyFv/Xfk3LZ89VRD4w/CWxOxldeIBWRAqFoAiqBGoKARLUaBM2UA2bsV4pqDQOKhCW99yoUSUhDy1SiUQCxAIbZproEKQu0oW9S1UEGJzsv1qlAh6MItM6Zclm0FqVStBbXJINUilG0ehCkClyQvDqyJK+SQS51CVDLdcMlb9mVKIHET6Gj5zZTrd8KKG0afN60f8H5PDL+Qd5N5tiEpd0GD6antNWa4PpviYU8J5OA/9RmFGNdn0wIyE6MgdU1GlEgoSl0bK5UKckl5ZomkNpFLUyO2Cldx+GLrvqXRDwdtGhnA7qePohCQ7H68Kb8EzLd+ft7oMgo6tgYc4GsisVzSAvHgfW4BaMFW8L5vy1PUInjfLdW+UjWTA7zoZ1WiCFLW106kBOZC5w/zwtyv4dX+FUD/6uLpFS/wp88XFdQeWzokuCx8d127La8f/3bDl/FwmFfL6/t2l9SjeQ/lh78=);lineShape=1;" vertex="1" parent="1">
                    <mxGeometry x="213.6123785380962" y="669.3852753465774" width="19.260306758525076" height="4.583544765829629" as="geometry"/>
                </mxCell>
                <mxCell id="64" value="" style="shape=stencil(lVfLctswDPwaXTEgwec5Tf8jM3FqT10747ivvy9UDWURkjfjm0xjSSywAMhBnj72L++7wfPH9XL+vvt9eL3uB/kyeH847XeXw1W/Bnke5OntfNl9u5x/nl6n3+8vo+X49eP8a9zhz4RziWIdUZ7/TiuBivu/8HWyPx5OC3vPFKWz90IlAYCnyh1ACqUMAOpA7j3K5CsAZOLQAWIiKfcBwjT+twCkQCkAQKHaBymHtrIJiEzSu5QrCQhrSsQ96eIh6awU+zwUoRrvA6oQ9xyKph6QrrHtNwMyBhRy5oRKTgCgWu1VRw6c4JiJezEpLUGsNex9XJVWRD5lyqUHZApArrqfGICqBYXJU+gzp06iktMo+mABFbikiXXRAoIHAKGQLAePXHIUDOnUttgGMAWTuECCAaaCNG5ITOqSmBNmsdwj7XoORUkjQKTSn6CBrihKpXXGBcCDxqQUeQWA8o7EqxpFFaRiNu1bnYy4gLzYsAZ0gmrTSMNTAmFVQF5JowC1qjaDs+IrqEQ16qYelDRIXF3XQ8UcuHX3Bli0qm1t5I0aTUAbDwOya11l0ckYZC66NgQXzdWBuIrYwatOMroLRDt4tWpRJ3PV6jvrFuAEF9p+82jPTcDbAC25Xt8xUwGD1606Wfikgtocn+1VGUB8kXKvPV1B9yUm16dZiwFkeTVBYxtHd8zNdAstI9vRsQn2lNFdr43WuWwg1WAvSQwHZ2zd+WbuQWSyvajiCq7r3RnpRstRjH0EXc5JU9UtNo8p32P7ZIUg8J7z6EPhc3v9uL1K3g7H4/SoWf5vXzG6NL2A5Pkf);lineShape=1;" vertex="1" parent="1">
                    <mxGeometry x="245.3417300833903" y="655.5068333066272" width="23.983467906775104" height="34.405716138548996" as="geometry"/>
                </mxCell>
                <mxCell id="65" value="" style="shape=stencil(rVbLUsMwDPyaXDW25ee5wH8wQ0szlJYp5fX3KASX2E6XMMMtcVaOtFqt3fHqeXv7tO6Mej4dDw/rt/7utO34qjOm32/Xx/4kTx1fd7zaHI7r++PhZX83vj/dDsjh6fHwOuzwPsYlSmkIMupjXDCk/NfCzQjf9fsJnC25WOAdpXAZbyNZXeCZQrqM9yZ/nuQD9o+JnCnwipS6jE+GYqj29wbgXY3Xigz6QSRTFmw0JQsCEnkuGfJ5ZTZAq3OJ5x4Iaxr+wpRF+EgOBYSa1WiIQRuSpVQWMRCNqtYUypSEuAiqjpG4FJ5UhYqOjnTZCOnl9xbzAVJiSWv0eWU+QJRgi4DAWe2zASGR9mXjIimQUhtgRUy/pORK9XlyaH6aojWTBwPa0mrhAA19KwdaUgT7D8Io+6xJ/0l5IXO2UNo6kMfzWQ0Pa3KgBzPzaQMxns/KAjxn1haaTIjQJlsbE+OMKKXGJ4U4lFJrxBMe/imiPRwkqQRMoz19ks/MLTzeRF8K/KE5PoeMgJpCs7/Mp7uMd1k4E1+1AC+6qYxbOg8cRmcPPQspkAH1qjp/H2DL2qPK5flehreWDLCXJh9mmE9Tr5z/Ad13aj61zf63rF8BtreRA8Pu/vGy9itcHn7uhZt+txuvldPv9T1SlsY7KF9/Ag==);lineShape=1;" vertex="1" parent="1">
                    <mxGeometry x="277.8965343660723" y="648.7980540421565" width="19.489711893222875" height="4.091361398108802" as="geometry"/>
                </mxCell>
                <mxCell id="66" value="" style="shape=stencil(lVbZbhsxDPyafSUkUZSo5zT9jwBxaqNuHDju9felsVhnSdtT5G0Pjsjh8NDED+/bp7fNVNL76Xj4vvm9ez5tJ/4ylbJ73W6Ou5M9Tfw48cPL4bj5djz8fH2e39+ezpbnpx+HX+cT/sy4NmjUM6qkv/MXIZ0/fJ3t97vXlX3X5fdiXyr1fh+gTEUcoBZiBFCqzUfElABgMFXvoVXKCgCdpDtAr8RyH5BTopQcYlxo3XahJOwBAl3YeaIe0KEHFWqehPnsDShngBDSoJ7vAyyLkh1glYebCBOq9uiiAReVqWkkIUBrbpQlpgmFxPkqTUIJpIkT9eIBhQYQgpl4eEAiHQAwqPpi0kEZcKhK2YekHfacKDWJgMRA6kHqs6SNBsiSJmpXIQnoOaPYfVdbnysojdGWflmlVQoAjKtaKiSo5UyHoHSlBkhb5cQebRBgFCNAiQHpboXgp+s5SOChKZUWAQPoIH2p/hUA6VAbdY4ckAfWK+E67ulCPWRJFp/3WjROMl4K/hMAkNYy4iCzDYFIFyPthbPpOQCH0mJP2/BEPW1rNpS3DU+05bIsFC+bulEBIdls9+O+w9K7Wol2cQAaFEqer61ctEqW8XMJnhSRzbHT8pKu2/bWmf78hLPfSFKwL2jtXNT/sEdryrTkGE8GO0TyMkdW8QOxbCNwivkBfBvHa6HlH82hTsOfX6mA/H/22vl/e3v4uOO+7Pb7+Yq8/h/vxPZpvk/z4z8=);lineShape=1;" vertex="1" parent="1">
                    <mxGeometry x="287.93144965725674" y="651.4177683856117" width="5.467040390771444" height="28.975999125519138" as="geometry"/>
                </mxCell>
                <mxCell id="67" value="" style="shape=stencil(lVfLbttADPwaXwku931O0/8IEKc26tqB4/Tx96VqrGLS0hS5yRLHu0vODLmb+PC2e3rdboTfLufT9+2v/fNlt4lfNiL742573l/0aRMfN/Hh5XTefjuf3o/P19+vT1Pk9PTj9HP6h99XnDBJn1DCf65vKgX+9+LrNf6wP97Eh0a5mngJlBCgUrELxES9whVYDCBFanhLya6QIxW0QqeYDKAoIKwDNEnVAqpQQoBMORpAE+p9HRAbxWwBiXJZB6ROwdVN36R1QO7E7gxMXdYBpVG1WypMDQCqlqnYOgQSUAcF9GYrHcaaywCmaKkR43izfAatq11BK9NAllKlbNMa8tjkMiANucyANEq5DAiDajNAoOISD30NQKeEmMGU7ZkL1QjidXlbZz0SqJqeuFtuCzHaT6NiicdUQM2yUGsunkF+ciURF49YV4JXTqAIpFnS+DyTjgQUuBRK1iEzFZCfcrd/9QIUX7wDh0CMDpzuAJEyyKhmKNmKqQiQ3WkJsuN0GTpaBsS7GhTqYAUlURcPQFlKmYI1o4Dbjsog3umyY10Wq5ug9oRW4LHjj1ZbkDC1DM4esRWp/9qkClV0gOrdVHmEqnxHC6aA4jPV7uIZ7F87lDMW3KA+G98KiY2fSAeaQdcubg8s86ixPFjwbFU3HQ2ZV2+jpc5mkYeWlgHqXs7dG2SRjgWuBTYeTF/zF+d3fWb6Gi/EKqerH4BCxOKFcJO45XlKvJo7PnWnZi2v6z+gLZGwT1IHZw7DQGcpR9hE2FuwmjLaD/thLc/D1Vq8410cI+tKvOtROpTjeGfwk9ZgvPPGQgWN8MRWmereoLqBumWDHhYkJ3pCy6jGMp99Pw5wXqmezAxd+k6OPO5Hy0fV4Sq7eDQiT9OnM7khneV41WJz8agRT7czn0xEhOmu5adLQUpnP09nmP3P3l//H68PH5fll/3hcL1r3373l2t9db2Yx8e/);lineShape=1;" vertex="1" parent="1">
                    <mxGeometry x="313.5163338678947" y="652.7630118855475" width="20.638040333031768" height="32.799116728465606" as="geometry"/>
                </mxCell>
                <mxCell id="68" value="" style="shape=stencil(lVfZbttADPwavRK75J7PafofAeLURl07cJwef1+qglSTkifImyzviOQMrx3k4W3/9LobOLxdL+fvu1+H5+t+kC8D8+G0310OV30a5HGQh5fzZfftcn4/PU+/X5/Gk+PTj/PP8Qu/J1wgjiOIw5/pRWFq5d+br9P54+F0c75RtedTpcz3z0ehGAxAGoUEAJV6NQDuxOE+gIVysYBAHViQMDswA9RJafcBY4gOQAF4VAvlbM4HeL4zVfd9JgGk9kKJbchCAQEalW5VyBQEqBAWl2+EbshEpyg2k4Rahj6xtdCYIg5CbBA9UQG69UrVuqTESQWATLVZgAbdP6Oc0hCAS61RFw9oEQASVZtLN9JsIwKVlU8F1EOtc+4sAK1y0ANqIl7RlBBAabJSK9MNCKGAZKNWqSOysGoCKk0GvNZM3bkUoXJVu5CjNcBG1oTY0to6JZQb1Vf1CEDpGj1gdAkErST6/I4wBtU1rmhFSo816mhV4ZBLzc+HMTVw7/NKL7xtA5Y2dJveoPcpiewsaAEBC614lj6s0eiH3NgGgImqNK2KGvGq+R1WNYqmolZQcN1VpwygSWtUnIUEed0GIJeY2CqnE4JR0MEP6pLmqbQJKNreLSDh3NDvNSu1YJZK9AXBGXaysuxTN8tAAXM06/Li9h8diyD5dJA7WoWhSyn69p0C7GTKSbZKpz4rsw2IvqhLnhP+3g6XnNKFCtBBF9dkK06J7iAGlak6QJ8rZBugnbF7QAc6xEbN7gKav2gPjdnvZBXrECPxygLapXVhYh9CBhNo2b+W87poggJlXwwqAoo4+NuGpkUHmbpaWrVe0Wz47O3n4/P68P+q9XI4Hqeb2u3//mqmr6ZrnTz+BQ==);lineShape=1;" vertex="1" parent="1">
                    <mxGeometry x="90.25200356957589" y="721.8333397485119" width="13.166392860573296" height="32.308174342995244" as="geometry"/>
                </mxCell>
                <mxCell id="69" value="" style="shape=stencil(7VnbThwxDP2afbUSOzc/U/ofSCxlVcoioLe/r6erbCfOzqmo1Dfehll7EvvYxxd2cvVyf/O033F4eX0+ft5/P9y+3u/kw4758Hi/fz682tNOrndydXd83n96Pn59vD39/XSzSC5PX47fli/8OOkxxbwocfh5epEylfr7zceT/MPhcSXfKPMgL0yct+UjU2qDAidKESgUymlQiLV/4qICB2p1VIgUClAoFOKgkCnytrwItTDIB6q6LZ+EmJ18CNvyOZKOGAjFBORbR6jLN1LZli9CZbTXfByBR0vt911hVoAFpZGU0YJEDCAohYr6sBNgc4nd5WfMCjwhJ9IRhJJJEWqlO7Er1EQCMkHM6NGtLVICNrBSGXFulRgAx5FkzB2N1IANMVEbr6SZEgBOqY24qcUWiIzWU/csrxSBj8r0fe0mXUaNWCd5cH/xUaE4FYyMspdn5FASJ29cBKgieO7SAmPIiMEBbB4A9gafmCowqEP33lmeIXUFz0QWcCgeos8ZNWpEVNp555wBSoq+nz1PmEICBtgJTbwCQtjIPbkTGuYJY7bmFVDFzNkHhSkIcJKRY3Mn1J7XFxVqma5UOpCX0z74PG4JXkmnKt7M0YDrNE1cZ5GKmKhMRS1BpC1zxbnVHI2MVsph8hIALoYp3RaokRE68W8gBkcsdOUII/Zm47JC9UAYAwQEhDlFvUJDbrKEcJydeo94WSH20FmTEghXy0iZrhRBLV/Cv3ovKVKYavkS8VjBh2uDRGlXClOOIi/Z9+LoVgvXCpA2L1V3QupQbuFQXQZJj64tpJ2XlqRGLGCNs/grMTqhdpJYGQ1jSacCUSBwpqCOyRrOB/UlbnE0MlqnGhoxV9oFXD4wLBDmVnZV1zp20MW8WaFWqi4fSm+PtyYA31jZGzSTlB4Iq84K0beVUXU5rT2lLhdqY6HgFQqwwWaW6MaegAexf+iG2d/ovRt+74b/VzcsPd5X8gLwtXGwzG0eWqWwJ5ZmdROcIKFvKs5Dc4bbHam9+TiP5QoxNp5wQV0ibIbz1NtmgXydk18H2ZkozZbVwoizZJgHdoE6nsAVb5Bqj7MzdWVotKgvtJgbJfbeY3VAQTuz6ns2i/YEctmC1SUb4yEmTl2hMT7KZotut3RK1rOhVeQEQ1I4xETuNe8cSqH3WJcVImUXe7EPHRsjBgX1CogCGuXR5sxwlVd9L2LyATh1mlXtPojCUl9greTR98Wvm82jcAU2YYzpIvqtn8VEQDHh6SgVOB29dV3+d3l7+LObvzs8PJxW++vf/S7fXp3+DyDXvwA=);lineShape=1;" vertex="1" parent="1">
                    <mxGeometry x="73.83752140052411" y="768.6047991469727" width="32.38845283461592" height="41.808789378949996" as="geometry"/>
                </mxCell>
                <mxCell id="191" style="edgeStyle=none;html=1;fontSize=18;" edge="1" parent="1" source="70">
                    <mxGeometry relative="1" as="geometry">
                        <mxPoint x="470" y="720" as="targetPoint"/>
                    </mxGeometry>
                </mxCell>
                <mxCell id="70" value="" style="shape=stencil(lVpJUhwxEHzNXBXal7OXfxBhbCaMwYHx9nuXPKGmlTWdgtvQZLVKtS99Cu9+3N18vz15++P56fHr7e/zp+e7U3h/8v78cHf7dH6WX6fw4RTefX58uv3y9Pjz4dPl7+83Hdl/fXv81d/w50JXvampU3n79/LEGmv/P/h4wd+fH/b4aEoFfCgEn41DfGb4YvKMd8Y6gm+m/2/CM36aNaUBvgSC9ya4Ce+NywQfTImAb57go2lhwkfjGP/JtJkfEXAj+IzyrCZHgi/Gg3xEoExAxVRQQDS+EoKqThCdMxFVU+wsUmciY6kZO8vUJ5OIUQuBLzNBM4VpuZkw3yEEU/kJcZZSKMNQDgnmS0dHHUezFJOJzDL0CSI3fumYJ4LkjecEaY4tKa1OyEBQVpouwNJ25hFBnd0hO5O4lNpsGjkMc7xK4OwWQDeKNN5xeMR8iVyHLg8vMRMUayo3JghKJRjPzTXPdyjJhIW5AktlBP5Dc50dotQR2Y4I3GzfVTIJl5Kb7yC5bmEbEDYk2UVmrhVtQ7Jd5JEMgncVTfNYWWfFSf6iepBYOZ8gCcwzKW0MbASSgJgeVIKWlJTZHTKahjxpzKnjyMgbQRkGf5ij57Aht0pESlI0BDhBdE9MoyZMQd3g2QkSVTwSsHhfMgaBHhaILRXR66zpXeS5SpELZoh+BOEpi79UJGBZTqJ1VSckEvpSMNEhQSAnxKpso1IxxWCaRYJI7DvUIZO99RGWQjS2IIEjYvUq8b64yHWChBlFXK4Ql3upmXcEjCWpwCAaixMyxUmNhy4XabyXKhJipVTKLCs6O+rsPQHrTEYRucNXEvnKqLNfiReRazy5gOSOpPAkxoQRdl+Jd1gr9daDaMCqmBdoJ2AxvnQ8cRzRl5J/ImFeglVEPKv1rLLpQEOFKsMEzzqra/xYKh/Ul6fR1I6Ka4dnWc0ql/Sj0zrAx6DwVJ4pKjyVT1bvb5T/3JQ86fuLsh9Wo1pV6QRaGgk/Kp6wqGtV8hN7pvio8KytFf0qfhb+qPydv98pPOffavlwf9HyJ/Hqmj96Gk+ssgdL45sF+XuaYKyK/370hkfyV+/n/oXV1sp/34Z3qg7n972WXyzhP6qyncfDhIPBhb6u5V/3xvzO8L2AUAGIdTbOY//XCVhNE1XIDbRxlzILy12es0XJqLQ4wsZhqdiQoBGWejEKBLydk3IX40qmLIWmAkWhI91esmckyMxSqyrNqnGEoLcdumEkLElj0zwSMMVJ65RVw8guLc0ZNgVtCPqw/1MELJ72DjOqE4iUpIfFjCa9Ee+Sc0SCzAiEY9XNeTYq88qny9D90SwBNc2bMzFmtNa8mn9j3kl84lLULCHQwlFkgpnQD7kdEaCL2rHFOBzJzyf0uRSffEEyrJmPLCv2izXyyW7FgXmf3vE7JBj32dVaAQraUvkUVYWZPuPkLMG4ryS+GtmmULs5LQsC3YOBJbvaQ8Cmo8+aF2sF2Dcl0/gd/OyiOaw2HeDT2fEVVcOBS9rG1Yd6gC1BoaVtH7sCwZZXX2kafTXCB7vQvayWL2oJ1tc7bzthsUBSo7W+omLGp1jqSzDucdBSSfVRuQMFWKYmOpbSoVIqKDaE6JXFfAe3uPSWPjaCRSDLWLe6BUtZrSH4YiSNMcjmP1xGKiVG7p8Bq1zep/YcPb+fz0UkN2XEM/lI0QAlrqdznVpw0OFo3yaZzCKeLY8lkcFgwY1seh3v0c8snTsKHqoqS+dGPU9mxLMvKDx2AJZ+EdHxyA+zh453gKfLGY+VsKUO1vEe8IHLP+IXLwt9JeSfVZBVbU0snXt1/RbEL+wH9Uu/2HnrFz5LvPx4+Zzo8/n+/vI10v7/+PmRPLp8uhQ+/AM=);lineShape=1;" vertex="1" parent="1">
                    <mxGeometry x="-1.7074923405609752" y="559.4338747233403" width="362.2134177157932" height="315.6032294791762" as="geometry"/>
                </mxCell>
                <mxCell id="71" value="" style="shape=stencil(lVfLctswDPwaXTEkQRLkOU3/IzNxak1dO+O4bfL3haqRahLV2rkpym4ELBaPDPzwtn963Q3BvV3Op++73+PzZT/wlyGE8bjfnceLPg38OPDDy+m8+3Y+/Tw+zz+/Pk3I6enH6df0F95nnqdcJlJwH/MLR879ffF1hh/G4zU8UUoNPhDLNp4DpdjgI7m6jY9M1TX4RBy38SlRDQ0+UwD4LFRTh68gXylUfYMX4rKNr4586vASAL5QdJ2eGcRTTTwJ6lnrUp4F7wMFUDAlCLcB8RLiFqG2FWaVCKTs3WqxNQd1CY6p1LZosthwi5BbVxRHGcsUWoIWMntYB2mzrmo89IViviDkkTNW46wEJodCkiWANelIERHU+m3vi3oDlTpT6cwnlPNnCDFAb9iQpv5BspqkpwmFGtTIun7yzroFKhjfGYNJUBGs84ixUztr+4olNc2jMzmCbvtPf0ahiNutGwE53Gq3bshIxu1mxliRRec752SNy6bYInArkzoFzj0zuW8RzGqo2m7ASnb3KCGDHOxy05HhQUh2eypBQEPb9ayyoglg939NS1Z3Hhgqa2ZA6A+YK/9uEEJL0EqiZeL6/tGU0QZ1lHJv1Qiq5voJJgX6yC0lvVqGAgSy2zaTg/H03a9Fh/l28TC+MEy+WpEEhoXR0+NrwdkLEslj7ODhrPvsvXwLrg//TvOX8XCYL/vr3/envL6a/w3gxz8=);lineShape=1;" vertex="1" parent="1">
                    <mxGeometry x="293.34391958542847" y="115.16633297662645" width="89.12061568390664" height="3.0214295057314757" as="geometry"/>
                </mxCell>
                <mxCell id="72" value="" style="shape=stencil(lVfLbttADPwaXYldcp/nNP2PAHFqo64dOG6b/H0pCFJNypogN1nmiORwSO4O8vC2f3rdDRzerpfzz93fw/N1P8i3gflw2u8uh6s+DfI4yMPL+bL7cTn/Pj1Pv1+fRsvx6df5z/iF9wkXE4U0ojh8TG8C1enF98n+eDjd2HOjyMa+UAnb9ilTL8Y+CrW4DShCXQyAhTJvA1qgkg1AmDoIqWfiagApEYOcYwgUgkHkRKkDF43YxlQKRRSTerAx1UxSYdZiQ2qRBPHaKVsPDYeUtbDdADTIloE0qq9cV5+AJU4ULUs3TN9HBEorFwzEEStFm3WvJAIAiarltSfKSBxC7GiKFJEH8aVulRLgdWzRZgHaI6DUsRA7bWjlCgAsJC7qa1RADszUHADnME6JNQDQKoFYViEBaYjWoaySBtKQTCl4WhFLUrz4xsKhkIrPQaURQFNLouYAeM7opBMrDZU3o5brszZvGwh1nLJkC/dpj0YqybsoSK66UlwSDdIUVzHpSM+og2RW8wJgOCzHHo221Kq+hj04QKaAQsq+cjq/G6B1ZMnSWvus+K06ZOtBW66CpL8MSHXeB8uW04GPVkqfh8QC0HELKq09Xy2t+okCki5tJnEB6FoEDZFVCJbWFOEk06budt5rE6LTg+4s50H3XgLDtfiVpaWvIGddD+6EVedC3g/IL6y4nNHu2gfqVhYq9g6KFvz2iZEqyHd1uOpza2yYu8apuNHmdb/Ulxokp1pyeC73BvfF1Qo2QKFmzfU8A4LpfqXhyas8uxOb2oPgv3r2/9xeH/5fNF4Ox+N0T7n9319M9NV0qZHHfw==);lineShape=1;" vertex="1" parent="1">
                    <mxGeometry x="364.30718278041604" y="107.81343619961297" width="21.805256224516143" height="22.542649033145494" as="geometry"/>
                </mxCell>
                <mxCell id="73" value="" style="shape=stencil(7VjJUhsxEP0aX7u0tqQzSf6DKkxwhWAKyPb3eRMzg9XyPONbDlRxGMb9Rr283rSJV89314/bTXDPL0/7b9tfu5uXu038tAlh93C3fdq94GkTP2/i1e3+afv1af/j4ebw/+P1JDk9fd//nL7w+4DzUQCZ/tyfwxutktu/N18OgPvdwzEgSNEOUJqURABRvOsANUiI9ITmewA+USkg1h6QxDGAlxwsoBYCcBJbD8iS/TqgictWvuV1+SLZWKDUZBWnl8inOabv1AesGPRn9gbxlzlUglp5FjEnxXyfU8JJTpdwzonrOVq8FK5PT1FFWhB7cXovnxfOrsTL5Ezi+qjlW/QzY0/KV2svNIwsJ534/gCPABMCIettBCQx+WY9hA8QeWSM7xmEkBMDos5F6k3+1QWnA4B86uW9JF2Xz5Dv9U/SyPc1S+gzcikZpwtEGvSJUonBIHwsPQB1mmhUm8T+hDcfn65xyZoAJ782k9OAMrtw8VGWSljaBpVylsQKuxsSWRct146ovREl8Mo+6ARPUzcNVjeluYmftT8BnyjshCy+D3Wr3K/RJhusUnaCk2bI5Hj+1Cpa7BGsI6CBZbWAwAAoQGqtDoQcaBklW79SG6INNTydmUpRtG/jyBFPMgI2mL7WglQGUJvVDY2BFfql7B4BKF2dLZRT8IlbQSaTcjiBBQ5OtIBA44CEMONaW2bK1ZTzNg6s+wCQjVvzPISuqdRM+S4SWe3LQ6QrbXAwsQ05Sm0AEaIFNDKYo+CnEUCoUcs8Qx0BMmNrHtiKskBsmKbAIUWZ0VOKmjgo7aMApCFF2b5zOSDbBalyek+A3ktoQYkDWq+SLnVkNQ69WzGuFELvabru3ZqKNDJtlKGNRs7Wku0EHZcZ+TTAzfm1jCdKR2hFMe5VwgiX2QiX54l2aXKFzg6YyVN/guelEjOeGYobHWcwlBvueZ2PXJuiaw/AGJ0IM2Ch4R7CQHdttTUgYV4iZPVDtcfqw1ZPLBahDzQi6dkuGe28dGZ5+7iRmKvIx43Ef3wjYTL5zDWbm/P8nfd4TtTcYBRRVinsvq1K10n0vL5OYONlC/HQcaYNmfAhzdPTUQ+sbOG2/Ic86wbF8vOMPPJrkGf6IIHNYH7GYJQIGzHuUT90jzMhQ120MTvDiYsvj88D8PB2V327u78/XHUf/27vtvHqcC8eP/8F);lineShape=1;" vertex="1" parent="1">
                    <mxGeometry x="404.6631650421476" y="100.44345228001698" width="27.77109639536002" height="43.817905679646174" as="geometry"/>
                </mxCell>
                <mxCell id="74" value="" style="shape=stencil(rVbbTiMxDP2aebXiONdnFv6jEoWOttuiUnbh7/EwGmji2bNU2rd06hNfzrHjQW6ed5un7eDd8/l0/Ln9M96fd4P8GLwfD7vtaTzraZDbQW4ejqft4+n4criffz9tJsvp9Ov4e7rhdcaxp1gnlHdv8xeh6D4+3M32+/FwYS+RJDf2gYL/u310lKS73wH7kkhKY+/IgXiqoxwae08J3F9DHw878shBptQm7JlqAIBK0bcZp8XnKoDdZ4oLInrKDF242ABSoYgAiXJb1eIXHtcBQoEbQPVUQNalknSAQgVkXQLVNmnNCiVdVElt0jUuWlkF5NyXdRIXoDoHklYb+bMM6wBPtaU6FnIoJAMIvJThmyH5RBEQZ5NmoVSvKWuADTTx1hKt/YPuN8Jg4quUl4nTNdJm7Vjcn13zCMORt9KfIS9JfXMEJCEBRbJDJquQUJXMGNM6FxSSzskWoD5RSHYQX9ThPyHs46BsVtA/9vXRGRABwD5v6gGRrcyl3gEDNan6uimG5R2Iu0EcqIB4PHEr1pzgSDI0J7UHNNunJ1IC8dhWCFBGJh4R+FKZfKd9BBBs6snKF4jH8IVfKSMHZSteIze8Tf3bXg9fq9vDuN/Pm9/l//2qp5/mNVFu3wE=);lineShape=1;" vertex="1" parent="1">
                    <mxGeometry x="412.8238826693299" y="121.5919122669455" width="16.411065640317247" height="4.476927419234016" as="geometry"/>
                </mxCell>
                <mxCell id="75" value="" style="shape=stencil(7VjLUiMxDPyaXFW25Yd0Ztn/oIqwpJYlVGBff7+aCh7GmkxT3PZAFYckqMe21N2SZ8dXz/c3T/tdCs8vp+P3/e/D7cv9jr/sUjo83u9Phxf7tOPrHV/dHU/7b6fjz8fb8/enmyly+vTj+Gt6wp8zLilVnlAp/H39JdL01f6+ngEPh8clgCnFAVACZd4GRKFWB0BVkgIAhUoYABIpoBWYJI8AJVYI4DIANFBsAJAoqweIAEAkHrOkkTJYQfvjFvEatuOFkotPFEFSK9Xg41/reDE+k2YfH+p2PFMOfv8N1Mye1nx8QjWmkHwBCihxIB7jjRKvJNmID8HHI85Z/EgIEZjP1Kvf45uQgvhKPObfRBMRpUN/3CxL6Vu8DKiUxhPnioVvJRtX4EwRaMA4Gpy1MBXEIfYiMCsIIEls5jVai3Q3u0zqQnWsWiYGIqvmCmOOZppcjG/iWZEpgQOLJXDcvx0IlMA4VkYWWRUVHNhE5YzOiIV2ZCp3umdbAWxJ7QgjK7JQRiuU7rQzswNUvgF0TGrD7UAridN+ooa8V0ldO6j4DOrFpu09QHL2ZVkCzLbn+S1p1+vWoRN7QAMNwQqXxkrHgNk9dRj1S0D2WWFXgAJM2Pjdsk8TarPSqEUPQI5hAN+XW+8sW4DiJFoxYKb/DDDGI4D2Rj8Dcm+mW6JurtTc2XIZwJ3+C4CgFQo1Xa0A6mBJLLo6A5Kc9OctsoT6pzFHoq9DRANDWLV02yVCTORciTSiPUkffBcARTZQ/aBqa1ZUiNzNdyk5VOpEUlcAMAZMc+xKow0NnurnfwNAfjfv35Ylfkejjq72C2qjHwYU4pF9wljUqy5nPYgRIPlJw7ocqrSErshFH0WVtlnDsZVbX/MyoPgRNDW4JTuiumnDag9EXcV75XTRQgDLyaiHBp3PbppuOpnuWaDQOVNzE6VJEOyIxQOmmxBwPptZ3TjDBXZ2O6KMnT03eFmdLtwjM4rCuduqlMcztLkRb10FnHs3hT72eeE+W+3nhfst/n+7cLPvnIJFUPvNa3HhTmD/duF2lM7ziLL1WstNYXamgt6DzQPOwn/RSD95m3gAamuxrRxesI5N5m5LDb7GSGG1Jdx0jKcle0BG9pj9PGKAAoSfiu+0BkBMNcd2BmxZQlQyr3AvbwwgCKDdShaFqyit6h3bEo0658df874PsA9vb5XvDg8P55fSy//7t9D20/kNNl//Aw==);lineShape=1;" vertex="1" parent="1">
                    <mxGeometry x="398.5829852426831" y="176.66488729090594" width="24.293201343239616" height="49.72246083130392" as="geometry"/>
                </mxCell>
                <mxCell id="76" value="" style="shape=stencil(lVbLUiMxDPyauapsyS+dWfgPqgibKbIJFQK7/D2anZohckhT3BxHPZa61bIHuXnZ3j9vBg4vp+PhafN3fDhtB/k1MI/77eY4nmw1yO0gN4+H4+b38fC6f5h/P99PkdPqz+Ft+sK/GVeppQnE4X3ekEa1/N+5m+N34/4snpVy9IBAVa8DEhM3B2Chkq4DcuoBsRKH64CmVMUBAgUQr9zXHCmAkjVTURefKUUQX0m7ApgKAiil6imK1ACnMawVrioYzQBhR2R2ANOlopwaBZ9T5mXnGkvNn5CVBKXEpJ7WIrBq07l5XkumyABQ+pSKnSkAkJbvrTVUyqA1mnHiU0pGdAOAQNoJZ1Wh5jZ3eYA5kIEOLfZKR6WAaBXi7AGBBLRGy73fTDdEUuv9E7B/Yi+b5QNU07QMoM98CmgL86d4SpUUDCTzTmeF2PAB6/dWzWyoIu/oRQUKJTB3Fq+Z9V1ENZQeYJ3NiFTph5h5p6ITwmKtM3eivvsxoLTFKQugWq8D7+SyXDQroC72+/quSlS80pPBgdISSX2r2sypgFazViq+98z/aCQR+/iz2f81SxS75m5wDNvI8yrYIA9ggjElz6npyCA+UvSNZ0OWwbQwr3tGTTMB3rm4CavtAOtYthd3QgF8Wpd2xsmUAZ9M0QtmzkT5C9XuBknQ+nm5ttf4AC/ynz7wvo+3xedr8nHc7ebH6Pn//evTtuaXq9x+AA==);lineShape=1;" vertex="1" parent="1">
                    <mxGeometry x="404.5930296342234" y="203.38152135424542" width="21.90177743763934" height="6.4971196102376325" as="geometry"/>
                </mxCell>
                <mxCell id="77" value="" style="shape=stencil(fZbdcgIhDIWfZm8zQAg/17Z9j85U606tdqz9e/tmZ0c0uJ47xP0I5JwEBl59bp8/1kNwn6fj4W39M76ctgM/DCGM++36OJ50NPDjwKvN4bh+PR6+9i/z74/n6ctp9H74nlb4nbmSKZeJCu5vngmZ6jzzNAO7cX8FVKEsBuBKrgKg9oAE8gkCbLeUhEoEQKSUDZDLeWYRKIl8MEDRmHwfyBrBG6Amyu4+kDxxMoB3jhwgYu7TVAsVkFcWCs4CTBEoF4RctKeOxHIf8IXYpikHikAIf+MNUW94AGSSaoAoFIE3AlOyeWU+p2E5S9yfQZcQILVuQOwZdJNoS9Ls3wA5u2XZTIHECqeJ9kDpSaauRiNVcAY1QhdBzeLBli5WazpkSsBLV25uRaqWRyFawTQzRRIQYirJzq5atkBqLfouwqUxLBepthWb10vrWZY6UOAeyKCCtDV625mm9gmUC4Wc3VLJMMIE1BsA2FW9JraVlQB7n3c9oMKhCLEvIM1zBPZ25/umNQ1tVEC2G+fFCC8g398O2hNQuQlVu752DBfA+q0ptnqO5JFmeuIuo9DY7KjY71UxdJV4EntifPWorW++R/dC4t7V3DlIB5cHx2bc7eb3yvX//QNFp+bHDT/+Aw==);lineShape=1;" vertex="1" parent="1">
                    <mxGeometry x="441.9249627956009" y="143.37236018801133" width="4.672539772115215" height="4.665236216357812" as="geometry"/>
                </mxCell>
                <mxCell id="78" value="" style="shape=stencil(fZbdcgIhDIWfZm8zQAg/17Z9j85U606tdqz9e/tmZ0c0uJ47xP0I5JwEBl59bp8/1kNwn6fj4W39M76ctgM/DCGM++36OJ50NPDjwKvN4bh+PR6+9i/z74/n6ctp9H74nlb4nbmSKZeJCu5vngmZ6jzzNAO7cX8FVKEsBuBKrgKg9oAE8gkCbLeUhEoEQKSUDZDLeWYRKIl8MEDRmHwfyBrBG6Amyu4+kDxxMoB3jhwgYu7TVAsVkFcWCs4CTBEoF4RctKeOxHIf8IXYpikHikAIf+MNUW94AGSSaoAoFIE3AlOyeWU+p2E5S9yfQZcQILVuQOwZdJNoS9Ls3wA5u2XZTIHECqeJ9kDpSaauRiNVcAY1QhdBzeLBli5WazpkSsBLV25uRaqWRyFawTQzRRIQYirJzq5atkBqLfouwqUxLBepthWb10vrWZY6UOAeyKCCtDV625mm9gmUC4Wc3VLJMMIE1BsA2FW9JraVlQB7n3c9oMKhCLEvIM1zBPZ25/umNQ1tVEC2G+fFCC8g398O2hNQuQlVu752DBfA+q0ptnqO5JFmeuIuo9DY7KjY71UxdJV4EntifPWorW++R/dC4t7V3DlIB5cHx2bc7eb3yvX//QNFp+bHDT/+Aw==);lineShape=1;" vertex="1" parent="1">
                    <mxGeometry x="436.13158877216335" y="219.09236018801136" width="4.672539772115215" height="4.665236216357812" as="geometry"/>
                </mxCell>
                <mxCell id="79" value="" style="shape=stencil(rVfLbhsxDPwaXwlJlCjqnKb/ESBObdS1A8fp4+/LravtimtPUaC39ZqzIofDhzb88LZ7et1uUni7nE+ft9/2z5fdhj9sUtofd9vz/mJPG37c8MPL6bz9dD69H5+vv1+fJsvp6cvp6/SF71dcpBgnUAo/fr8QCvXXm49X+8P+uLAvlMNoHyiU+/aRKeoAYEr5vr0d0Opgb98P9+1ZqBZnnxrwP1BMg710Bm7bK1X2BBW5D5BEsQ2A1EgAoxKojh7lQhFQai6lMWclkQKOSqGQx5gxqVmpjC5ViwoBMlUZABpIkEtCbdSRRip8H2AOyBiDmpAQQIlHQJszcxtQvTLUEgekYYAwSluFVKFLadSSZkoAYCRmR2uiAGIwTgr7PCBadRV0bVSBWlsgLR6gwKWWiVcuIZZapRR80JIAoFEUT2tDPSnM8p8RFabajnDqMx4Y8Nq018tCfYqCKL2rzICMAalLZwZYJ0Op1l6RCwCq0YnFuDoBydVKuPkYGqrR5vNgUTWgPis5N34sDwXEUKUrYZHpiruA68Za4ICoc5NYyLWCAWF/51VBoKDNAR1ptTMRrbpyaSpqUBDNWmnyLmUQgwnBF3WEMVg9iDsh987zfwCWOHGDOuApJ5GyqyCFQWTuY3ZREKhGbbfwY7FRQdsPU3bdVfC6ZFNuXJfE9jcgV7Z2PAZd8LbBVqNuPWE4g7ItYKNLbH0BtA22VLuNKfXt4DaASUaWYukz4zZL0dM6LXFoQojPtLmUwQnmgBu8lkoBQdte7Io62Q6FToi+k027OJpZflCbPWoCdZWF0lvhnZuAGyf2hpHyqEYfMMpB6tNswWgG1WlNdBzR0xdADwu+59kbtKevdobY4E4cOhuzfYWr2L/exP5ubw9/rn0v+8Phemtc/u+vifbqesXkx58=);lineShape=1;" vertex="1" parent="1">
                    <mxGeometry x="466.03084491122024" y="107.39275579263627" width="24.490244788943983" height="33.473037266377105" as="geometry"/>
                </mxCell>
                <mxCell id="80" value="" style="shape=stencil(rVbLbttADPwaXQnucp/nNP2PAHFqo64dOO7r70tBWNWk5QEK9CatOCI5HHI5ydPH/uV9N0X+uF7OX3c/D6/X/SSfphgPp/3ucrjq0yTPkzy9nS+7L5fz99Pr8v7+MlvOT9/OP+Y//FpwMVDtMyry7+WkUVsOPi/2x8Pp1r4TB2MvgUJ+DJBGUQwgdYoAoJ9rNoDCFMpjQNGQigUkaukxoFXiZgGZJDwG9EDRAQoJ8NCzZ2kOsgFAHawPQBWKyEOnwhbQSJCHTr3aQss42QY06pbW1ikJABQq1kNPFJAHIbEelIYK6qABiJXGTANIumkdqgc0oKXG1G2llQZUh1opdZ90Bw1U050HpgT6QYVQbaXnrJAHoeakoYUDLNU8GnIFJIoMk+538m4A0AJlG5I2UEV1yFTcENAWBVpSafiQMgxJxdechwoLp9pkx5LOzgg7Lljx1UIZeAjMxK7UkQJKQgubLKBSAbxqEtm1XBzy2gakO4C2OaKJqdp5r0FG1NTFa+OGh/+EUC04dWhbI3WkPMbEChB4RcTiATqPIyp2IokGkBWAWsIP/BTh/NZJZqUxn4D/87jGV1JVKyDjO60GGSQ/sM8238Cwo8MQ8koobAUZP1vpGXf2pnmm7NiB93PzKwZTAa2vqVVvj/Sp1DlFM7x1QqHgyIT7SGiUbDwytrJtNfPYJVZxwnbZ2iL7P9rbrVMf/q6sb4fjcdl4b7/7FVePlvVYnv8A);lineShape=1;" vertex="1" parent="1">
                    <mxGeometry x="491.02752629416034" y="110.79899686395477" width="19.32504543957657" height="14.724542790204737" as="geometry"/>
                </mxCell>
                <mxCell id="81" value="" style="shape=stencil(lVbbctNADP0av2p2V9rbcyn/0ZmmxENIOmmA9u+R8azxys4B3hxHx7odHWngh7fj0+thCO7tdr18Pfwcn2/HgT8NIYzn4+E63vRp4MeBH14u18OX6+X7+Xn+/fo0WU5P3y4/pi+8zzjvHDk3wYL7mF8J5fr7xecZcBrPK0ANJL6zD4Gy3AeURNw74ErOA0Ck0nuQSjEAAFPtPSRPDuSQC8XYAbIQg5Byolo7gGYlDD3k3AFqpJigh9TnUBef+wBHkXtAoQA8aE2C8VApxPuAqerVAgoAsEbcN27Frl2Eck2KdZHyfYBnSsFmXUHnIknq7TMVEJFrGa7aIIDdjoLps8C2cRuuxZ5blfcTViZLD9ABRCX1rakLwDem7EfExMkCXAG8SOT9BgByiIX8NiTQ5aRM5k3SaHoihWLLing0KYABRHIIkCkbQIKilANVk7QyD82nUDJlVWoDQNQUTZUqZUAN8eT7Tv91PrVMG80ogEx+I5STyCBltVo/qRiIyG+qmuD8b7ab9llAn3ftwTBwy261GBj1gGpPI908DtGIpK9nUoVCeuHaXlotT7TavNhdyKVR/V6LjV7oASAopGIlTODk+GXbLxFhxdMe9DUKLcJ9+2rlyJPgtZb7krr2Yr/F0e4oXRJghcSNeOGhTNGOsdqjW0SFxX6fgX3Z1BNTrjorEp4SqL9OVOl3Zmi3z7699ssckPhG+N+T9h8A+vDngn4ZT6f5AF//by9ufTVf6/z4Cw==);lineShape=1;" vertex="1" parent="1">
                    <mxGeometry x="509.116910360064" y="105.47583663894655" width="4.134328756618288" height="36.27824071344298" as="geometry"/>
                </mxCell>
                <mxCell id="82" value="" style="shape=stencil(lVdJcttADHyNrqgZYDacHecfrrIcqaJYLlnO8vuAYchwQLFTulEkWli6Aczs5OH98PS233F4v17OX/c/js/Xw04+7ZiPr4f95Xi1p5087uTh5XzZf7mcP16fx99vT4Pl8PTt/H34h58jLhPXAcTh1/giJkr5z5vPo/3p+Lqwj4UydwClJtv2wiSlsxdS3rZPhap09oFC2LYvmVLr7Jk0bdvXQq2PxzISBFDKfUASqTToIYYOkBqpAkCkph0gV6oAUAqFPmd7E0FIWaj0HmqjBKqaMuXYAZr5BFUSJe6TrhXynE1myYckAFCUaq9UYybEbUCbU5xzCNCD8goQKSJA9lpqTK0CgIXUN0/LJIBpteZyPGDiBkBfJTW1IkCj4vo5UQEDQE1qzkMlxmWtvVotyFAgcS5pAygoa0tTQy4ADajVhOA9NKpASybm4gAFD4HsmVaBOVTrB1dWCxLwYIC/n2dpWJDIQ/GDzOpWkQed2mUhb6RW+6wuJJyDRRzYAxiU1cQcowdUwLSJuQWfA6N+qH5UWpUSCkkpqedBgLxjmDfaguqMktBpui/EhKi2JNwKMrkm5EGmDbVoCBhSWE0Bndr8NtXz/pj3bsCbfUDkuxClEYvPogEqMq+mZaOITjPqV4SVWkDanEjd4GAqwIMdj0K/U2wvBuBBAmkvjhqmMtze7cHPssJwHif14zVHEiC/nH1bS4MrwgClFwebgoH8jDjuPdgpLqFj5Srp2CZmbvOQp2PtHJJQBjzYudkdmdiIA9MyWg7FA9A8tp3WvD1cKZTDPf9vV4F8TwIyjeoFaQEIL/rJyjPtN+1tKPbNac2E2n81Vu0qEEH8a/sAbwJh4n8hITQjI9X+/02jDdezr0+cT+FbfN11dfu/vT38uye+HE+n8Zq5/O7vlfZqvJPK428=);lineShape=1;" vertex="1" parent="1">
                    <mxGeometry x="458.56019019776375" y="194.25063715282448" width="22.284172517145635" height="28.830373255787322" as="geometry"/>
                </mxCell>
                <mxCell id="83" value="" style="shape=stencil(rVbLbhsxDPyavRISqefZTf7DQJx6Edc2HOf19+V2oa0l2ZMa6G1X4kgkhxxqkNXrdn3cDGxez6fDy+ZjfDpvB/kxMI/77eY0nvVrkIdBVs+H0+bn6fC2f5r/j+vJcvr6dXifTviccZZJeEKx+ZpXPIn/s/A42+/G/YU9J/JS2TuKwN4bSrmyZ+J42z4FsrU/hoy5bZ8N+dCcHxjYu9Z/a4jRBZFCDWBL2QFAJm8rgIRyxFWANUuICwdM0cIrTO1TSOXS64BQziuApLwDGrIQ17RlpgSiTplsfUNOlEDUyRWeFkCGQSflKdUALdV0GxBDWxpaXAKojlJCLABdccClyGV7IS6RQS51AKfFdJdLrFEB4uKyvdS3UMg4rTXTDjZQz9tywD8WhiV7V+VFsgGXdu2P1Y7F/dk0j1jygIMr/ekiCe7PRgKCkIAkTSJTBxG1kFCWOhnTPCfkUqeTeidyqRfiizz8J0Q/HNSpCESjnz6qAQzGTz/eNHMBAHKZfou9wHmo7eZbHjyoPkemjjipxIB247Z7oooeaAfTdkPwUIb70YNFtW8FLBedP+JgO3fxTnIE/O/yaZUR4H/Hl45/h+SlrYcAy+fe59T39vrx9+32PO5289Pvcr996+nS/E6Uh98=);lineShape=1;" vertex="1" parent="1">
                    <mxGeometry x="482.79049887459803" y="194.63667380124656" width="17.36728259014626" height="4.827495903366298" as="geometry"/>
                </mxCell>
                <mxCell id="84" value="" style="shape=stencil(nVfLbttADPwaXwnucp/nNP2PAHFqo24cOO7r70tBXTekpDHQmyzviEtyZpa7k4f3w9Pbfhf5/Xo5f93/PD5fDzv5tIvx+HrYX45XfdrJ404eXs6X/ZfL+fvr8/z77WlaOT19O/+YvvBrxsVI3CdU5N/zmzpefJ7Xn46vdn0JZn3IxBEAEnUxgChUyjZAMlUHaJTBljJTbx5QZBtQOiW2gE45bAOakGQDEKEEcuhCzVYpRYoJABpVu6WsVeJtQGAmtohSKIKsNURwna5UGkxCogG0ShWViUdRBqAXmHWJgwk3QCcGW0qVGntAQ+zLlG3nPhRuHcFUow+RAP1CIbF17XUQch0gxJYcPVMBZQpK8GQBETZCAW5L7U4OgZLVXNOsAJk0B6dq1cjfSq8DlGu2EU1jgqTVaBxdlV6I35NxVQ9gEEEC1UWEDqihztRcDnHIdh3QqLkqZYoV8FsVZKnRGgnIYQI4tgbKIMK0JWuWPY3ObCXtOq30Rn3QsvaFRhmYpTbOdVoBHVNDFhEqSFrJV23jOj5SQlpItFBGdqxktuRT96xIQOzPoM6wcZMJOGrUcSqtAyJ1x9Y02LVpZHZLSm8GEdQq3SygAsrYjZM1sqqdRtNG9r50B5Cbd28FCDBjnQXERUjQjCt7Pei5m0DSCog26VzxlnSgshH02Ct4AEpWQEm3BCJIHcZ4A6jKkUSXEQSaQBsz4W1g0kkAFClQseuj6g18n73X6xQqoESLYanC+U1bZqWToc8HCq6c8OCJw3tuyULlJ8r264EELC/UbGkYzrbdSxIfmuoqgf16VJrkB1uG5A/V30e0uKBToVNwtwWKyFF4SOnGzOEY6+vDYjCHrvsf96k76/Xh3+Xt5Xg6zXe/j//7y56+mi+K8vgH);lineShape=1;" vertex="1" parent="1">
                    <mxGeometry x="483.5552680424761" y="196.51817614283442" width="19.998468016115567" height="30.219468210081345" as="geometry"/>
                </mxCell>
                <mxCell id="85" value="" style="shape=stencil(fVbLctswDPwaXXdIgA/wnKb/kZnYsaaunXHcNvn7QFHkGpSNG0XtSngslhz44W339LoZKLydT8dfm3/j83k38I+BaDzsNqfxrKuBHwd+2B5Pm5fT8c/heX5+fZqQ0+r38e/0hfeZRwHUJhaFj++diJC/dn7OhP14uCYISAwhKiHcJ3ADWwJDHHwmJDZ4DdHBl4JQOnyu9/FVINngE6Tdx0tDsvhIKA6hFVRL0IyjE1EMYangpUQZFJ1frHOobtKNkcgQsqA5bZbUt7kIokOo1Le56ifI6bMG0BEKskNIGWn1B09JzKscGqg42maUaglhaf7tzlWUrg+qdieHmCFWrFwR2CEIkg1pkqs3n3mp+kWuCUGcKmlZo5UGxIlIldZszgHNKWqJyD3e8wttarUZM0JylFpAyeDbMn+3R0G/b/GxuU1u+rqbzojoTacGYFuQGNkj5F53OYO9kJQgK4JTJE26WFMtGdUzsQCxIVUlODmoYRRbJd3xxlmnnSyhxaVu94w+WiGp04pjelqTYJPWznjOPbXJhnRlzbeHh/ppa9X1JD1dpVMru8ebHjadTargkzPPqyrpgRc8S0LtlCFgZ/5XZ1Wu3Umii//Xje2438+3lev3/fVEt+arDT9+Ag==);lineShape=1;" vertex="1" parent="1">
                    <mxGeometry x="511.83697678100486" y="217.44148990948094" width="4.724195677876196" height="5.193959999931963" as="geometry"/>
                </mxCell>
                <mxCell id="86" value="" style="shape=stencil(fZbdcgIhDIWfZm8zQAg/17Z9j85U606tdqz9e/tmZ0c0uJ47xP0I5JwEBl59bp8/1kNwn6fj4W39M76ctgM/DCGM++36OJ50NPDjwKvN4bh+PR6+9i/z74/n6ctp9H74nlb4nbmSKZeJCu5vngmZ6jzzNAO7cX8FVKEsBuBKrgKg9oAE8gkCbLeUhEoEQKSUDZDLeWYRKIl8MEDRmHwfyBrBG6Amyu4+kDxxMoB3jhwgYu7TVAsVkFcWCs4CTBEoF4RctKeOxHIf8IXYpikHikAIf+MNUW94AGSSaoAoFIE3AlOyeWU+p2E5S9yfQZcQILVuQOwZdJNoS9Ls3wA5u2XZTIHECqeJ9kDpSaauRiNVcAY1QhdBzeLBli5WazpkSsBLV25uRaqWRyFawTQzRRIQYirJzq5atkBqLfouwqUxLBepthWb10vrWZY6UOAeyKCCtDV625mm9gmUC4Wc3VLJMMIE1BsA2FW9JraVlQB7n3c9oMKhCLEvIM1zBPZ25/umNQ1tVEC2G+fFCC8g398O2hNQuQlVu752DBfA+q0ptnqO5JFmeuIuo9DY7KjY71UxdJV4EntifPWorW++R/dC4t7V3DlIB5cHx2bc7eb3yvX//QNFp+bHDT/+Aw==);lineShape=1;" vertex="1" parent="1">
                    <mxGeometry x="532.7582757838821" y="128.37239070558945" width="4.672539772115215" height="4.665236216357812" as="geometry"/>
                </mxCell>
                <mxCell id="91" value="" style="shape=stencil(lVjZctswDPwav2JI8MRzmv5HZuLUnrp2xnF6/H2hesiIkLSdvDkKlsS1C0i78PB2eHrd79i93a6X7/tfx+fbYRe+7JiP58P+erzpr1143IWHl8t1/+16eT8/3/9+fZosp18/Lj+nE37fcY6cm0Ds/twfCJP4f0++3u1Px/PMninUwb4IxbxtHyiX0d5RAPaJXBrss6cI/MlUwmCfmFLctq9URn9ioMLb9t4T+wEQEiXgkI8UeQDonT6BjGqKZAD4TBmEoA74sQYCUxT7cT1mKqgE6u8YgadUQAkq1dGf3lTrJXCtYz7Oz8BeO5LZxJtBvKL+jyXTFEeQUBFKYwUCkwcA7xa0idyStnWFjH2XPEmAgDwGoUTIFUYtC6ahzlZAGKmmhfHIpdQc6HUIkGsSyY95nY4AVBDNial0IQatV6V53AGVGMRQM3lnAREBQiPvzKUKYtAkmmaSDLNU6iKtEWapFMom6K7KW4BkKq3tiG6ojS8dUKAkadBGJWtqwr8OYBt0jcQoraq6BoCbr2pa2QKgzOigWbgEZSO0RpgFLUBYtfvj2BrqJFJK7RyrfK6RdusGMb3EbeBtUbQYQMIu6XmGD5kqArgVxsHxUOz4mSiKWiOu3ICErHq7xCinHeKDNFGZZSkgThc7ErVZPGgNBZiZqHlDQ1op6gxFKxaBTwNUI0aAPkkAMInAWAedQA7VwbW9YjbjIKdd0+rZtsc4hjqmVdc9B3YHBTiz7sWm5+uAbAG6IqORlaXt17N1j4FLSVoSO6BQAQSK0ujSXVLVAJtAdHbs6sKEbgjBLie64woAcFls0RXqEvcR2AvXtXAdwHZkpQjlXnOSxrTm0HRkfemrVu4LXuG0TEY1tH8LWiv7+JhtAgyaTwHJSGWiggCLtKryIV3yYSGVqhooaE91rLQI3Mi8swRSAIpBdcy8Ljn8vpFbhLMLKvAo2r1Y7QN8JS7RpgjNK287VWuAznftfXNWZLS9OasX2kXoFf2znwD+b68/Pr43vBxPp/vnivn/7fcJfXT/thEe/wI=);lineShape=1;" vertex="1" parent="1">
                    <mxGeometry x="538.6656944031682" y="182.86200961395292" width="26.28806926344396" height="32.96494036851095" as="geometry"/>
                </mxCell>
                <mxCell id="92" value="" style="shape=stencil(lVbLbhsxDPyavQ5EUQ/qnKb/ESBObdS1A8fp4+9Ld7FOyHhZ5KbVciRxOENp4ruX7cPzZsrp5Xw6ft/82j2etxN/mXLeHbab0+6so4nvJ757Op42307H18Pj/P38cIm8jH4cf15W+D3jqILlgsrpzzyTwP3fxNc5fr87vIvntvxe4gU9r8e3jmLjaWCMdYDoemQAnCBtHTAYKVlAwQiONBpqMYCSQSUACEYzgErodR1AKfkztYweJTFQ7Ra9IFEA6Gi2blLAHACK32FktAiQULMFCFJAk9SlsNdSv/FwG0Eo1W/BAaB3sEuCQUESyiJZgJ4y4rWrFMQXQiIALSxeS82ogcB1h2odUfPC9FoOYnlVvfbAo108S6wuD/QqqgTnOYpL3UH2SGrSqHBDWbKeY16WuA2ovm/wQInkelXOlSWdiVw9IFbfdcSWU4A9Uteko0YjXt4q+BQUTpN2vU9NSEHhlNZhadXm1iLH9Q+mHmErU2kM9oAc5HABlM8AtDNWu4NeASLrANXmsJXuvBC90o59/24FObIohi2DnjEF3buCnKMFFCgp+wS0A7QoAWRbtNKQAuElZMsoS9iSPtxW6uYexruKZb2Dg3iC2PX11RHd0IzuNLf44raCkJ3zw46tLrcdnlCDcMp++fhS++yL6v/xOnh7vj3t9vv59ff+v3/u6dT8VOT7vw==);lineShape=1;" vertex="1" parent="1">
                    <mxGeometry x="547.9362319464161" y="204.2261204467399" width="15.143109364569227" height="6.158135070239041" as="geometry"/>
                </mxCell>
                <mxCell id="93" value="" style="shape=stencil(lVfLbhsxDPyavRIU9eQ5Tf8jQJzaqGsHjtsmf19uF2tbXO8Eua1ljiQ+ZkgN8eFt+/S6GYTfzqfjz83f3fN5O8Rvg8jusN2cdmf7GuLjEB9ejqfNj9Px9+F5+v36NFqOX7+Of8Yd3idcKKRpRAl/TCuZUv2/8H2y3+8Ot/aJtHb2BsgZACKVHpCEEgbUHpCFcoJX4t6FEkkUALIH1EiMnK6UtQM0ptjWARYTiT2gkoZ1QGLK1QNaWQfkQsmdkElBWCtTkR5gmQFXao1EvNMFXEkD5bgAgLBqmve7AAJFBKgkrQcIVQYApeCulCgDpwMzMfeIAsNkR7TQAxpVUH3aKPdOKM9b3AcsUq0COarRl+t15T7AqrlPhKWGQTFZcXL1JyAfLOzcvA8NMMgqoTgfAqSc1VrIfR4U6kzVBSEqlI3xBMfRTAEIk/lQXfXFmVNrUQq9MI1bIEBdAD6pJV7IBuPSMJHI/kqMVMCqdcHRgPlQgo8Skr6RcQvpa+gEJXXy3aDej7LRi4Becr8qTI6iYe6Ta9K3pKiA8rb9UvEAeMJXAdV6lgNcUnm/BRmBHKcbBCRjcF+tN3J7v48KSfJHVKTfFkWXuQzjWhYtSGGDkLk0b6ob7c9Ue3sbNQrw2OqsJ4PNMgnau3Zlw1IC5FkovU1jAvd3Pd1GmwD91d4+Q7UIPr9GfXCb4IksVOK6efQtIcBWnrzUMbxMoajOXICrzc8uuPSD7Ra8PRqbZQ701R4VzjhmOzLOU/Ha0OxGKUsGaE32sHDdMmJ/C9U+PgkW5pcfLp/a28f1lfSy2++nR9bt//5VZUvTiyw+/gM=);lineShape=1;" vertex="1" parent="1">
                    <mxGeometry x="572.7951116454434" y="182.70958648767837" width="24.232660549025695" height="36.72215287525887" as="geometry"/>
                </mxCell>
                <mxCell id="94" value="" style="shape=stencil(lVfLctswDPwaXTEkwAd4TtP/yEyc2lPXzjju6+8LV6VsMNZ2clNkrAgsFgtmkoe37dPrZuLwdj4dv25+7p7P20k+Tcy7w3Zz2p3taZLHSR5ejqfNl9Px++F5/vv16RJ5efp2/HH5wq8ZVymVC4jD7/lFoBD+vvg8h+93h5vwy8/s4iuxrMeLUGguPkZKaR2QmJhHgOo6IDMl8QCmBgCFqVQPSMQgpWonqAcUSnEdoDySFJUCOKFlYs8SN0hrqyT+BMkUCgAoqS86SX9zH9Co+pRyoopSap31DiiFMmDJAP9IXKRUqaGUlGJ2ADUAA0Ah8dIwogWllCgmD2gkKCXTZhwBBQC0UfYsWZKxAUCl4vtgn2Agb31XdLWUECBT8bQWJcGA6ovO1mkgPkspe7Wm3EdqrehBS1Jw0SY+X4MNUENqfWczZmQRGJ9JI3tpsM00kkbprC81MFU8omlgKVBBgNZZX/oQOg13ATEs5r60mmHnWhuLqOaVeEaLp0kTKcjJaGpe303gQFgjmq/hStxaq/OwggJeci2Mdmx+C1sXSMJHAGpL0ANUobvWSNWLw4YKyc8ay94GbCspOMH26KANDf3M+5vavM8DqkIxmf7zALAaQEq2NesAEGj4ZqXemMzJ0KJOfUHdrKwChGGXmcEpuYvxfgEjQ7l2F7kbH0j98NhAK6g3jD22pR7h94cWS4IuGSh6gzGGC5jNMC4G6yC6u0UqQ3ykBhTE47Zddt1Ke3lYCjA89/m4XoUjmLAP3pz/G24P10v6y26/n+/4t7+Pl3p7Nf9DII9/AA==);lineShape=1;" vertex="1" parent="1">
                    <mxGeometry x="597.028549849478" y="184.99177551204792" width="30.479842104732597" height="6.018364239195307" as="geometry"/>
                </mxCell>
                <mxCell id="95" value="" style="shape=stencil(lVbLctswDPwaXTEkAL7OafofmYlTe+raGcd9/X2hqmxE0tqMb7KMFbHAYsFJHt72T6+7id3b9XL+uvt5eL7uJ/k0MR9O+93lcLWnSR4neXg5X3ZfLufvp+fl9+vTHDk/fTv/mL/wa8GVQsozit3v5U2gEP+++LzEHw+nVbx3jpxrAOzI+21EUWJpAJKJwzYgF0otIERyCQCUfGoAKZHoNiAaR98ASqACOEQmCS3ATsjbgDnj0gIyRdkGaCLtUioUAEASsesBBaTEkYIOAHCCvwWQAvpQ27ri/E9ctzMavp/Ig/hBeda1CONLF6+1K7ebRr7LnykC3XlTRXeAhz1jT7EDOErgBOFBRo4UUFDLOAwnOMCZyZeeA2pyKPV7qyop0F3UQdlCGZC26czDdCrgEKUW8T8gwnEOuWa8UiqypOAotC5po8CAtFrVh3HOACCuWlwFrJz2tvoGm7Qj0Dh4yyn2rBMSU/X11XwGwMGkObTBg3FwxF1RlQLI5954MzBtDcb2ggNttpJqW6FgWgSLZKbcCslsuYD1aQ7QDcMH29MApZ1PvJ9Z+qZprdrWVuj2P0MC4nvVeVgh2/XdIJgrgxZorEvsPV5A/vOi1S4eTY2Zi6Q74pO5l9yRT+beHjFfu+zE3NcTxJvku/rgfs3G1uoH6+He++DH8fbwfvl8ORyPy911/X9/WbVXy0VXHv8A);lineShape=1;" vertex="1" parent="1">
                    <mxGeometry x="612.4462172852349" y="185.47771879737405" width="4.092217626813181" height="28.3057966358258" as="geometry"/>
                </mxCell>
                <mxCell id="96" value="" style="shape=stencil(nVfLctswDPwaXTEkwRfOafofmYlTe+raGcd9/X2haqgIlLSZ9ibTWBIAFwtw4Ie349PrYQju7X67fj38PD3fjwN/GkI4XY6H2+muXwM/Dvzwcr0dvtyu3y/P0+/Xp9Fy/Pp2/THu8GvCOXJuBAX3e1qoQhL+rnye7M+ny8Lek4vGvkSSuG8fKCdjnwMlYJ8pe2MfI0Vg75mCBegWUoFDgaIYgG7BvA/gRNWGzBTLvn3yxNXYzznejrj2EcS2sGlffTt+DiBQlX2AeEq1T1EFEUhuFJg90ksDpBAhnw0gZUogBgVUe0IWCglcs1sTNTUq7h3BNq3KbAeIIYWCJYYEKiiISN5yWxIlwCRxFNgC9MwMrjqRrADIJeVGsVnSu6zApVJIuqAjFQRI5C2ZlF4ZuFSYkqVrLVQxgG3QlakA9qkCRetSESqA30X5bbOkKwyoUR1xp3rcttgGzKI1A0Irwm1AbR4vAahGQyvhhUsfFDWHVdCg5ERdSqu0InpLLxt6cRlVnFC25FNqoItTl3xHb4+zlIg7QGwVsqeVeV1AgHzqMdt7GEsUUYPJrQABsVXF1XJplBlwcVqifU2rkAGpHMls5Vul0iMR4CbWSzEGLei/APYe8lzl2wDfhHHuWZUSOCHn1jTnth5h0Ellq2ujCYpx1LTaoLWzo4pj7lVDZ48IXAplNToIFLJxHLMxZNVzQD6dXcSe8M6uPYDvyOcgwKuoWPIJw6boV1I5VjkCaJa6llWak9uAtKrpShkNxbyaBATqkne9ti4GnG3Z6NV7HKHQFLrSAGkVtc29viVqyA6QOzTaLHSSQU7dan+tZ5BS10+UqmEB2v/bO+Zje/14fzS9nM7n6c21/L9/ZOnS9EDjxz8=);lineShape=1;" vertex="1" parent="1">
                    <mxGeometry x="631.8991829401151" y="189.56935474328844" width="21.775193781920734" height="23.01089731527395" as="geometry"/>
                </mxCell>
                <mxCell id="97" value="" style="shape=stencil(rVbLbhsxDPyavRISKVHSOU3/I0CceBHHDhynbf4+3G53Yyr2FAV6W8sc8TEcUoPcvG7vXjYDh9fT8fC0+Tnen7aDfBuYx/12cxxP9jXI7SA3D4fj5vF4eNvfz79f7ibL6ev58GO64deMi41Cm1Ac3ueTQCH8Pvg+2+/G/Zm9VOLk7JlCuW5fExV/f7QTvg5ogVQ8oFGLAJApsY+oUlMAqKTqAClQk+uAGNaaLIicKIOsWyOJDqCVUgYA7WOqkSIqE5P4MrW4MHOZCKXiPbSynFwGBMrZExFwb5REkr64AElYUbrmsCQiiEkTpdKXKYDm0EhVeiIEcK1rAGdUI+aUKXsP1k0VJZ2p1L5fK2imYkR4gCmiAqqLUuokZJoDxFWm4ts1CpRQNeI8DxEz3ey+LumMFVT6KonCHExyHSDZ3ABVmgA+B7UgkQcLyQuiFKxRWcbK2q02PQFgKqsfZTYXAhI1k/qQpqxAt1priE/apuEfZv4PQDKx17QF2RqYrkrsq1QqReAh2sbxErUgGXiwovvuLry4vGifln2zNobdD4pqo9iTkG3DgHhsw33tVGjfbR+bMAriCf0YlgjzjYuwVm1afYD6ra078SdiNMAodLqhAtctlS5+uHbMezfjrQCof/7xyfN3e/v4fF89jLvd/Dw7/79/j9nR/JaT2w8=);lineShape=1;" vertex="1" parent="1">
                    <mxGeometry x="639.5482131000398" y="204.17336611558886" width="11.60043980015098" height="5.228182968181272" as="geometry"/>
                </mxCell>
                <mxCell id="98" value="" style="shape=stencil(7VnJbtxKDPyauRK9L+cs/xEgTjyInx04zvb3qc6gZZGtKSMPOeY2llUSmyxWF1un+OrL7bvPN6fgvjw9Pny6+X5+/3R7iq9PIZzvb28ez0/4dYpvTvHVh4fHm4+PD1/v31/+/vxu3Dl+/ffwbTzhxwXnu7QwUMH9vFxJRXz9feXtBXB3vtcA3xQgJ3GFAJqkrADFzSvHgCq5akAVxwBFug6p4J0spCLJvKFLagSQJXsFqFiDJ4AkPmqAF98JIEhaAJWF5CQ7DQjiSZaWMuD+QApd5gL3z0/X708zg/sFkOcHqX3JECPekiAnkSTI2XhGjUn8TpzO5yBRoPfr/IClkcbfNedylRCv358l6HqlLoVRzk2CbQAn7YUu0BmNqJgjFYsSkgKMIpIURVRIiwv6opE1xy0lE8BrkKI0XeQohfRADuJ0jtzUmuMe8FZZNpYc3g9KGjUNEkk8tcwe30hE89MWUns/33gMQMk0q6GuiehQy+J0BZBSVuNWJBQN6DykYnka85SCayEF3Tkgdiedjyw13ZpoHSYtz8q229MqaZ3cpOu05jKvHBMJWqtDyigcZ4Y3gDwfcQjoYLLZZtHNhEu9SNFcLYUKvHeLREKyGZl6l6xfUbGTk8r1LEWTqYWpOddWbVQS9CqkEGgII0nPiTsuRJqKsgHgd0hIBdTRlUOmGb/Bta7Z15sU8gaoZDEq4LguoYejt69ozF1Uu1s1KDdZBLY3Y3gACCykJLlYAPORoc4AdgDGPuw+xmFASZgDiEG6WUOZSnIMSLZJW6PWdgB0SIPAJEsxTuHaAJ4WDlu412ntqD2rQ5NoAGmS5RiAHaJaABN8UKNEC2DOcEwM3gI8czJ5Kt1u0XQmiZZLSGtm/RDtolvnDRRtWkENT+QYzqgu5MsMUO1OPTZKAhjeZWlR5lihGqYOo0UJvYd7CRYQmGr0pac3dl1rUSPfyBJjKxqoaXFtlTfQFvGu0oWZ3LjQ20tkMuOtzPRAjTqytLaoY5X+Y0CzPhpsZcNGwhqCzVJi08yiGqgD26jLugOBjsx7lynum9lodNG1W+8AO9PJousyYcExMbnHhGePPrhhStVSA4/IbOiO1sRlbphyt3XAOx1ZdMmWGngnm2kwNlf9Bvj7QupQlpDGzs1CqpZ8Y09igDIbcjNM/LwHHs6MHJBnZsnGQKABVTwRjdSsN8Egx0xiClN5d4Mc2x7icmQFx9W5yhjxHtrJnEO2wzSCZFMTjEDWAAxBgWRpnDVqHUOe2Xz/7yTwAvh3EvjiSSDJz185CaTxWJLmqR5X8mPuh4izw4Zo58kcqeXZ5tmtjzM9X0l2mMT9juRnOVJKiYpjmezd7ziEb5uR2OsQOypZ4g/Upfplphpq/EfTAgCeVAwi0ZclsE0WupWXkNgQNgb6YpNKha7bLkjcywNgfHDiJ1b/59PTSwD8eP7S9eF8d3f5ULb/v/0yhkuXr2rxzS8=);lineShape=1;" vertex="1" parent="1">
                    <mxGeometry x="551.6241031135387" y="89.88068297741445" width="25.957323902343887" height="50.97390582249079" as="geometry"/>
                </mxCell>
                <mxCell id="99" value="" style="shape=stencil(7VjLbhsxDPwaXwlJ1POctv8RIE5jNI0DJ339fWdhaGtR6wlyLXLbbDSm+JghuTu9eXm4fd7vgnt5PR2/7X8d7l4fdvppF8Lh6WF/Orziaaefd3pzfzztv56OP57uzn8/3y4nl6fvx5/LL/w+43yUkBZUcH/Ob1KSdn7z5Qx4PDxdAqpoGAAliJbrgOClxgFQvZRKAFlyHgFFUqaApiOgSm4UUMoIaFKVAnwdAM1J8wSQxLcRgDAwp1XqeKUWehi2AUGCsaASAgE4SdECEnEamS5hApAreeRhsqDkSj6Jeut0ZQCVFizAkUz7YIsPefCkWgHwBuDEk0zDaeNDVcmEQEhcGRmX10BvA4p1OhUJpJZUxY+AGGm1apU4EkgDtYDfC2OUfKOqkRDE0YJ33eY2IFlOKzWQo6WDE+eun4cGuTFtUQqp7Yo0Tw4w9qBsqgHkXovbgCh5BMDlQrLWimQ3hggxZRaaxLHykHhmwbs1iGuUIP+kMGDCthOYIASFE2X0GmxgpddQGGN3KFkSoQ80qI5XAkETKY1cRI2yZqqsOXdpXwFR4hsWRqchY0xZEZM89x9ypYLqGxOHDpdJuRaVaJpupS0RUddqAZkUU0FpTBYaKQ1QdPahkSshr7Zh+R7obUCcuoOKIypTkziTOCgrkxnIkmnrmY4mNfTmsQLAB+aDs/MYOMjmsVKmOQBhJYwr0erMhS5sI6bMLdJDnMitC9eF12xyAINKtnFlOgOONhPX1DvANQvOUA5tlXPUTg6eOg2OOpM5R6+EQTuZObf1etwGpC5DlxxlsjEN94sKvKuN4kpMyeoaxAun2cgHBqVpMI6Mo+8FgBBu1Ht4FRiDUK1jlBBoRxrv8nuj05lPcHXKNNoo61mzbKBR1zfEdazW6PrKcq00THljLmWDMUTAdPZl3CdRytMUCpKz817S6DPWA5ZozJQmqthNGylWTK1xrG6NfbTenouT3YBipvyJvhf/muhGpxmdhj7EObDZXq0PSH36WL8/1u//Yv1GpZmPS9rfbFPaTt4YfNlWBusj3bB7J6Ix08KUch+sr5w3DRcipSyivdGs5yM9H3r01vPa63BbLiSOTEuhM+NKPF225yMb3Cz1cZ6Ot73tXZxXIqjYyn2yALb4eG/XbkQoMAvB7pMANFbT2tvYRc6Yer3/m+zbADz8+wR8f3h8PH9Bvvy//WSMV+fPzfr5Lw==);lineShape=1;" vertex="1" parent="1">
                    <mxGeometry x="587.282521060329" y="90.71844931267772" width="24.731724160320937" height="39.256126401737674" as="geometry"/>
                </mxCell>
                <mxCell id="100" value="" style="shape=stencil(lVbLcsIwDPyaXDW2ZVv2mdL/YIZQMqWECfT191WapsVREM3NGK0taVcbV7g67zenunLmfOna5/q92V72FT5UzjXHfd01F15VuK5wtWu7+qlrX4/b4fdp00f2q5f2rT/hY8BZAm97lDOfPzsQ/PfG4xB/aI5X8clCxiLegDFKPAGV5zuI7nZ8dpBSmY8Bp1yQI+TJBZyiUkHOgFQAMELE2wBrfkscEcGNVc1fkYB8AYgJggYIQK4AJDdmOQ+w4GIB6Bun8RYglTdwkkmpmjLksk3cOK1o8oClMrgqTLcBMYMvqU4RUKE6hpHYEUA4qnce4MGUNYQERktJADyLaVFKLkJQiJNFW4SYl7TVqwMkeeP5Uc6XwrBgFymPwMYl0mbLidp8iuFBtiSFg5n59ASojZuwgIiASpOkyVAalfJPG0sZkpJS75NlDZnUlHojnvTV3LFiYd33EPLjwOR4hWzWsrPTKkxQ+jRjY1lpE4tJWIZTeODTyngiCJrXgynzj6xuxTDklyGoNiyV6tXpEfmgU2Uk6uUdr/RH9JMZJKU/gi+mVxFpr4dSpJygIoelr5H78bz4e/rsmsNheDld/z99KvHW8MzC9Rc=);lineShape=1;" vertex="1" parent="1">
                    <mxGeometry x="600.5096632785952" y="114.37573612665797" width="10.800393745139445" height="3.909371252543451" as="geometry"/>
                </mxCell>
                <mxCell id="101" value="" style="shape=stencil(lVZJchsxDHzNXFEkwQ1nL/9wleVoKorkkmUn+X16MqZsUCJcvs2QaBJLN8CJb162D8+bKbiX0/Hwc/N7fjxtJ76dQpj3281xPuFr4ruJb54Ox82P4+F1/7j+Pz8slsvXr8PbcsKfFecd1bqggvu7rjhy7v/C/Wq/m/ef7EMhyco+Ucpj+8iUtb3HiowBmdv9DRACJT8GlERRNECoGi6JJx8UgIUiG4BIUQNioGIkSQp5ndRYqRQDIOS9zmohF8YA71yfppwp2Ve8e9AAJbewrgNqS0oDVLvUkslrgKCWRuWw3UWNOy3yVWnUOZPJ2XStmULor6iGTxUua76i+ikZANe2z2kqlI1ClEqiAVh51+AI0NEvS2PwdYCQ04VIQmxoDjGUjn5YMW5AlkJH8GiWGnWImn3QnBhBo9Rdn+FzVCMysQZET8ESRCaOGnB2ciSIpGNICNqIAZKrug5obmz1DQTdaZRbJxm5JFoQNbR+Owq6A4izO1PsWxmOyIYecF7V9EZU2ap0Ib4AWH1mAeTvAIrrFYcjLMVBLl5TAwqxKh2xrQG5UDHYiqkpFxIVA4AWoXtASsSGPYaBHg+JGxmvR0Csy4wOYPVJzOSuAUA8cWwPLWp/kDIxWpIj7mZ0pGLQ7mIcImPe8N9R0JSAh7b/3VjwqU27QX5YK1nMKRL70ZnMZoeppvu1t4dae0B9vPGs3Hz3Tfi1PT4+HqBP8263vl8/7/cPViytj12++wc=);lineShape=1;" vertex="1" parent="1">
                    <mxGeometry x="622.7911250673482" y="97.57581491549384" width="21.30849110465806" height="7.546695884490873" as="geometry"/>
                </mxCell>
                <mxCell id="102" value="" style="shape=stencil(lVfLbttADPwaXwe75D7PafofAeLURt04cNzX35eqIddLWVPkJsucJZccDqmNPrzvnt62Gwnv59Px6/bn/vm82+injcj+dbc97c/2tNHHjT68HE/bL6fj99fny++3p8lyevp2/DGd8OuC6x09TigJvy9vKqT9ffH5Yn/Yv97aJ+Qy2IsiCQFESBoAmqAE0CqCDICUIZ0AImoeALlA4zqgFqQ+AEpBISHVxR1qRg/rgHL9ewY0Ra3rgCwI4x16RtJ1gCrKWLcYAgKJqSK30UNFyev2CTJeoVtWSRkiSh3tjSpp3T5A3I2FVs1uNxatGXVJ0axmY4KMWKzI6knRMkohNUZ1JU4zS+7HExYOFJlcOCakugCQisUGER+SkpAsR5r9nRvJkSUpJ59UCkge0AMi4fVEO0cjQWYeBNV5SKjMgwUwZsmInQkgmjgsOod5iBaSA7SZjPcVDE29A0btvGidgkZEW5BcK2caT0AemdoVgZx/FZ6bIld6vm+dBiWtJnPjXu0LhNjnuU1u+qCQPuiIY72s0QpR66iI2QMS68zFTLOImFh/GJACui5CIoAc0cdL25SrJEm5Io2AonOQ9wVS/GphU66TCVIa4siLJPO2cX+kyTwjr7uFIPLJ79I6jS3mofspkvlq0f3gVzRCDNtdHJOEalETf36ka4LpeRgzFOgQNDlP4uyZXE8z2J/PaNoXFQt0aE5aXpx9I/GYEDrpjVSqTZi1u/yzxc7WZdcE13m1MvQX2pjnG605+Ng+/l97e/i3/L/sD4fLt8Pt//5jwV5dPjT08Q8=);lineShape=1;" vertex="1" parent="1">
                    <mxGeometry x="620.9839180882676" y="102.64806936981081" width="19.24939263253964" height="32.01984249927989" as="geometry"/>
                </mxCell>
                <mxCell id="103" value="" style="shape=stencil(lVfZchpBDPyafVVJozmfHec/XGUcqBDjwjjH30cbajdoBprkbdmdRke3jpn04X379LaZAr+fjoevmx+759N20k9TCLvX7ea4O9nTpI+TPrwcjpsvx8PH6/P599vTfHJ++nb4Pv/DzzMuKOU4owL/Or/RSJL+vPl8Bux3r5cAppodIBZqAQKKt5AaVQYA7S2USKq3AcrL5wVQExUQQ0wUPaBUyvU2wDwWH0OOVMttgH0u1QddiBsANApdWu0NyFIJA0AoAJcsidG7pEqSAUCJvYUQqIIY0iANyTDomPssSaQGeIhKKXgAjsFyEsUDzEmg1siUi9cSBYEGtHmiKaGQdWCBQsQp8lJdI7rJAbvzTAFxlnoZMTGQnVVC1y+YEiAgW7yt87+BWs6ZInf5aaCUcyX2fGWYHzuvXkFtUfn184Wky79QBgKyys+DRCvySIiTB1h7AhZSXv7voswC6l6hj/kOIA5JnV1CKo0DyxY0ApgKypBW1LJtinidNtxamJr3KOMIwjAHFw9vjZDkzwvUqXVz9XVvdYM40z7eO3VpbSp056Em1rb2b+er0cNdPgX406wMOpHGpdNcBQivAa7jppCClLbWj31dSbkOsMLxANNtQhasN3uA0dKAhVqHPSFQA1FbWounrQicgEX74q+mdEDEvIn49mJOIgvJli0fQ0ukIAarxNwVP2OxDrtOE0hc7Ne1ajsqaKnS135JMEer9C83VKCLQak2pSvS9jKCLzYvlB9Zeud6XpYMXF+Aib2ILMMNNcd+I7clp6AhSM1rzioTbfCtX7rsvAB/JBB7AmaTQBAyrNdmgYGopfSiNgDa06T1/ctyFFEVGEWlJwEtCvMy7S0YywxUbTQnX8kaYPv6/7vdfYA9/L1Kvuz2+/NN9PJ7f/W0V+drqz7+Bg==);lineShape=1;" vertex="1" parent="1">
                    <mxGeometry x="650.0384822842569" y="108.95374253395126" width="18.868956439392605" height="31.902356522649825" as="geometry"/>
                </mxCell>
                <mxCell id="105" value="" style="shape=stencil(lVbZctswDPwave4QAA/wOU3/IzNxak9dO+O419+XqkaKydbb6ZsiY0MAe4iTPbztn153k4a36+X8eff98HzdT/ZhUj2c9rvL4dqeJnuc7OHlfNl9upy/np6Xv1+f5sr56cv52/wffiw4RQgzSMPP5UVR1Pr7zcel/ng43dSLoUoHiBXZ7gO0IngH0IQQ7wM8QK0DBAjpyAss9QfQ+mqw2tVnCOmnFhTt6kWQlQAqvJ9YHKFQQM79BBEeaEuhB5hAWEsKKz0gwzJZah5Zs4pKZigOj70uBIkBBFFHQCBD54g0tOQwMnRqyuuFYUbXmhJibwYtqETbKSL0M6jAhJ4wtCSRuif5KFZHJgdkQx6WBCc8l7DK4N1sTsxTmhnSUM9I87QqfxsYyszZRDPIiO6nZqSess1L96w2qE4SXZCEMCZkyxcm7OqQIfAqhHBW45o/G2cRhZzgvorsxgnMnC4joHlNndC8qeYGEAkPM6D8ASCpmnRM7dwihyhjzp+eB69QYn8r0EEatoba3wGG1A/d1KXpPmDmtWe6cZ/I0E3M1n/a5m8FkYbUlaZNroEbruWJ6XgE22tFGYYuEJZIY843+SqbeY3crT4gkX7CupCN5rxG4J36wZ5N7E5YDmPGt0hjX5H/vSD9u749vN/GXg7H43KZu/19vL21V8vNzx5/AQ==);lineShape=1;" vertex="1" parent="1">
                    <mxGeometry x="651.104149023386" y="112.25442291263865" width="10.116232684013085" height="11.19043173218688" as="geometry"/>
                </mxCell>
                <mxCell id="106" value="" style="shape=stencil(lVfZchpBDPwaXlWj0Vx6dpz/cJVxoELAhXGOv48ImV1GC+3y28Kqd3R1S7OSh7fN0+t6FcPb6Xj4vv61fT5tVvJlFeN2v1kftyd7WsnjSh5eDsf1t+Phff98+f36dLY8P/04/Dx/4fcFx4mynlEx/Pn/T6WS//3z9QLYbffXAKVaBoAoid4HRKHSBkAWagIAjcLoUjGX+D5AhNLoUtX+iZuAFIjrAGiVcgUAJU4DQCMFAMiZqownmJPpPqCEnvUphkQpAkCmFsYsWaLBCdWCLr4OAtJahXIcACkRA5dqJh1dkkICKl0rydgaUUlB81ld8wjgRg1UukVfuEzcoH3jMQRYhZZIxu8z9qd4ugWqIOCmFL09g5pZW7K3D6ApNJFWZ58LsK/LeDOIV42I2eUzgHjNXkfeJKqAZ2bfxoYokMjaSMf6NorIvvZ0T8SnguJN/fWUHyM2OoB9AMzEgDPNIlAPCAG2nETvkiBAWogd7DnjjIvZxBT1dOwqMnOyYk6mMUXSU3DbXjqlJlUhASVoubfY3NMB+dNIRiENFBFnmGJ09qhg1kOhOXsBGqSlT8fZ/4i+3zpF5vxk0HHGsTr2Q4IaymGKby6wggJ8GmARs6uwyRaSuehDFobDUieKTAATCtTU1Qt1Kp1G97q0uHGcKX0w+8Y2shVAQR1sgXBad563IK1F++urtUjRDsK98SelMLEBMeTQkzhrESaDVL9umiQjBTaxik69bMQiQOxpn6LmvindblcbMWNeLXEQwH7NsVJHULnFAbawVnBA8ILB2KEF3WyLCtBeXNUKJjSx+z7mc/QCafZo0TTqjEuC3WIQdbJvU7MPaPPtbyd7fGNpiwEikDc2gNPCITRCrIN0AWjoliZ+D7SUIsE7Z8QBbKwAYn7+4vgxwB7me+rLdre7XHOv3/t7rf11uRPL418=);lineShape=1;" vertex="1" parent="1">
                    <mxGeometry x="209.6932591402283" y="277.68426228029466" width="24.782074036983886" height="39.80150829206559" as="geometry"/>
                </mxCell>
                <mxCell id="107" value="" style="shape=stencil(lVfLctswDPwaXzEkSILkOU3/IzNxak9dO+M4ffx9oapMDMjapjc9uBIB7GLBTbp72T08bzccXi7n09ftj/3jZbdJnzbM++Nue95f9GqT7jfp7ul03n45n16Pj/P988O0crr6dvo+feHnjBOm3iYUh1/zk5go1z9PPs+Aw/54BcidcvSAv5+4CUiNWCygU2IAYApsANxJ0jqAK0kwgJzhlrhQSwZQEpUIAJnYbkkitQwAiapNa80jqttB6+tsAY06AORKuRhAC1TKOkB3LAtABZVujWK3gEgVZKkzlWoBTNIBQIht0C1TAUH3Rs1WulUKYR0QQxjv3xCdGtpTp2oBGlYTAKjUbRC9kKAglJxWQfqJBujawwKgCgIxNKFkC3GVh9sIraz4XwhgU62+1lqbBNik/GerOa1+AluqTNEVIuEtRcoOEEYtV//gCF5HGtZicL2vFYqgDWiWmgMkikBCKhjXBrQyiK5aaq/qSAXxO1JciJQRvzVE9jE00I6VCMGlVcYnViVnyaetp4PCKaA78kWsoEZi27GKsAIuKTddHVSjjLbEw9Ou9IA8SKm2FDUKWrPO1QMa6t//C5A+DOSDMZTqqaEAlNacKIlPKypcCqNHXDVXBIhC2ZJvciWgBxnN/aoHoGFD5eOMvUOPW/iPVOi60adUcOdmqm6UwfrPY7p7m5WwR8vIxlifErZoP1rpHwV0vJh9A9MSwvEw+HlSRyfEOfUlKzTlFOjZOif14tajAohmtLn1qNuJDAK/r0fjgqoy2IzG8cPbnqOmZxWgBUYepZbTfD7xejeDlTF+r63vltF1DNNr67OzwGGia7a/GHaIEaO7T1BUyQAHnBTrzkjaUxCFiheZnpEi2hJ7Q/vHKewDxza9eD/0Pe0Ph/nMeP3eHxL10XzATPe/AQ==);lineShape=1;" vertex="1" parent="1">
                    <mxGeometry x="236.9552331656746" y="296.1827787939983" width="20.632945499151447" height="32.09230462074106" as="geometry"/>
                </mxCell>
                <mxCell id="108" value="" style="shape=stencil(lVbLbhsxDPyavQ4kknrwnKb/ESBObdS1A8dpm78Pt4tFTLlmkJtWy9FjOENq4ruX7cPzZqL0cj4df27+7B7P24m/TUS7w3Zz2p1tNPH9xHdPx9Pmx+n4enhcvp8f5sh59Ov4e17h74IjBtOMovS2zGSk9G/i+xK/3x0u4juji4snAbcAoFeADuHbABX04gBcoBoAOrg6gFRQcKSc0nrHFVE6cg+2UBR1gJYg0Znaut4K6Bka8KqM5POgGUQBrw3F02R7SpSIDGaf6Q8e/otoBckjjOoitwFVQZ4muxaVACBofocuqEEiakbPPhGMFtBU06gmW6IE8rPf6vUqCo6OJNDm9fopS9VfmhNywJLlQbw2yDITqM9SPdBqNu/BHUxMOuxQUWso10FMzMiRqxvYS0MINYeWq95BRZBjgPoyUGtcaMzzg6k7KKoCgjKYuq+ZuVX7xAO0oEV5YIgX30xDZNG2CuECEFUBA+T0FUC2S3tAo1UsN6oryANM8D1yHGSItw4QbHAlPSveFHCUkb0/SwIH/rSiOBQAs1MgvKtmwoQenid5nVoHjaxjxvLxuYb3rWPr0bhVQT2dcT83PZCvwMZvwGbuaP74cdP56oPk83gbfLx+nnb7/fJ4uvw/vpZsanlp8f07);lineShape=1;" vertex="1" parent="1">
                    <mxGeometry x="243.7673546381452" y="309.75521121520705" width="10.099110041359836" height="5.1994918446852125" as="geometry"/>
                </mxCell>
                <mxCell id="109" value="" style="shape=stencil(lVfZctswDPwav2JI8AKe0/Q/MhOn8TSNM47T4+8L16UiQtJm8ibLXOHaBcBdunl9vHvZ7zi8nk/H7/tfh/vz4y592TEfnh/3p8PZnnbpdpduHo6n/bfT8e35/vr75e5y8vL04/jz8oXfV1wtlOIFxeHP9Y2Stn8vvl7PPx2eZ+dLIa3D+Rj6m1VAFmIdAYVq3AYkoRgGABcqCJAoji6lSJW3ASwkY8xmE1ngTE0GQK4UFAAiMQ+AkqiVbUBUinkA1ECcIOB/mSZAI0UuVUqjSy13J9fTugRUUpCl3KiNlW5KFbhUlEoaAMLEsg1okZIDZCphGyBKYay0VAhQJhmDlkYB0FurZ6sY4YGA1Kg2WtBAAbmkJGPQ5mRAFgwwUkOt0igGoToKyKJKgK26oIZ9IgIuaepymQBKCcRghfNtyQgPqCHWx8QDBJBPIrXgARHUoVmWXFpb/8Q6oFJ1FgpJBoBCzQWdPrLg0xphI2vNB22JRgAJvUwzPShSXFoIqJIALsnSpUoZ0dtC1IUFJKDis2Q2IaB5xV3oCMini0ZmTiaguBgmzc9KXUC/NxO8IFNFPjViR6ZGBQGsSYwjyGwGJOrQ5/hccqjUtXv8vjvg3vd5RDXFsA87AtEVW19c7fBMuewnLuwI2cGTAGYjIgHRRVs3FmMuoUHqPbJeFUAhFuSrCkO2VWQMoAic0+xrUCJFIOnquZ2nlW5DPhRHRafcq7iVUbe1coMZspDdlLY3KASLoY41M5tIPba1OvVIH6rr29W0Gk0xw85d2H8/9PVsvQZMObnzKEM1++n2gTCrJ3Xo/Wb9vPTdceY/4ERbTKoIG6rtkq61MNRAY9/jE7zG2Hlxd4Z+69g67+Zghfyx8261bVAzlh/fhbqI1vOvnm82DUA+7fqR3YDqilg//8mL58fn7eH9lvtweHq6XpLn//tbsb263qjT7V8=);lineShape=1;" vertex="1" parent="1">
                    <mxGeometry x="259.2391962163729" y="291.26656439550334" width="23.126050955384017" height="41.47583275541513" as="geometry"/>
                </mxCell>
                <mxCell id="112" value="" style="shape=stencil(fdHbDoMgDADQr+G14Srw7Nx/mIiTzIlBd/v7QUg2cZG30vaQtEWsXoZ2NojiZfXuap62WwfETohSOw3G2zVEiDWI1b3z5uLdferSe25jZ4xu7hF/eCWHAeOIKH6nBMHf1DmB0U4bQEHRDGgBFTnuJwqEzoDUwOUxYKHMMyA0yALgEojKAQFdABUFTTLAKuCFmZUAmgMigLDC0Phvr/uthuB3k96OYzrptr6/YUil+7PmAw==);fillColor=none;rotation=50;" vertex="1" parent="1">
                    <mxGeometry x="675.877001953125" y="94.81704010009766" width="29.58331298828125" height="31.666664123535156" as="geometry"/>
                </mxCell>
                <mxCell id="113" value="" style="shape=stencil(lVRJcoNADHwN164Zadaz4/zDVcYxFWJcmGy/D4RAULCV8k2I7tHWUsGby3F3Lgsyl65tnsv3at8dC34oiKrTsWyrrrcK3ha8OTRt+dQ2r6f9+H3eDcjBemnehhc+Rh4ZxDywyHyOHgNjvh2PI76uTirewaR78NYh5NsEG+GMIDDBRIXgkLwkZJAWwSIlQfAWnm8TErIV+ECI4TbeIzuBj3byXO8RcpT4BKO8P09oxmd4peA1PsDQHfmEgKTkH5FJ9tMjWGUAjBSkhhisjHgtIrawWgUJUY6sf8IpKfWSCbJHvUpIieAJTjbJqTMIc4VzAHUGkUBSpATvFY0akCwgq2uWIizLfDKysviZpy1c7GVQMsppKnDukJ+Ecl0WZiXUYNWcrjDSP9dlzVi4fii98XsuD1Vdj9d2+f/vee1d42nm7Rc=);fillColor=none;rotation=85;" vertex="1" parent="1">
                    <mxGeometry x="705.4561279296876" y="101.22037597656251" width="10.5208740234375" height="20.416664123535156" as="geometry"/>
                </mxCell>
                <mxCell id="169" style="edgeStyle=none;html=1;" edge="1" parent="1" source="115" target="170">
                    <mxGeometry relative="1" as="geometry">
                        <mxPoint x="930" y="100.32000000000009" as="targetPoint"/>
                    </mxGeometry>
                </mxCell>
                <mxCell id="115" value="CUMPLEAÑOS PEPE" style="text;html=1;align=center;verticalAlign=middle;resizable=0;points=[];autosize=1;strokeColor=none;fillColor=none;" vertex="1" parent="1">
                    <mxGeometry x="725.88" y="85.32000000000001" width="140" height="30" as="geometry"/>
                </mxCell>
                <mxCell id="121" value="" style="endArrow=classic;html=1;" edge="1" parent="1">
                    <mxGeometry width="50" height="50" relative="1" as="geometry">
                        <mxPoint x="666.11" y="203.58" as="sourcePoint"/>
                        <mxPoint x="748.14" y="201.86" as="targetPoint"/>
                    </mxGeometry>
                </mxCell>
                <mxCell id="171" style="edgeStyle=none;html=1;" edge="1" parent="1" source="122" target="172">
                    <mxGeometry relative="1" as="geometry">
                        <mxPoint x="906.14" y="202.03" as="targetPoint"/>
                    </mxGeometry>
                </mxCell>
                <mxCell id="122" value="2° PARCIAL" style="text;html=1;strokeColor=none;fillColor=none;align=center;verticalAlign=middle;whiteSpace=wrap;rounded=0;" vertex="1" parent="1">
                    <mxGeometry x="758.14" y="187.03" width="60" height="30" as="geometry"/>
                </mxCell>
                <mxCell id="141" value="" style="shape=stencil(7VjJUhsxEP0aX7u0tqQzSf6DKkxwhWAKyPb3eRMzg9XyPONbDlRxGMb9Rr283rSJV89314/bTXDPL0/7b9tfu5uXu038tAlh93C3fdq94GkTP2/i1e3+afv1af/j4ebw/+P1JDk9fd//nL7w+4DzUQCZ/tyfwxutktu/N18OgPvdwzEgSNEOUJqURABRvOsANUiI9ITmewA+USkg1h6QxDGAlxwsoBYCcBJbD8iS/TqgictWvuV1+SLZWKDUZBWnl8inOabv1AesGPRn9gbxlzlUglp5FjEnxXyfU8JJTpdwzonrOVq8FK5PT1FFWhB7cXovnxfOrsTL5Ezi+qjlW/QzY0/KV2svNIwsJ534/gCPABMCIettBCQx+WY9hA8QeWSM7xmEkBMDos5F6k3+1QWnA4B86uW9JF2Xz5Dv9U/SyPc1S+gzcikZpwtEGvSJUonBIHwsPQB1mmhUm8T+hDcfn65xyZoAJ782k9OAMrtw8VGWSljaBpVylsQKuxsSWRct146ovREl8Mo+6ARPUzcNVjeluYmftT8BnyjshCy+D3Wr3K/RJhusUnaCk2bI5Hj+1Cpa7BGsI6CBZbWAwAAoQGqtDoQcaBklW79SG6INNTydmUpRtG/jyBFPMgI2mL7WglQGUJvVDY2BFfql7B4BKF2dLZRT8IlbQSaTcjiBBQ5OtIBA44CEMONaW2bK1ZTzNg6s+wCQjVvzPISuqdRM+S4SWe3LQ6QrbXAwsQ05Sm0AEaIFNDKYo+CnEUCoUcs8Qx0BMmNrHtiKskBsmKbAIUWZ0VOKmjgo7aMApCFF2b5zOSDbBalyek+A3ktoQYkDWq+SLnVkNQ69WzGuFELvabru3ZqKNDJtlKGNRs7Wku0EHZcZ+TTAzfm1jCdKR2hFMe5VwgiX2QiX54l2aXKFzg6YyVN/guelEjOeGYobHWcwlBvueZ2PXJuiaw/AGJ0IM2Ch4R7CQHdttTUgYV4iZPVDtcfqw1ZPLBahDzQi6dkuGe28dGZ5+7iRmKvIx43Ef3wjYTL5zDWbm/P8nfd4TtTcYBRRVinsvq1K10n0vL5OYONlC/HQcaYNmfAhzdPTUQ+sbOG2/Ic86wbF8vOMPPJrkGf6IIHNYH7GYJQIGzHuUT90jzMhQ120MTvDiYsvj88D8PB2V327u78/XHUf/27vtvHqcC8eP/8F);lineShape=1;" vertex="1" parent="1">
                    <mxGeometry x="382.4631650421476" y="18.503452280016973" width="27.77109639536002" height="43.817905679646174" as="geometry"/>
                </mxCell>
                <mxCell id="142" value="" style="shape=stencil(rVbbTiMxDP2aebXiONdnFv6jEoWOttuiUnbh7/EwGmji2bNU2rd06hNfzrHjQW6ed5un7eDd8/l0/Ln9M96fd4P8GLwfD7vtaTzraZDbQW4ejqft4+n4criffz9tJsvp9Ov4e7rhdcaxp1gnlHdv8xeh6D4+3M32+/FwYS+RJDf2gYL/u310lKS73wH7kkhKY+/IgXiqoxwae08J3F9DHw878shBptQm7JlqAIBK0bcZp8XnKoDdZ4oLInrKDF242ABSoYgAiXJb1eIXHtcBQoEbQPVUQNalknSAQgVkXQLVNmnNCiVdVElt0jUuWlkF5NyXdRIXoDoHklYb+bMM6wBPtaU6FnIoJAMIvJThmyH5RBEQZ5NmoVSvKWuADTTx1hKt/YPuN8Jg4quUl4nTNdJm7Vjcn13zCMORt9KfIS9JfXMEJCEBRbJDJquQUJXMGNM6FxSSzskWoD5RSHYQX9ThPyHs46BsVtA/9vXRGRABwD5v6gGRrcyl3gEDNan6uimG5R2Iu0EcqIB4PHEr1pzgSDI0J7UHNNunJ1IC8dhWCFBGJh4R+FKZfKd9BBBs6snKF4jH8IVfKSMHZSteIze8Tf3bXg9fq9vDuN/Pm9/l//2qp5/mNVFu3wE=);lineShape=1;" vertex="1" parent="1">
                    <mxGeometry x="390.62" y="38.19" width="16.41" height="5.94" as="geometry"/>
                </mxCell>
                <mxCell id="143" value="" style="shape=stencil(fZbdcgIhDIWfZm8zQAg/17Z9j85U606tdqz9e/tmZ0c0uJ47xP0I5JwEBl59bp8/1kNwn6fj4W39M76ctgM/DCGM++36OJ50NPDjwKvN4bh+PR6+9i/z74/n6ctp9H74nlb4nbmSKZeJCu5vngmZ6jzzNAO7cX8FVKEsBuBKrgKg9oAE8gkCbLeUhEoEQKSUDZDLeWYRKIl8MEDRmHwfyBrBG6Amyu4+kDxxMoB3jhwgYu7TVAsVkFcWCs4CTBEoF4RctKeOxHIf8IXYpikHikAIf+MNUW94AGSSaoAoFIE3AlOyeWU+p2E5S9yfQZcQILVuQOwZdJNoS9Ls3wA5u2XZTIHECqeJ9kDpSaauRiNVcAY1QhdBzeLBli5WazpkSsBLV25uRaqWRyFawTQzRRIQYirJzq5atkBqLfouwqUxLBepthWb10vrWZY6UOAeyKCCtDV625mm9gmUC4Wc3VLJMMIE1BsA2FW9JraVlQB7n3c9oMKhCLEvIM1zBPZ25/umNQ1tVEC2G+fFCC8g398O2hNQuQlVu752DBfA+q0ptnqO5JFmeuIuo9DY7KjY71UxdJV4EntifPWorW++R/dC4t7V3DlIB5cHx2bc7eb3yvX//QNFp+bHDT/+Aw==);lineShape=1;" vertex="1" parent="1">
                    <mxGeometry x="419.72496279560085" y="61.43236018801133" width="4.672539772115215" height="4.665236216357812" as="geometry"/>
                </mxCell>
                <mxCell id="144" value="" style="shape=stencil(rVfLbhsxDPwaXwlJlCjqnKb/ESBObdS1A8fp4+/LravtimtPUaC39ZqzIofDhzb88LZ7et1uUni7nE+ft9/2z5fdhj9sUtofd9vz/mJPG37c8MPL6bz9dD69H5+vv1+fJsvp6cvp6/SF71dcpBgnUAo/fr8QCvXXm49X+8P+uLAvlMNoHyiU+/aRKeoAYEr5vr0d0Opgb98P9+1ZqBZnnxrwP1BMg710Bm7bK1X2BBW5D5BEsQ2A1EgAoxKojh7lQhFQai6lMWclkQKOSqGQx5gxqVmpjC5ViwoBMlUZABpIkEtCbdSRRip8H2AOyBiDmpAQQIlHQJszcxtQvTLUEgekYYAwSluFVKFLadSSZkoAYCRmR2uiAGIwTgr7PCBadRV0bVSBWlsgLR6gwKWWiVcuIZZapRR80JIAoFEUT2tDPSnM8p8RFabajnDqMx4Y8Nq018tCfYqCKL2rzICMAalLZwZYJ0Op1l6RCwCq0YnFuDoBydVKuPkYGqrR5vNgUTWgPis5N34sDwXEUKUrYZHpiruA68Za4ICoc5NYyLWCAWF/51VBoKDNAR1ptTMRrbpyaSpqUBDNWmnyLmUQgwnBF3WEMVg9iDsh987zfwCWOHGDOuApJ5GyqyCFQWTuY3ZREKhGbbfwY7FRQdsPU3bdVfC6ZFNuXJfE9jcgV7Z2PAZd8LbBVqNuPWE4g7ItYKNLbH0BtA22VLuNKfXt4DaASUaWYukz4zZL0dM6LXFoQojPtLmUwQnmgBu8lkoBQdte7Io62Q6FToi+k027OJpZflCbPWoCdZWF0lvhnZuAGyf2hpHyqEYfMMpB6tNswWgG1WlNdBzR0xdADwu+59kbtKevdobY4E4cOhuzfYWr2L/exP5ubw9/rn0v+8Phemtc/u+vifbqesXkx58=);lineShape=1;" vertex="1" parent="1">
                    <mxGeometry x="443.8308449112202" y="25.452755792636253" width="24.490244788943983" height="33.473037266377105" as="geometry"/>
                </mxCell>
                <mxCell id="145" value="" style="shape=stencil(rVbLbttADPwaXQnucp/nNP2PAHFqo64dOO7r70tBWNWk5QEK9CatOCI5HHI5ydPH/uV9N0X+uF7OX3c/D6/X/SSfphgPp/3ucrjq0yTPkzy9nS+7L5fz99Pr8v7+MlvOT9/OP+Y//FpwMVDtMyry7+WkUVsOPi/2x8Pp1r4TB2MvgUJ+DJBGUQwgdYoAoJ9rNoDCFMpjQNGQigUkaukxoFXiZgGZJDwG9EDRAQoJ8NCzZ2kOsgFAHawPQBWKyEOnwhbQSJCHTr3aQss42QY06pbW1ikJABQq1kNPFJAHIbEelIYK6qABiJXGTANIumkdqgc0oKXG1G2llQZUh1opdZ90Bw1U050HpgT6QYVQbaXnrJAHoeakoYUDLNU8GnIFJIoMk+538m4A0AJlG5I2UEV1yFTcENAWBVpSafiQMgxJxdechwoLp9pkx5LOzgg7Lljx1UIZeAjMxK7UkQJKQgubLKBSAbxqEtm1XBzy2gakO4C2OaKJqdp5r0FG1NTFa+OGh/+EUC04dWhbI3WkPMbEChB4RcTiATqPIyp2IokGkBWAWsIP/BTh/NZJZqUxn4D/87jGV1JVKyDjO60GGSQ/sM8238Cwo8MQ8koobAUZP1vpGXf2pnmm7NiB93PzKwZTAa2vqVVvj/Sp1DlFM7x1QqHgyIT7SGiUbDwytrJtNfPYJVZxwnbZ2iL7P9rbrVMf/q6sb4fjcdl4b7/7FVePlvVYnv8A);lineShape=1;" vertex="1" parent="1">
                    <mxGeometry x="468.8275262941604" y="28.858996863954758" width="19.32504543957657" height="14.724542790204737" as="geometry"/>
                </mxCell>
                <mxCell id="146" value="" style="shape=stencil(lVbbctNADP0av2p2V9rbcyn/0ZmmxENIOmmA9u+R8azxys4B3hxHx7odHWngh7fj0+thCO7tdr18Pfwcn2/HgT8NIYzn4+E63vRp4MeBH14u18OX6+X7+Xn+/fo0WU5P3y4/pi+8zzjvHDk3wYL7mF8J5fr7xecZcBrPK0ANJL6zD4Gy3AeURNw74ErOA0Ck0nuQSjEAAFPtPSRPDuSQC8XYAbIQg5Byolo7gGYlDD3k3AFqpJigh9TnUBef+wBHkXtAoQA8aE2C8VApxPuAqerVAgoAsEbcN27Frl2Eck2KdZHyfYBnSsFmXUHnIknq7TMVEJFrGa7aIIDdjoLps8C2cRuuxZ5blfcTViZLD9ABRCX1rakLwDem7EfExMkCXAG8SOT9BgByiIX8NiTQ5aRM5k3SaHoihWLLing0KYABRHIIkCkbQIKilANVk7QyD82nUDJlVWoDQNQUTZUqZUAN8eT7Tv91PrVMG80ogEx+I5STyCBltVo/qRiIyG+qmuD8b7ab9llAn3ftwTBwy261GBj1gGpPI908DtGIpK9nUoVCeuHaXlotT7TavNhdyKVR/V6LjV7oASAopGIlTODk+GXbLxFhxdMe9DUKLcJ9+2rlyJPgtZb7krr2Yr/F0e4oXRJghcSNeOGhTNGOsdqjW0SFxX6fgX3Z1BNTrjorEp4SqL9OVOl3Zmi3z7699ssckPhG+N+T9h8A+vDngn4ZT6f5AF//by9ufTVf6/z4Cw==);lineShape=1;" vertex="1" parent="1">
                    <mxGeometry x="486.9169103600641" y="23.535836638946535" width="4.134328756618288" height="36.27824071344298" as="geometry"/>
                </mxCell>
                <mxCell id="147" value="" style="shape=stencil(fZbdcgIhDIWfZm8zQAg/17Z9j85U606tdqz9e/tmZ0c0uJ47xP0I5JwEBl59bp8/1kNwn6fj4W39M76ctgM/DCGM++36OJ50NPDjwKvN4bh+PR6+9i/z74/n6ctp9H74nlb4nbmSKZeJCu5vngmZ6jzzNAO7cX8FVKEsBuBKrgKg9oAE8gkCbLeUhEoEQKSUDZDLeWYRKIl8MEDRmHwfyBrBG6Amyu4+kDxxMoB3jhwgYu7TVAsVkFcWCs4CTBEoF4RctKeOxHIf8IXYpikHikAIf+MNUW94AGSSaoAoFIE3AlOyeWU+p2E5S9yfQZcQILVuQOwZdJNoS9Ls3wA5u2XZTIHECqeJ9kDpSaauRiNVcAY1QhdBzeLBli5WazpkSsBLV25uRaqWRyFawTQzRRIQYirJzq5atkBqLfouwqUxLBepthWb10vrWZY6UOAeyKCCtDV625mm9gmUC4Wc3VLJMMIE1BsA2FW9JraVlQB7n3c9oMKhCLEvIM1zBPZ25/umNQ1tVEC2G+fFCC8g398O2hNQuQlVu752DBfA+q0ptnqO5JFmeuIuo9DY7KjY71UxdJV4EntifPWorW++R/dC4t7V3DlIB5cHx2bc7eb3yvX//QNFp+bHDT/+Aw==);lineShape=1;" vertex="1" parent="1">
                    <mxGeometry x="510.5582757838822" y="46.432390705589455" width="4.672539772115215" height="4.665236216357812" as="geometry"/>
                </mxCell>
                <mxCell id="155" value="" style="shape=stencil(fdHbDoMgDADQr+G14Srw7Nx/mIiTzIlBd/v7QUg2cZG30vaQtEWsXoZ2NojiZfXuap62WwfETohSOw3G2zVEiDWI1b3z5uLdferSe25jZ4xu7hF/eCWHAeOIKH6nBMHf1DmB0U4bQEHRDGgBFTnuJwqEzoDUwOUxYKHMMyA0yALgEojKAQFdABUFTTLAKuCFmZUAmgMigLDC0Phvr/uthuB3k96OYzrptr6/YUil+7PmAw==);fillColor=none;rotation=50;" vertex="1" parent="1">
                    <mxGeometry x="653.6770019531251" y="12.877040100097659" width="29.58331298828125" height="31.666664123535156" as="geometry"/>
                </mxCell>
                <mxCell id="156" value="" style="shape=stencil(lVRJcoNADHwN164Zadaz4/zDVcYxFWJcmGy/D4RAULCV8k2I7tHWUsGby3F3Lgsyl65tnsv3at8dC34oiKrTsWyrrrcK3ha8OTRt+dQ2r6f9+H3eDcjBemnehhc+Rh4ZxDywyHyOHgNjvh2PI76uTirewaR78NYh5NsEG+GMIDDBRIXgkLwkZJAWwSIlQfAWnm8TErIV+ECI4TbeIzuBj3byXO8RcpT4BKO8P09oxmd4peA1PsDQHfmEgKTkH5FJ9tMjWGUAjBSkhhisjHgtIrawWgUJUY6sf8IpKfWSCbJHvUpIieAJTjbJqTMIc4VzAHUGkUBSpATvFY0akCwgq2uWIizLfDKysviZpy1c7GVQMsppKnDukJ+Ecl0WZiXUYNWcrjDSP9dlzVi4fii98XsuD1Vdj9d2+f/vee1d42nm7Rc=);fillColor=none;rotation=85;" vertex="1" parent="1">
                    <mxGeometry x="683.2561279296876" y="19.28037597656251" width="10.5208740234375" height="20.416664123535156" as="geometry"/>
                </mxCell>
                <mxCell id="167" style="edgeStyle=none;html=1;" edge="1" parent="1" source="157" target="168">
                    <mxGeometry relative="1" as="geometry">
                        <mxPoint x="922.46" y="18.380000000000052" as="targetPoint"/>
                    </mxGeometry>
                </mxCell>
                <mxCell id="157" value="TURNO MEDICO" style="text;html=1;align=center;verticalAlign=middle;resizable=0;points=[];autosize=1;strokeColor=none;fillColor=none;" vertex="1" parent="1">
                    <mxGeometry x="713.6800000000001" y="3.3800000000000097" width="120" height="30" as="geometry"/>
                </mxCell>
                <mxCell id="158" value="" style="shape=stencil(lVjZctswDPwav2JI8MRzmv5HZuLUnrp2xnF6/H2hesiIkLSdvDkKlsS1C0i78PB2eHrd79i93a6X7/tfx+fbYRe+7JiP58P+erzpr1143IWHl8t1/+16eT8/3/9+fZosp18/Lj+nE37fcY6cm0Ds/twfCJP4f0++3u1Px/PMninUwb4IxbxtHyiX0d5RAPaJXBrss6cI/MlUwmCfmFLctq9URn9ioMLb9t4T+wEQEiXgkI8UeQDonT6BjGqKZAD4TBmEoA74sQYCUxT7cT1mKqgE6u8YgadUQAkq1dGf3lTrJXCtYz7Oz8BeO5LZxJtBvKL+jyXTFEeQUBFKYwUCkwcA7xa0idyStnWFjH2XPEmAgDwGoUTIFUYtC6ahzlZAGKmmhfHIpdQc6HUIkGsSyY95nY4AVBDNial0IQatV6V53AGVGMRQM3lnAREBQiPvzKUKYtAkmmaSDLNU6iKtEWapFMom6K7KW4BkKq3tiG6ojS8dUKAkadBGJWtqwr8OYBt0jcQoraq6BoCbr2pa2QKgzOigWbgEZSO0RpgFLUBYtfvj2BrqJFJK7RyrfK6RdusGMb3EbeBtUbQYQMIu6XmGD5kqArgVxsHxUOz4mSiKWiOu3ICErHq7xCinHeKDNFGZZSkgThc7ErVZPGgNBZiZqHlDQ1op6gxFKxaBTwNUI0aAPkkAMInAWAedQA7VwbW9YjbjIKdd0+rZtsc4hjqmVdc9B3YHBTiz7sWm5+uAbAG6IqORlaXt17N1j4FLSVoSO6BQAQSK0ujSXVLVAJtAdHbs6sKEbgjBLie64woAcFls0RXqEvcR2AvXtXAdwHZkpQjlXnOSxrTm0HRkfemrVu4LXuG0TEY1tH8LWiv7+JhtAgyaTwHJSGWiggCLtKryIV3yYSGVqhooaE91rLQI3Mi8swRSAIpBdcy8Ljn8vpFbhLMLKvAo2r1Y7QN8JS7RpgjNK287VWuAznftfXNWZLS9OasX2kXoFf2znwD+b68/Pr43vBxPp/vnivn/7fcJfXT/thEe/wI=);lineShape=1;" vertex="1" parent="1">
                    <mxGeometry x="527.2056944031683" y="19.432009613952914" width="26.28806926344396" height="32.96494036851095" as="geometry"/>
                </mxCell>
                <mxCell id="159" value="" style="shape=stencil(lVbLbhsxDPyavQ5EUQ/qnKb/ESBObdS1A8fp4+9Ld7FOyHhZ5KbVciRxOENp4ruX7cPzZsrp5Xw6ft/82j2etxN/mXLeHbab0+6so4nvJ757Op42307H18Pj/P38cIm8jH4cf15W+D3jqILlgsrpzzyTwP3fxNc5fr87vIvntvxe4gU9r8e3jmLjaWCMdYDoemQAnCBtHTAYKVlAwQiONBpqMYCSQSUACEYzgErodR1AKfkztYweJTFQ7Ra9IFEA6Gi2blLAHACK32FktAiQULMFCFJAk9SlsNdSv/FwG0Eo1W/BAaB3sEuCQUESyiJZgJ4y4rWrFMQXQiIALSxeS82ogcB1h2odUfPC9FoOYnlVvfbAo108S6wuD/QqqgTnOYpL3UH2SGrSqHBDWbKeY16WuA2ovm/wQInkelXOlSWdiVw9IFbfdcSWU4A9Uteko0YjXt4q+BQUTpN2vU9NSEHhlNZhadXm1iLH9Q+mHmErU2kM9oAc5HABlM8AtDNWu4NeASLrANXmsJXuvBC90o59/24FObIohi2DnjEF3buCnKMFFCgp+wS0A7QoAWRbtNKQAuElZMsoS9iSPtxW6uYexruKZb2Dg3iC2PX11RHd0IzuNLf44raCkJ3zw46tLrcdnlCDcMp++fhS++yL6v/xOnh7vj3t9vv59ff+v3/u6dT8VOT7vw==);lineShape=1;" vertex="1" parent="1">
                    <mxGeometry x="536.4762319464162" y="40.796120446739906" width="15.143109364569227" height="6.158135070239041" as="geometry"/>
                </mxCell>
                <mxCell id="160" value="" style="shape=stencil(lVfLbhsxDPyavRIU9eQ5Tf8jQJzaqGsHjtsmf19uF2tbXO8Eua1ljiQ+ZkgN8eFt+/S6GYTfzqfjz83f3fN5O8Rvg8jusN2cdmf7GuLjEB9ejqfNj9Px9+F5+v36NFqOX7+Of8Yd3idcKKRpRAl/TCuZUv2/8H2y3+8Ot/aJtHb2BsgZACKVHpCEEgbUHpCFcoJX4t6FEkkUALIH1EiMnK6UtQM0ptjWARYTiT2gkoZ1QGLK1QNaWQfkQsmdkElBWCtTkR5gmQFXao1EvNMFXEkD5bgAgLBqmve7AAJFBKgkrQcIVQYApeCulCgDpwMzMfeIAsNkR7TQAxpVUH3aKPdOKM9b3AcsUq0COarRl+t15T7AqrlPhKWGQTFZcXL1JyAfLOzcvA8NMMgqoTgfAqSc1VrIfR4U6kzVBSEqlI3xBMfRTAEIk/lQXfXFmVNrUQq9MI1bIEBdAD6pJV7IBuPSMJHI/kqMVMCqdcHRgPlQgo8Skr6RcQvpa+gEJXXy3aDej7LRi4Becr8qTI6iYe6Ta9K3pKiA8rb9UvEAeMJXAdV6lgNcUnm/BRmBHKcbBCRjcF+tN3J7v48KSfJHVKTfFkWXuQzjWhYtSGGDkLk0b6ob7c9Ue3sbNQrw2OqsJ4PNMgnau3Zlw1IC5FkovU1jAvd3Pd1GmwD91d4+Q7UIPr9GfXCb4IksVOK6efQtIcBWnrzUMbxMoajOXICrzc8uuPSD7Ra8PRqbZQ701R4VzjhmOzLOU/Ha0OxGKUsGaE32sHDdMmJ/C9U+PgkW5pcfLp/a28f1lfSy2++nR9bt//5VZUvTiyw+/gM=);lineShape=1;" vertex="1" parent="1">
                    <mxGeometry x="561.3351116454435" y="19.27958648767833" width="24.232660549025695" height="36.72215287525887" as="geometry"/>
                </mxCell>
                <mxCell id="161" value="" style="shape=stencil(lVfLctswDPwaXTEkwAd4TtP/yEyc2lPXzjju6+8LV6VsMNZ2clNkrAgsFgtmkoe37dPrZuLwdj4dv25+7p7P20k+Tcy7w3Zz2p3taZLHSR5ejqfNl9Px++F5/vv16RJ5efp2/HH5wq8ZVymVC4jD7/lFoBD+vvg8h+93h5vwy8/s4iuxrMeLUGguPkZKaR2QmJhHgOo6IDMl8QCmBgCFqVQPSMQgpWonqAcUSnEdoDySFJUCOKFlYs8SN0hrqyT+BMkUCgAoqS86SX9zH9Co+pRyoopSap31DiiFMmDJAP9IXKRUqaGUlGJ2ADUAA0Ah8dIwogWllCgmD2gkKCXTZhwBBQC0UfYsWZKxAUCl4vtgn2Agb31XdLWUECBT8bQWJcGA6ovO1mkgPkspe7Wm3EdqrehBS1Jw0SY+X4MNUENqfWczZmQRGJ9JI3tpsM00kkbprC81MFU8omlgKVBBgNZZX/oQOg13ATEs5r60mmHnWhuLqOaVeEaLp0kTKcjJaGpe303gQFgjmq/hStxaq/OwggJeci2Mdmx+C1sXSMJHAGpL0ANUobvWSNWLw4YKyc8ay94GbCspOMH26KANDf3M+5vavM8DqkIxmf7zALAaQEq2NesAEGj4ZqXemMzJ0KJOfUHdrKwChGGXmcEpuYvxfgEjQ7l2F7kbH0j98NhAK6g3jD22pR7h94cWS4IuGSh6gzGGC5jNMC4G6yC6u0UqQ3ykBhTE47Zddt1Ke3lYCjA89/m4XoUjmLAP3pz/G24P10v6y26/n+/4t7+Pl3p7Nf9DII9/AA==);lineShape=1;" vertex="1" parent="1">
                    <mxGeometry x="585.5685498494781" y="21.561775512047916" width="30.479842104732597" height="6.018364239195307" as="geometry"/>
                </mxCell>
                <mxCell id="162" value="" style="shape=stencil(lVbLctswDPwaXTEkAL7OafofmYlTe+raGcd9/X2hqmxE0tqMb7KMFbHAYsFJHt72T6+7id3b9XL+uvt5eL7uJ/k0MR9O+93lcLWnSR4neXg5X3ZfLufvp+fl9+vTHDk/fTv/mL/wa8GVQsozit3v5U2gEP+++LzEHw+nVbx3jpxrAOzI+21EUWJpAJKJwzYgF0otIERyCQCUfGoAKZHoNiAaR98ASqACOEQmCS3ATsjbgDnj0gIyRdkGaCLtUioUAEASsesBBaTEkYIOAHCCvwWQAvpQ27ri/E9ctzMavp/Ig/hBeda1CONLF6+1K7ebRr7LnykC3XlTRXeAhz1jT7EDOErgBOFBRo4UUFDLOAwnOMCZyZeeA2pyKPV7qyop0F3UQdlCGZC26czDdCrgEKUW8T8gwnEOuWa8UiqypOAotC5po8CAtFrVh3HOACCuWlwFrJz2tvoGm7Qj0Dh4yyn2rBMSU/X11XwGwMGkObTBg3FwxF1RlQLI5954MzBtDcb2ggNttpJqW6FgWgSLZKbcCslsuYD1aQ7QDcMH29MApZ1PvJ9Z+qZprdrWVuj2P0MC4nvVeVgh2/XdIJgrgxZorEvsPV5A/vOi1S4eTY2Zi6Q74pO5l9yRT+beHjFfu+zE3NcTxJvku/rgfs3G1uoH6+He++DH8fbwfvl8ORyPy911/X9/WbVXy0VXHv8A);lineShape=1;" vertex="1" parent="1">
                    <mxGeometry x="600.9862172852349" y="22.047718797374046" width="4.092217626813181" height="28.3057966358258" as="geometry"/>
                </mxCell>
                <mxCell id="163" value="" style="shape=stencil(nVfLctswDPwaXTEkwRfOafofmYlTe+raGcd9/X2haqgIlLSZ9ibTWBIAFwtw4Ie349PrYQju7X67fj38PD3fjwN/GkI4XY6H2+muXwM/Dvzwcr0dvtyu3y/P0+/Xp9Fy/Pp2/THu8GvCOXJuBAX3e1qoQhL+rnye7M+ny8Lek4vGvkSSuG8fKCdjnwMlYJ8pe2MfI0Vg75mCBegWUoFDgaIYgG7BvA/gRNWGzBTLvn3yxNXYzznejrj2EcS2sGlffTt+DiBQlX2AeEq1T1EFEUhuFJg90ksDpBAhnw0gZUogBgVUe0IWCglcs1sTNTUq7h3BNq3KbAeIIYWCJYYEKiiISN5yWxIlwCRxFNgC9MwMrjqRrADIJeVGsVnSu6zApVJIuqAjFQRI5C2ZlF4ZuFSYkqVrLVQxgG3QlakA9qkCRetSESqA30X5bbOkKwyoUR1xp3rcttgGzKI1A0Irwm1AbR4vAahGQyvhhUsfFDWHVdCg5ERdSqu0InpLLxt6cRlVnFC25FNqoItTl3xHb4+zlIg7QGwVsqeVeV1AgHzqMdt7GEsUUYPJrQABsVXF1XJplBlwcVqifU2rkAGpHMls5Vul0iMR4CbWSzEGLei/APYe8lzl2wDfhHHuWZUSOCHn1jTnth5h0Ellq2ujCYpx1LTaoLWzo4pj7lVDZ48IXAplNToIFLJxHLMxZNVzQD6dXcSe8M6uPYDvyOcgwKuoWPIJw6boV1I5VjkCaJa6llWak9uAtKrpShkNxbyaBATqkne9ti4GnG3Z6NV7HKHQFLrSAGkVtc29viVqyA6QOzTaLHSSQU7dan+tZ5BS10+UqmEB2v/bO+Zje/14fzS9nM7n6c21/L9/ZOnS9EDjxz8=);lineShape=1;" vertex="1" parent="1">
                    <mxGeometry x="620.4391829401152" y="26.139354743288436" width="21.775193781920734" height="23.01089731527395" as="geometry"/>
                </mxCell>
                <mxCell id="164" value="" style="shape=stencil(rVbLbhsxDPyavRISKVHSOU3/I0CceBHHDhynbf4+3G53Yyr2FAV6W8sc8TEcUoPcvG7vXjYDh9fT8fC0+Tnen7aDfBuYx/12cxxP9jXI7SA3D4fj5vF4eNvfz79f7ibL6ev58GO64deMi41Cm1Ac3ueTQCH8Pvg+2+/G/Zm9VOLk7JlCuW5fExV/f7QTvg5ogVQ8oFGLAJApsY+oUlMAqKTqAClQk+uAGNaaLIicKIOsWyOJDqCVUgYA7WOqkSIqE5P4MrW4MHOZCKXiPbSynFwGBMrZExFwb5REkr64AElYUbrmsCQiiEkTpdKXKYDm0EhVeiIEcK1rAGdUI+aUKXsP1k0VJZ2p1L5fK2imYkR4gCmiAqqLUuokZJoDxFWm4ts1CpRQNeI8DxEz3ey+LumMFVT6KonCHExyHSDZ3ABVmgA+B7UgkQcLyQuiFKxRWcbK2q02PQFgKqsfZTYXAhI1k/qQpqxAt1priE/apuEfZv4PQDKx17QF2RqYrkrsq1QqReAh2sbxErUgGXiwovvuLry4vGifln2zNobdD4pqo9iTkG3DgHhsw33tVGjfbR+bMAriCf0YlgjzjYuwVm1afYD6ra078SdiNMAodLqhAtctlS5+uHbMezfjrQCof/7xyfN3e/v4fF89jLvd/Dw7/79/j9nR/JaT2w8=);lineShape=1;" vertex="1" parent="1">
                    <mxGeometry x="628.0882131000399" y="40.743366115588856" width="11.60043980015098" height="5.228182968181272" as="geometry"/>
                </mxCell>
                <mxCell id="168" value="PRIMERO" style="text;html=1;strokeColor=none;fillColor=none;align=center;verticalAlign=middle;whiteSpace=wrap;rounded=0;" vertex="1" parent="1">
                    <mxGeometry x="892.46" y="3.3800000000000523" width="60" height="30" as="geometry"/>
                </mxCell>
                <mxCell id="170" value="SEGUNDO" style="text;html=1;strokeColor=none;fillColor=none;align=center;verticalAlign=middle;whiteSpace=wrap;rounded=0;" vertex="1" parent="1">
                    <mxGeometry x="900" y="85.32000000000009" width="60" height="30" as="geometry"/>
                </mxCell>
                <mxCell id="172" value="TERCERO" style="text;html=1;strokeColor=none;fillColor=none;align=center;verticalAlign=middle;whiteSpace=wrap;rounded=0;" vertex="1" parent="1">
                    <mxGeometry x="876.14" y="187.03" width="60" height="30" as="geometry"/>
                </mxCell>
                <mxCell id="173" value="" style="shape=stencil(lVbZctswDPwavWJIELye0/Q/MhOn1tS1M457/X2hqnJNwl5bb7K8KxKLxTGEp4/ty/tmYPdxOh6+bn6Or6ftED4NzON+uzmOJ30awvMQnt4Ox82X4+H7/nX+/f4yIaenb4cf0xd+zTymyBOJ3e/5hSPn/r74PMN34/4C7hPl1OCZXL6ND4HENfhAsdzGi1Bu7yOUwPdjoloafCRJt/GZSUKDT+TCbXzJJKXDi9zG10zFdfiM8IWib/CVnAf4Sr69v48UgUBKSK2gqlAGESuhtoRQFs2uW8KdLXPOAVNAQVcqsRUp3Yu6y0IumFCoSkPQRCKfKoHbEyoT40T/k/1MCLByaqLSnlAqMbCqEri2BL8U03VCpNLWZnb4hEipNdNUTnUNQe4Eba6k/obuM0F7rRB0JSOrd7jiTOIyDsE4Iy8t8EHreV7ePGjuqaeiG5nyCYKbtq1QybCt2iaQPOzbts1kWXR7sJEVwZ3VdkqHzWpasVYoLIe1BDsclBBXTR8l1FXjrQpFoJKdn1qCARScHdBaUcLATGYDUN0qOMFsGBd2vH5C770p9RHhg/QaMRDVUTGzAUXs+qTp8EF92JHvpluGPc+OT52G8D59MWMTmfsEvqNPF68qjFqw0VMbHlpJTL7wQmLsoFMQuGHlQnsXrg//d+e3cbebV+/L//tdW1/Ne3p4/gM=);lineShape=1;" vertex="1" parent="1">
                    <mxGeometry x="311.71583760736667" y="393.5384420975271" width="57.89659860412121" height="2.9438372404927122" as="geometry"/>
                </mxCell>
                <mxCell id="174" value="" style="shape=stencil(lVfbchoxDP2afdXYknx7TtP/yExIYUohQ0jb/H203TFZiV1R3hbjY+tydCQP9PC2fXrdDBjezqfjz82f3fN5O9C3AXF32G5Ou7N8DfQ40MPL8bT5cTq+H56n369P487x69fx93jC3wkXCUIcURg+ppUAOf9b+D7t3+8Os/2YICW1PwHW9f3MUPX5kaHxOiDJeU0BECG0dUAWgL4BG1RcBxQGLgpABbJzQ5UYVQXg5AKaxFDfkBgoOoAMxAqQCTCtA2IIEIJCFPHatymhAjTsqVwOU4FoABUoOIkIULVJMyuXyZGgkL2iOHGiAM3YJHwkh64F2NzAnS7LAIZMNkzB4auws2pAbW7qBIA6TDVDvHGDdnokpEPw0QcDCIA3oqRLqFQIjgqMeTDsyz2VywCGghZADl2pAuuaEz56JnGEUqwPXpGKMqEG1OgKzVfRXwAMwXFaACZKVWrqhlhqp6Vq0ck0ow2rsLU6XKLW1X1WD8VhK+VOtVnFFY8aCLHcA8DaK/g/TZKOw/kep5G6bs3D6tUDXlFDEudQQwCGrSM1fJMsNSJET5cu5TKjd3G0VZpgvi6g4iSOgHUPulWiBTBbgCsC9wJkFjAtSIQsOQWUW9eIeU07Tst5gaxJ0euKMjzoPEinzs4Nudp5JuW+stZGjRhz7TPUcpRiL5cLIAJ7bRdtoxZ5Jk8EyFacdIzqOB2LpXdsbo9L1meZEtlTGUjmfOrjzbJB0HSaI7rCGqDopEV/LA4QzRAAzUnZ9fDmdp4rRiSXQRFIVw31mWZZKbqOXJLbB5Rl9gBrtvkVlq0yBiDHmGonZ3+ClLTUZvZ7Mnrvc+f2fvn4elu97Pb76Wk2/9++xWRpesfR4yc=);lineShape=1;" vertex="1" parent="1">
                    <mxGeometry x="364.3954031230028" y="383.72822287134125" width="22.96702536239127" height="27.974976523415876" as="geometry"/>
                </mxCell>
                <mxCell id="175" value="&lt;font style=&quot;font-size: 48px;&quot;&gt;24 . Z . BAJA&lt;/font&gt;" style="text;html=1;strokeColor=none;fillColor=none;align=center;verticalAlign=middle;whiteSpace=wrap;rounded=0;" vertex="1" parent="1">
                    <mxGeometry x="390.62000000000006" y="328.28" width="401.15" height="74.91" as="geometry"/>
                </mxCell>
                <mxCell id="177" value="&lt;font style=&quot;font-size: 48px;&quot;&gt;26 . A .&amp;nbsp;&lt;/font&gt;&lt;span style=&quot;font-size: 48px;&quot;&gt;ALTA&lt;/span&gt;" style="text;html=1;strokeColor=none;fillColor=none;align=center;verticalAlign=middle;whiteSpace=wrap;rounded=0;" vertex="1" parent="1">
                    <mxGeometry x="390.62" y="406.13" width="396.35" height="88.64" as="geometry"/>
                </mxCell>
                <mxCell id="178" value="&lt;font style=&quot;font-size: 24px;&quot;&gt;° La aplicación debe permitir ordenar el listado de tareas por tìtulo, fecha de vencimiento o prioridad.&lt;/font&gt;" style="text;html=1;align=center;verticalAlign=middle;resizable=0;points=[];autosize=1;strokeColor=none;fillColor=none;fontSize=48;" vertex="1" parent="1">
                    <mxGeometry x="301.75000000000006" y="-180" width="1090" height="70" as="geometry"/>
                </mxCell>
                <mxCell id="179" value="ordenarPorTitulo()" style="text;html=1;strokeColor=none;fillColor=none;align=center;verticalAlign=middle;whiteSpace=wrap;rounded=0;fontSize=24;" vertex="1" parent="1">
                    <mxGeometry x="232.87" y="-40" width="370.28" height="30" as="geometry"/>
                </mxCell>
                <mxCell id="181" value="categorias" style="text;html=1;strokeColor=none;fillColor=none;align=center;verticalAlign=middle;whiteSpace=wrap;rounded=0;fontSize=24;" vertex="1" parent="1">
                    <mxGeometry x="743.6800000000001" y="-40" width="60" height="30" as="geometry"/>
                </mxCell>
                <mxCell id="186" style="edgeStyle=none;html=1;fontSize=18;" edge="1" parent="1" source="182" target="187">
                    <mxGeometry relative="1" as="geometry">
                        <mxPoint x="1380" y="131.76999999999998" as="targetPoint"/>
                    </mxGeometry>
                </mxCell>
                <mxCell id="182" value="&lt;h1&gt;&lt;div style=&quot;color: rgb(212, 212, 212); background-color: rgb(30, 30, 30); font-family: Consolas, &amp;quot;Courier New&amp;quot;, monospace; font-weight: normal; font-size: 14px; line-height: 19px;&quot;&gt;&lt;div&gt;&lt;span style=&quot;white-space: pre;&quot;&gt;&#9;&amp;nbsp;&lt;/span&gt;&amp;nbsp; &amp;nbsp;TAREA&lt;br&gt;&lt;/div&gt;&lt;div&gt;&amp;nbsp; &amp;nbsp; °&amp;nbsp;&lt;span style=&quot;color: #569cd6;&quot;&gt;private&lt;/span&gt; &lt;span style=&quot;color: #9cdcfe;&quot;&gt;titulo&lt;/span&gt;:&lt;span style=&quot;color: #4ec9b0;&quot;&gt;string&lt;/span&gt;;&lt;/div&gt;&lt;div&gt;&amp;nbsp; &amp;nbsp; //&lt;span style=&quot;color: #569cd6;&quot;&gt;private&lt;/span&gt; &lt;span style=&quot;color: #9cdcfe;&quot;&gt;descripcion&lt;/span&gt;:&lt;span style=&quot;color: #4ec9b0;&quot;&gt;string&lt;/span&gt;;&lt;/div&gt;&lt;div&gt;&amp;nbsp; &amp;nbsp; °&amp;nbsp;&lt;span style=&quot;color: #569cd6;&quot;&gt;private&lt;/span&gt; &lt;span style=&quot;color: #9cdcfe;&quot;&gt;fechaVec&lt;/span&gt;:&lt;span style=&quot;color: #4ec9b0;&quot;&gt;number&lt;/span&gt;;&lt;/div&gt;&lt;div&gt;&amp;nbsp; &amp;nbsp; °&amp;nbsp;&lt;span style=&quot;color: #569cd6;&quot;&gt;private&lt;/span&gt; &lt;span style=&quot;color: #9cdcfe;&quot;&gt;prioridad&lt;/span&gt;:&lt;span style=&quot;color: #4ec9b0;&quot;&gt;Prioridad&lt;/span&gt;;&lt;/div&gt;&lt;div&gt;&amp;nbsp; &amp;nbsp; //&lt;span style=&quot;color: #569cd6;&quot;&gt;private&lt;/span&gt; &lt;span style=&quot;color: #9cdcfe;&quot;&gt;categoria&lt;/span&gt;:&lt;span style=&quot;color: #4ec9b0;&quot;&gt;string&lt;/span&gt;;&lt;/div&gt;&lt;div&gt;&amp;nbsp; &amp;nbsp; //&lt;span style=&quot;color: #569cd6;&quot;&gt;private&lt;/span&gt; &lt;span style=&quot;color: #9cdcfe;&quot;&gt;etiqueta&lt;/span&gt;:&lt;span style=&quot;color: #4ec9b0;&quot;&gt;string&lt;/span&gt;;&lt;/div&gt;&lt;div&gt;&amp;nbsp; &amp;nbsp; °&amp;nbsp;&lt;span style=&quot;color: #569cd6;&quot;&gt;private&lt;/span&gt; &lt;span style=&quot;color: #9cdcfe;&quot;&gt;avance&lt;/span&gt;:&lt;span style=&quot;color: #4ec9b0;&quot;&gt;number&lt;/span&gt;;&lt;br&gt;&lt;br&gt;&lt;/div&gt;&lt;div&gt;&lt;br&gt;&lt;/div&gt;&lt;/div&gt;&lt;/h1&gt;" style="text;html=1;strokeColor=none;fillColor=none;spacing=5;spacingTop=-20;whiteSpace=wrap;overflow=hidden;rounded=0;fontSize=24;" vertex="1" parent="1">
                    <mxGeometry x="1030" y="23.54" width="270" height="216.46" as="geometry"/>
                </mxCell>
                <mxCell id="184" value="&lt;h1 style=&quot;text-align: left;&quot;&gt;&lt;font style=&quot;font-size: 18px;&quot;&gt;&lt;font style=&quot;&quot;&gt;Los usuarios deben poder editar las tareas existentes para modificar sus detalles, cargar el porcentaje de avance(0, 25,&amp;nbsp;&lt;/font&gt;&lt;span style=&quot;background-color: initial; font-weight: normal;&quot;&gt;&lt;font style=&quot;&quot;&gt;50, 75 o 100) o marcarlas como completadas.&lt;/font&gt;&lt;/span&gt;&lt;/font&gt;&lt;/h1&gt;" style="text;html=1;strokeColor=none;fillColor=none;align=center;verticalAlign=middle;whiteSpace=wrap;rounded=0;fontSize=12;" vertex="1" parent="1">
                    <mxGeometry x="930" y="230.64000000000001" width="740" height="185.41" as="geometry"/>
                </mxCell>
                <mxCell id="187" value="// INUTIL&lt;br&gt;° IMPORTANTE&lt;br&gt;-RELATIVA -" style="text;html=1;strokeColor=none;fillColor=none;align=center;verticalAlign=middle;whiteSpace=wrap;rounded=0;fontSize=18;" vertex="1" parent="1">
                    <mxGeometry x="1350" y="84.09" width="180" height="93.23" as="geometry"/>
                </mxCell>
                <mxCell id="188" value="&lt;font style=&quot;font-size: 48px;&quot;&gt;24 . Z . BAJA&lt;/font&gt;" style="text;html=1;strokeColor=none;fillColor=none;align=center;verticalAlign=middle;whiteSpace=wrap;rounded=0;" vertex="1" parent="1">
                    <mxGeometry x="470" y="731.16" width="400" height="74.91" as="geometry"/>
                </mxCell>
                <mxCell id="189" value="&lt;font style=&quot;font-size: 48px;&quot;&gt;26 . A .&amp;nbsp;&lt;/font&gt;&lt;span style=&quot;font-size: 48px;&quot;&gt;ALTA&lt;/span&gt;" style="text;html=1;strokeColor=none;fillColor=none;align=center;verticalAlign=middle;whiteSpace=wrap;rounded=0;" vertex="1" parent="1">
                    <mxGeometry x="470.29" y="642.52" width="399.71" height="88.64" as="geometry"/>
                </mxCell>
            </root>
        </mxGraphModel>
    </diagram>
</mxfile>